<svg xmlns="http://www.w3.org/2000/svg" viewBox="0 0 179.51 43.86"><defs><style>.cls-1{fill:#5b6677;}</style></defs><title>logo_footer</title><g id="Layer_2" data-name="Layer 2"><g id="Layer_1-2" data-name="Layer 1"><path class="cls-1" d="M7.33,29.16a2.16,2.16,0,0,0-.4-.12l-.27,0a.89.89,0,0,0-.82.41,2.07,2.07,0,0,0-.25,1.1,2.46,2.46,0,0,0,0,.43,2.35,2.35,0,0,0,.07.32H7.13v1.67H5.68v4.14q0,.53,0,1t0,1c0,.3,0,.56,0,.8s0,.42.06.55H3.1q0-.2.06-.55t0-.8q0-.44,0-1t0-1V32.94H2.11V31.27H3.25a8.23,8.23,0,0,1,.18-1.82A2.54,2.54,0,0,1,4,28.4a3.35,3.35,0,0,1,2.69-1.05h.3a1.55,1.55,0,0,1,.39.06Z"/><path class="cls-1" d="M7.39,35.84a6.2,6.2,0,0,1,.24-1.7,4.93,4.93,0,0,1,.74-1.54A4,4,0,0,1,9.6,31.49,3.38,3.38,0,0,1,11.34,31a3.38,3.38,0,0,1,1.74.44,4,4,0,0,1,1.23,1.12,4.92,4.92,0,0,1,.73,1.54,6,6,0,0,1,0,3.4,4.93,4.93,0,0,1-.73,1.53,4,4,0,0,1-1.23,1.12,3.39,3.39,0,0,1-1.74.44A3.39,3.39,0,0,1,9.6,40.2a4,4,0,0,1-1.23-1.12,4.94,4.94,0,0,1-.74-1.53A6.17,6.17,0,0,1,7.39,35.84Zm5.23,0a6.85,6.85,0,0,0-.31-2.26q-.31-.86-1-.86t-1,.86a6.84,6.84,0,0,0-.31,2.26,6.84,6.84,0,0,0,.31,2.26q.31.86,1,.86t1-.86A6.85,6.85,0,0,0,12.61,35.84Z"/><path class="cls-1" d="M19,31.27a5.61,5.61,0,0,1,.15.72,4.32,4.32,0,0,1,.06.59h0a3.74,3.74,0,0,1,1.14-1.13A3.13,3.13,0,0,1,22,31v2.14l-.23,0a2.14,2.14,0,0,0-.37,0,1.67,1.67,0,0,0-1.38.67,2.09,2.09,0,0,0-.38.72,6.38,6.38,0,0,0-.28,1.74c0,.3,0,.57,0,.83s0,.7,0,1,0,.66,0,1,0,.56,0,.8,0,.42.06.55H16.7q0-.2.06-.55t0-.8q0-.44,0-1t0-1V34.61q0-.51,0-1t-.06-1q0-.44-.1-.8a5.38,5.38,0,0,0-.11-.55Z"/><path class="cls-1" d="M30.8,27.46q-.09.85-.11,2.41t0,4.06q0,2.5,0,4.07t.11,2.41H27.86q.09-.85.11-2.41t0-4.07q0-2.5,0-4.06t-.11-2.41Z"/><path class="cls-1" d="M34.83,31.27a7.79,7.79,0,0,1,.25,1A3.28,3.28,0,0,1,36,31.4,2.43,2.43,0,0,1,37.31,31a2.38,2.38,0,0,1,1.14.25,2.09,2.09,0,0,1,.76.69,3,3,0,0,1,.42,1,5.15,5.15,0,0,1,.13,1.15v2.94q0,.53,0,1t0,1c0,.3,0,.56,0,.8s0,.42.06.55H37.19q0-.2.06-.55t0-.8q0-.44,0-1t0-1V34.79a2.9,2.9,0,0,0-.23-1.33.79.79,0,0,0-.75-.41,1.19,1.19,0,0,0-.77.29,1.06,1.06,0,0,0-.35.87v2.87q0,.53,0,1t0,1q0,.45,0,.8t.06.55H32.65q0-.2.06-.55t0-.8q0-.44,0-1t0-1V33.79q0-.42,0-.87T32.69,32a5.39,5.39,0,0,0-.15-.76Z"/><path class="cls-1" d="M44.41,28.51a3.06,3.06,0,0,0-.05.45c0,.28,0,.6,0,1v1.34h1.49v1.67H44.32v4.25a6.44,6.44,0,0,0,0,.85,1.8,1.8,0,0,0,.14.52.52.52,0,0,0,.25.26,1,1,0,0,0,.4.07l.34,0,.34-.05v1.49a5.42,5.42,0,0,1-.91.24,5.57,5.57,0,0,1-1,.09,2.19,2.19,0,0,1-1.1-.24,1.52,1.52,0,0,1-.62-.65,3,3,0,0,1-.27-1,12.8,12.8,0,0,1-.06-1.34V32.94H40.78V31.27h1.11V29.8c0-.3,0-.56,0-.78a3.8,3.8,0,0,0-.05-.51Z"/><path class="cls-1" d="M49.22,37a3.13,3.13,0,0,0,.23.7,2.34,2.34,0,0,0,.38.59,1.81,1.81,0,0,0,.53.41,1.43,1.43,0,0,0,.66.15,2.09,2.09,0,0,0,1-.25,4.88,4.88,0,0,0,.92-.61l.87,1a5,5,0,0,1-1.47,1.14,4.12,4.12,0,0,1-2,.47,3.46,3.46,0,0,1-1.52-.34,3.91,3.91,0,0,1-1.25-1,4.62,4.62,0,0,1-.85-1.46A5.38,5.38,0,0,1,46.39,36a6.56,6.56,0,0,1,.26-1.87,4.93,4.93,0,0,1,.77-1.57,3.85,3.85,0,0,1,1.25-1.09A3.52,3.52,0,0,1,50.4,31a3.14,3.14,0,0,1,1.49.34,2.71,2.71,0,0,1,1,.92,4.41,4.41,0,0,1,.54,1.36,9.67,9.67,0,0,1,.27,1.76Zm1.29-2.16a1.45,1.45,0,0,0,.64-.36.74.74,0,0,0,.14-.45A2.05,2.05,0,0,0,51,33a.85.85,0,0,0-.79-.47.82.82,0,0,0-.56.21,1.7,1.7,0,0,0-.4.55,2.94,2.94,0,0,0-.24.78A5.36,5.36,0,0,0,49,35v.24a.91.91,0,0,0,0,.18Z"/><path class="cls-1" d="M61.47,31.07l.67.49a11.25,11.25,0,0,0-.27,1.91q-.05,1-.05,1.94t0,2.31q0,1.3,0,2.5a5,5,0,0,1-.23,1.7,2.39,2.39,0,0,1-.74,1,3.6,3.6,0,0,1-1.51.74,7.12,7.12,0,0,1-1.54.18c-.31,0-.63,0-.93,0s-.6-.07-.87-.12l-.74-.15-.52-.11.56-2.18a3.18,3.18,0,0,0,1,.64,3.74,3.74,0,0,0,1.44.28A1.37,1.37,0,0,0,59,41.7a2,2,0,0,0,.35-1.18c0-.1,0-.18,0-.26s0-.17,0-.26a3.1,3.1,0,0,1-.77.33,3.31,3.31,0,0,1-.92.13,2.83,2.83,0,0,1-1.22-.27,3.08,3.08,0,0,1-1-.8,3.88,3.88,0,0,1-.72-1.3,5.54,5.54,0,0,1-.26-1.79,6.77,6.77,0,0,1,.29-2,5.49,5.49,0,0,1,.82-1.67,4.31,4.31,0,0,1,1.24-1.15A3,3,0,0,1,58.37,31a3.44,3.44,0,0,1,1,.16,3,3,0,0,1,1.09.63Zm-2.09,3.34a3.81,3.81,0,0,0-.17-1.34.67.67,0,0,0-.68-.42,1.07,1.07,0,0,0-.7.25,1.81,1.81,0,0,0-.49.66,4.07,4.07,0,0,0-.29,1,7.26,7.26,0,0,0-.1,1.23A6.89,6.89,0,0,0,57,36.94a3.19,3.19,0,0,0,.29.93,1.72,1.72,0,0,0,.51.62,1.25,1.25,0,0,0,.76.23,1.28,1.28,0,0,0,.45-.08.44.44,0,0,0,.27-.21.36.36,0,0,0,0-.11s0-.13,0-.24,0-.25,0-.42V34.41Z"/><path class="cls-1" d="M66,31.27a5.61,5.61,0,0,1,.15.72,4.32,4.32,0,0,1,.06.59h0a3.74,3.74,0,0,1,1.14-1.13,3.13,3.13,0,0,1,1.65-.4v2.14l-.23,0a2.14,2.14,0,0,0-.37,0,1.67,1.67,0,0,0-1.38.67,2.09,2.09,0,0,0-.38.72,6.38,6.38,0,0,0-.28,1.74c0,.3,0,.57,0,.83s0,.7,0,1,0,.66,0,1,0,.56,0,.8,0,.42.06.55H63.72q0-.2.06-.55t0-.8q0-.44,0-1t0-1V34.61q0-.51,0-1t-.06-1q0-.44-.1-.8a5.38,5.38,0,0,0-.11-.55Z"/><path class="cls-1" d="M74.34,40.42a3.6,3.6,0,0,1-.19-.36L74,39.78a6.33,6.33,0,0,1-1,.59,2.61,2.61,0,0,1-1.18.26,3,3,0,0,1-.94-.15,2.58,2.58,0,0,1-.86-.48,2.47,2.47,0,0,1-.64-.83,2.78,2.78,0,0,1-.24-1.22,3,3,0,0,1,.32-1.42,3.34,3.34,0,0,1,.92-1.08,5.79,5.79,0,0,1,1.43-.81A15.86,15.86,0,0,1,73.74,34a2.16,2.16,0,0,0-.49-1,1.25,1.25,0,0,0-1-.37,3.06,3.06,0,0,0-1.2.25,6.59,6.59,0,0,0-1.05.55V31.14l.63-.06.66,0a11,11,0,0,1,2.49.23,3.15,3.15,0,0,1,1.56.86,2.61,2.61,0,0,1,.54.76,4.15,4.15,0,0,1,.28.83,4.93,4.93,0,0,1,.11.81q0,.39,0,.68v2.29a10.75,10.75,0,0,0,.12,1.62,7,7,0,0,0,.3,1.28Zm-.45-4.72a3.52,3.52,0,0,0-.71.16,2.49,2.49,0,0,0-.71.37,2.11,2.11,0,0,0-.54.61,1.66,1.66,0,0,0-.22.87,1.17,1.17,0,0,0,.32.86,1.09,1.09,0,0,0,.81.32,1.43,1.43,0,0,0,.63-.14,1.36,1.36,0,0,0,.43-.3Z"/><path class="cls-1" d="M81,28.51A3.06,3.06,0,0,0,81,29c0,.28,0,.6,0,1v1.34h1.49v1.67H80.94v4.25A6.44,6.44,0,0,0,81,38a1.8,1.8,0,0,0,.14.52.52.52,0,0,0,.25.26,1,1,0,0,0,.4.07l.34,0,.34-.05v1.49a5.42,5.42,0,0,1-.91.24,5.57,5.57,0,0,1-1,.09,2.19,2.19,0,0,1-1.1-.24,1.52,1.52,0,0,1-.62-.65,3,3,0,0,1-.27-1,12.8,12.8,0,0,1-.06-1.34V32.94H77.4V31.27h1.11V29.8c0-.3,0-.56,0-.78a3.8,3.8,0,0,0-.05-.51Z"/><path class="cls-1" d="M85.84,37a3.13,3.13,0,0,0,.23.7,2.34,2.34,0,0,0,.38.59,1.81,1.81,0,0,0,.53.41,1.43,1.43,0,0,0,.66.15,2.09,2.09,0,0,0,1-.25,4.88,4.88,0,0,0,.92-.61l.87,1a5,5,0,0,1-1.47,1.14,4.12,4.12,0,0,1-2,.47,3.46,3.46,0,0,1-1.52-.34,3.91,3.91,0,0,1-1.25-1,4.62,4.62,0,0,1-.85-1.46A5.38,5.38,0,0,1,83,36a6.56,6.56,0,0,1,.26-1.87A4.93,4.93,0,0,1,84,32.55a3.85,3.85,0,0,1,1.25-1.09A3.52,3.52,0,0,1,87,31a3.14,3.14,0,0,1,1.49.34,2.71,2.71,0,0,1,1,.92,4.41,4.41,0,0,1,.54,1.36,9.67,9.67,0,0,1,.27,1.76Zm1.29-2.16a1.45,1.45,0,0,0,.64-.36.74.74,0,0,0,.14-.45,2.05,2.05,0,0,0-.26-1,.85.85,0,0,0-.79-.47.82.82,0,0,0-.56.21,1.7,1.7,0,0,0-.4.55,2.94,2.94,0,0,0-.24.78,5.36,5.36,0,0,0-.07.89v.24a.91.91,0,0,0,0,.18Z"/><path class="cls-1" d="M96.06,29.29c0-.1,0-.23,0-.39s0-.33,0-.51l0-.52c0-.17,0-.31,0-.42h2.58q0,1-.07,1.74t-.05,1.38q0,.62,0,1.12t0,1q0,.31,0,.93t0,1.42q0,.79.06,1.64t.08,1.63q0,.77.11,1.35a4.49,4.49,0,0,0,.14.8H96.37l-.06-.29c0-.13-.06-.27-.1-.4a6.58,6.58,0,0,1-.91.63,2.37,2.37,0,0,1-1.2.28,2.71,2.71,0,0,1-2.23-1.12,4,4,0,0,1-.62-1.29A6,6,0,0,1,91,36.57a7.31,7.31,0,0,1,.27-2,6.12,6.12,0,0,1,.8-1.77,4.45,4.45,0,0,1,1.3-1.29,3.21,3.21,0,0,1,1.79-.5,3.25,3.25,0,0,1,.48,0l.39.07Zm0,3.94a1.45,1.45,0,0,0,0-.28.27.27,0,0,0-.07-.14.72.72,0,0,0-.53-.16,1.21,1.21,0,0,0-.77.28,2.34,2.34,0,0,0-.61.77,4.66,4.66,0,0,0-.4,1.15,6.56,6.56,0,0,0-.15,1.41,3.46,3.46,0,0,0,.41,1.84,1.23,1.23,0,0,0,1.08.64,1.16,1.16,0,0,0,.61-.18,1.08,1.08,0,0,0,.44-.56Z"/><path class="cls-1" d="M108,27.46q0,.25,0,.71c0,.3,0,.63,0,1s0,.69,0,1,0,.66,0,.93,0,.49,0,.81,0,.58,0,.79l.57,0,.93,0,.93,0,.57,0c0-.21,0-.47,0-.79s0-.59,0-.81,0-.57,0-.93,0-.7,0-1,0-.67,0-1,0-.54,0-.71h2.92q-.09.85-.11,2.41t0,4.06q0,2.5,0,4.07t.11,2.41h-2.94q0-.54.08-1.56t0-2.43v-.91q0-.45,0-.82l-.59,0-.93,0-.93,0-.59,0q0,.36,0,.82v.91q0,1.42,0,2.43t.08,1.56h-2.94q.09-.85.11-2.41t0-4.07q0-2.5,0-4.06t-.11-2.41Z"/><path class="cls-1" d="M118.07,37a3.13,3.13,0,0,0,.23.7,2.34,2.34,0,0,0,.38.59,1.81,1.81,0,0,0,.53.41,1.43,1.43,0,0,0,.66.15,2.09,2.09,0,0,0,1-.25,4.88,4.88,0,0,0,.92-.61l.87,1a5,5,0,0,1-1.47,1.14,4.12,4.12,0,0,1-2,.47,3.46,3.46,0,0,1-1.52-.34,3.91,3.91,0,0,1-1.25-1,4.62,4.62,0,0,1-.85-1.46,5.38,5.38,0,0,1-.32-1.89,6.56,6.56,0,0,1,.26-1.87,4.93,4.93,0,0,1,.77-1.57,3.85,3.85,0,0,1,1.25-1.09,3.52,3.52,0,0,1,1.72-.41,3.14,3.14,0,0,1,1.49.34,2.71,2.71,0,0,1,1,.92,4.41,4.41,0,0,1,.54,1.36,9.67,9.67,0,0,1,.27,1.76Zm1.29-2.16a1.45,1.45,0,0,0,.64-.36.74.74,0,0,0,.14-.45,2.05,2.05,0,0,0-.26-1,.85.85,0,0,0-.79-.47.82.82,0,0,0-.56.21,1.7,1.7,0,0,0-.4.55,2.94,2.94,0,0,0-.24.78,5.36,5.36,0,0,0-.07.89v.24a.91.91,0,0,0,0,.18Z"/><path class="cls-1" d="M128.4,40.42a3.6,3.6,0,0,1-.19-.36l-.12-.27a6.33,6.33,0,0,1-1,.59,2.61,2.61,0,0,1-1.18.26,3,3,0,0,1-.94-.15,2.58,2.58,0,0,1-.86-.48,2.47,2.47,0,0,1-.64-.83,2.78,2.78,0,0,1-.24-1.22,3,3,0,0,1,.32-1.42,3.34,3.34,0,0,1,.92-1.08,5.79,5.79,0,0,1,1.43-.81A15.86,15.86,0,0,1,127.8,34a2.16,2.16,0,0,0-.49-1,1.25,1.25,0,0,0-1-.37,3.06,3.06,0,0,0-1.2.25,6.59,6.59,0,0,0-1.05.55V31.14l.63-.06.66,0a11,11,0,0,1,2.49.23,3.15,3.15,0,0,1,1.56.86,2.61,2.61,0,0,1,.54.76,4.15,4.15,0,0,1,.28.83,4.93,4.93,0,0,1,.11.81q0,.39,0,.68v2.29a10.75,10.75,0,0,0,.12,1.62,7,7,0,0,0,.3,1.28Zm-.45-4.72a3.52,3.52,0,0,0-.71.16,2.49,2.49,0,0,0-.71.37,2.11,2.11,0,0,0-.54.61,1.66,1.66,0,0,0-.22.87,1.17,1.17,0,0,0,.32.86,1.09,1.09,0,0,0,.81.32,1.43,1.43,0,0,0,.63-.14,1.36,1.36,0,0,0,.43-.3Z"/><path class="cls-1" d="M132.1,40.42q0-.2.06-.55t0-.8q0-.44,0-1t0-1v-6q0-.27,0-.8t0-1.08q0-.55,0-1t-.06-.71h2.58v9.62q0,.53,0,1t0,1c0,.3,0,.56,0,.8s0,.42.06.55Z"/><path class="cls-1" d="M139.47,28.51a3.06,3.06,0,0,0-.05.45c0,.28,0,.6,0,1v1.34h1.49v1.67h-1.49v4.25a6.44,6.44,0,0,0,0,.85,1.8,1.8,0,0,0,.14.52.52.52,0,0,0,.25.26,1,1,0,0,0,.4.07l.34,0,.34-.05v1.49a5.42,5.42,0,0,1-.91.24,5.57,5.57,0,0,1-1,.09,2.19,2.19,0,0,1-1.1-.24,1.52,1.52,0,0,1-.62-.65,3,3,0,0,1-.27-1,12.8,12.8,0,0,1-.06-1.34V32.94h-1.11V31.27h1.11V29.8c0-.3,0-.56,0-.78a3.8,3.8,0,0,0-.05-.51Z"/><path class="cls-1" d="M144.32,31.79a3.88,3.88,0,0,1,1.21-.58,3.92,3.92,0,0,1,1-.16,2.19,2.19,0,0,1,1.22.31,2.15,2.15,0,0,1,.73.81,3.63,3.63,0,0,1,.36,1.12,7.64,7.64,0,0,1,.1,1.22v2.58q0,.53,0,1t0,1q0,.45,0,.8t.06.55h-2.72q0-.2.06-.55t0-.8q0-.44,0-1t0-1V34.46a2.18,2.18,0,0,0-.28-1.11,1,1,0,0,0-1-.49,1,1,0,0,0-.73.22.38.38,0,0,0-.15.23,1.61,1.61,0,0,0,0,.25v3.52q0,.53,0,1t0,1c0,.3,0,.56,0,.8s0,.42.06.55h-2.72q0-.2.06-.55t0-.8q0-.44,0-1t0-1v-6q0-.27,0-.8t0-1.08q0-.55,0-1t-.06-.71h2.58Z"/><path class="cls-1" d="M156.64,33.41a2.7,2.7,0,0,0-.75-.5,2.14,2.14,0,0,0-.88-.19,1.8,1.8,0,0,0-1.54.78,3.6,3.6,0,0,0-.56,2.14,5.21,5.21,0,0,0,.16,1.35,3.66,3.66,0,0,0,.44,1,2.1,2.1,0,0,0,.69.68,1.71,1.71,0,0,0,.9.25,2.1,2.1,0,0,0,.9-.19,2,2,0,0,0,.7-.54l.78,1a6.18,6.18,0,0,1-1.29.93,3.71,3.71,0,0,1-1.83.44,3.94,3.94,0,0,1-1.41-.27,3.84,3.84,0,0,1-1.3-.83,4.31,4.31,0,0,1-1-1.39,4.78,4.78,0,0,1-.37-2,5.57,5.57,0,0,1,.35-2,4.7,4.7,0,0,1,1-1.63,4.88,4.88,0,0,1,1.68-1.11,6,6,0,0,1,2.29-.41l.5,0,.48.05Z"/><path class="cls-1" d="M162.67,40.42a3.6,3.6,0,0,1-.19-.36l-.12-.27a6.33,6.33,0,0,1-1,.59,2.61,2.61,0,0,1-1.18.26,3,3,0,0,1-.94-.15,2.58,2.58,0,0,1-.86-.48,2.47,2.47,0,0,1-.64-.83,2.78,2.78,0,0,1-.24-1.22,3,3,0,0,1,.32-1.42,3.34,3.34,0,0,1,.92-1.08,5.79,5.79,0,0,1,1.43-.81,15.86,15.86,0,0,1,1.87-.61,2.16,2.16,0,0,0-.49-1,1.25,1.25,0,0,0-1-.37,3.06,3.06,0,0,0-1.2.25,6.59,6.59,0,0,0-1.05.55V31.14l.63-.06.66,0a11,11,0,0,1,2.49.23,3.15,3.15,0,0,1,1.56.86,2.61,2.61,0,0,1,.54.76,4.15,4.15,0,0,1,.28.83,4.93,4.93,0,0,1,.11.81q0,.39,0,.68v2.29a10.75,10.75,0,0,0,.12,1.62,7,7,0,0,0,.3,1.28Zm-.45-4.72a3.52,3.52,0,0,0-.71.16,2.49,2.49,0,0,0-.71.37,2.11,2.11,0,0,0-.54.61,1.66,1.66,0,0,0-.22.87,1.17,1.17,0,0,0,.32.86,1.09,1.09,0,0,0,.81.32,1.43,1.43,0,0,0,.63-.14,1.36,1.36,0,0,0,.43-.3Z"/><path class="cls-1" d="M168.8,31.27A5.61,5.61,0,0,1,169,32a4.32,4.32,0,0,1,.06.59h0a3.74,3.74,0,0,1,1.14-1.13,3.13,3.13,0,0,1,1.65-.4v2.14l-.23,0a2.14,2.14,0,0,0-.37,0,1.67,1.67,0,0,0-1.38.67,2.09,2.09,0,0,0-.38.72,6.38,6.38,0,0,0-.28,1.74c0,.3,0,.57,0,.83s0,.7,0,1,0,.66,0,1,0,.56,0,.8,0,.42.06.55h-2.83q0-.2.06-.55t0-.8q0-.44,0-1t0-1V34.61q0-.51,0-1t-.06-1q0-.44-.1-.8a5.38,5.38,0,0,0-.11-.55Z"/><path class="cls-1" d="M175,37a3.13,3.13,0,0,0,.23.7,2.34,2.34,0,0,0,.38.59,1.81,1.81,0,0,0,.53.41,1.43,1.43,0,0,0,.66.15,2.09,2.09,0,0,0,1-.25,4.88,4.88,0,0,0,.92-.61l.87,1A5,5,0,0,1,178,40.16a4.12,4.12,0,0,1-2,.47,3.46,3.46,0,0,1-1.52-.34,3.91,3.91,0,0,1-1.25-1,4.62,4.62,0,0,1-.85-1.46,5.38,5.38,0,0,1-.32-1.89,6.56,6.56,0,0,1,.26-1.87,4.93,4.93,0,0,1,.77-1.57,3.85,3.85,0,0,1,1.25-1.09,3.52,3.52,0,0,1,1.72-.41,3.14,3.14,0,0,1,1.49.34,2.71,2.71,0,0,1,1,.92,4.41,4.41,0,0,1,.54,1.36,9.67,9.67,0,0,1,.27,1.76Zm1.29-2.16a1.45,1.45,0,0,0,.64-.36.74.74,0,0,0,.14-.45,2.05,2.05,0,0,0-.26-1,.85.85,0,0,0-.79-.47.82.82,0,0,0-.56.21,1.7,1.7,0,0,0-.4.55,2.94,2.94,0,0,0-.24.78,5.36,5.36,0,0,0-.07.89v.24a.91.91,0,0,0,0,.18Z"/><path class="cls-1" d="M11.44.34q0,.39,0,.73V2.4c0,.21,0,.45,0,.73L10.5,3q-.51-.06-1-.08l-1,0H7.61q0,.58-.06,1.36t0,1.63q0,.85,0,1.67V9q0,3.35,0,5.43t.15,3.22H3.76q.12-1.14.15-3.22T3.93,9V7.52q0-.82,0-1.67t0-1.62q0-.77,0-1.36H3l-1,0q-.53,0-1,.08L0,3.13c0-.27,0-.52,0-.73V1.07Q0,.73,0,.34Z"/><path class="cls-1" d="M16,6.13a5.18,5.18,0,0,1,1.61-.78,5.25,5.25,0,0,1,1.27-.22,2.92,2.92,0,0,1,1.62.41,2.87,2.87,0,0,1,1,1.08A4.83,4.83,0,0,1,22,8.12a10.16,10.16,0,0,1,.13,1.62v3.44c0,.47,0,.93,0,1.38s0,.88,0,1.27,0,.75.06,1.07.05.56.08.74H18.65c0-.18.06-.42.08-.74s0-.67.06-1.07,0-.82,0-1.27,0-.91,0-1.38V9.7a2.92,2.92,0,0,0-.38-1.48,1.37,1.37,0,0,0-1.3-.65,1.39,1.39,0,0,0-1,.29.51.51,0,0,0-.19.3,2.11,2.11,0,0,0,0,.33v4.7c0,.47,0,.93,0,1.38s0,.88,0,1.27,0,.75.06,1.07.05.56.08.74H12.54c0-.18.06-.42.08-.74s0-.67.06-1.07,0-.82,0-1.27,0-.91,0-1.38v-8q0-.36,0-1.07t0-1.44q0-.74-.06-1.39T12.54.34H16Z"/><path class="cls-1" d="M27.59,13.14a4.2,4.2,0,0,0,.3.93,3.15,3.15,0,0,0,.51.79,2.41,2.41,0,0,0,.7.54,1.9,1.9,0,0,0,.89.21,2.78,2.78,0,0,0,1.27-.33,6.52,6.52,0,0,0,1.22-.81l1.16,1.31a6.72,6.72,0,0,1-2,1.53,5.49,5.49,0,0,1-2.62.63,4.62,4.62,0,0,1-2-.46,5.23,5.23,0,0,1-1.67-1.27,6.18,6.18,0,0,1-1.14-2,7.17,7.17,0,0,1-.42-2.52,8.76,8.76,0,0,1,.35-2.5,6.59,6.59,0,0,1,1-2.1,5.18,5.18,0,0,1,1.67-1.46,4.72,4.72,0,0,1,2.3-.54,4.2,4.2,0,0,1,2,.45,3.63,3.63,0,0,1,1.36,1.22,5.89,5.89,0,0,1,.73,1.82A12.91,12.91,0,0,1,33.61,11Zm1.72-2.89a1.93,1.93,0,0,0,.86-.49,1,1,0,0,0,.18-.61A2.75,2.75,0,0,0,30,7.81,1.14,1.14,0,0,0,29,7.18a1.1,1.1,0,0,0-.75.28,2.28,2.28,0,0,0-.53.74,3.94,3.94,0,0,0-.32,1,7.18,7.18,0,0,0-.1,1.19v.32a1.23,1.23,0,0,0,0,.24Z"/><path class="cls-1" d="M41.56,17.65q.12-1.14.15-3.22t0-5.43q0-3.35,0-5.43T41.56.34h6.35a7.93,7.93,0,0,1,1.9.23,5.09,5.09,0,0,1,1.66.73,3.68,3.68,0,0,1,1.16,1.3,3.94,3.94,0,0,1,.44,1.92,3.84,3.84,0,0,1-.67,2.13,4.37,4.37,0,0,1-2.19,1.6A5.7,5.7,0,0,1,52.76,10a4.39,4.39,0,0,1,.9,2.84,4.6,4.6,0,0,1-.61,2.35,5.17,5.17,0,0,1-1.62,1.72,4.65,4.65,0,0,1-1.92.64,20.82,20.82,0,0,1-2.52.13ZM45.22,4.92q0,.53,0,1.08t0,1.22a3,3,0,0,0,.47.07l.52,0a3.18,3.18,0,0,0,2.25-.69,2.32,2.32,0,0,0,.73-1.76,2.05,2.05,0,0,0-.74-1.73,3.29,3.29,0,0,0-2-.57h-.69a3,3,0,0,0-.5.06q0,.65,0,1.2T45.22,4.92Zm0,7.74q0,.7,0,1.33t0,1.29l.72,0h.84A3.26,3.26,0,0,0,49,14.68a2.58,2.58,0,0,0,.74-2,2.52,2.52,0,0,0-1-2.21,4.34,4.34,0,0,0-2.56-.68c-.28,0-.49,0-.64,0l-.33,0q0,.7,0,1.43Z"/><path class="cls-1" d="M61.59,17.65a4.63,4.63,0,0,1-.25-.49l-.16-.36a8.39,8.39,0,0,1-1.29.79,3.48,3.48,0,0,1-1.58.35,4.05,4.05,0,0,1-1.26-.21,3.46,3.46,0,0,1-1.15-.64A3.3,3.3,0,0,1,55.05,16a3.71,3.71,0,0,1-.33-1.62,4.05,4.05,0,0,1,.42-1.9A4.47,4.47,0,0,1,56.37,11a7.72,7.72,0,0,1,1.92-1.08,21.11,21.11,0,0,1,2.5-.81,2.89,2.89,0,0,0-.65-1.35,1.67,1.67,0,0,0-1.29-.5,4.09,4.09,0,0,0-1.6.33,8.89,8.89,0,0,0-1.41.74V5.26l.84-.08c.32,0,.61,0,.89,0a14.71,14.71,0,0,1,3.32.3A4.2,4.2,0,0,1,63,6.6a3.49,3.49,0,0,1,.72,1,5.53,5.53,0,0,1,.38,1.12,6.48,6.48,0,0,1,.15,1.08q0,.52,0,.91v3.05a14.29,14.29,0,0,0,.16,2.17,9.39,9.39,0,0,0,.4,1.71ZM61,11.35a4.68,4.68,0,0,0-.95.22,3.31,3.31,0,0,0-.95.5,2.81,2.81,0,0,0-.73.81A2.22,2.22,0,0,0,58.07,14a1.56,1.56,0,0,0,.42,1.15,1.46,1.46,0,0,0,1.08.42,1.9,1.9,0,0,0,.84-.18A1.81,1.81,0,0,0,61,15Z"/><path class="cls-1" d="M75.38,5.17l.9.65a15.1,15.1,0,0,0-.36,2.55q-.07,1.29-.07,2.59t0,3.09q0,1.73,0,3.33a6.73,6.73,0,0,1-.3,2.27,3.19,3.19,0,0,1-1,1.37,4.8,4.8,0,0,1-2,1,9.5,9.5,0,0,1-2.06.24q-.63,0-1.25-.06T68.17,22l-1-.19-.69-.15.75-2.91a4.24,4.24,0,0,0,1.39.86,5,5,0,0,0,1.93.38,1.83,1.83,0,0,0,1.59-.65,2.62,2.62,0,0,0,.47-1.58c0-.13,0-.25,0-.35s0-.22,0-.35a4.17,4.17,0,0,1-1,.44,4.43,4.43,0,0,1-1.22.17,3.77,3.77,0,0,1-1.62-.36,4.13,4.13,0,0,1-1.38-1.07,5.18,5.18,0,0,1-1-1.73A7.39,7.39,0,0,1,66,12.15a9.05,9.05,0,0,1,.39-2.66,7.37,7.37,0,0,1,1.09-2.23,5.77,5.77,0,0,1,1.66-1.54,4,4,0,0,1,2.1-.58,4.6,4.6,0,0,1,1.31.22A4,4,0,0,1,74,6.21ZM72.6,9.63a5.07,5.07,0,0,0-.23-1.79.89.89,0,0,0-.91-.56,1.43,1.43,0,0,0-.93.33,2.42,2.42,0,0,0-.65.88,5.43,5.43,0,0,0-.39,1.33,9.73,9.73,0,0,0-.13,1.65A9.2,9.2,0,0,0,69.47,13a4.24,4.24,0,0,0,.39,1.24,2.29,2.29,0,0,0,.68.83,1.67,1.67,0,0,0,1,.3,1.7,1.7,0,0,0,.61-.11.59.59,0,0,0,.36-.28.48.48,0,0,0,0-.15c0-.06,0-.17,0-.32s0-.33,0-.56V9.63Z"/><path class="cls-1" d="M81.06,5.43a10.29,10.29,0,0,1,.34,1.29A4.38,4.38,0,0,1,82.62,5.6a3.25,3.25,0,0,1,1.76-.46,3.19,3.19,0,0,1,1.53.34,2.8,2.8,0,0,1,1,.92,4,4,0,0,1,.56,1.32,6.89,6.89,0,0,1,.17,1.54v3.93c0,.47,0,.93,0,1.38s0,.88,0,1.27,0,.75.06,1.07.05.56.08.74H84.21c0-.18.06-.42.08-.74s0-.67.06-1.07,0-.82,0-1.27,0-.91,0-1.38V10.14a3.87,3.87,0,0,0-.3-1.78,1.06,1.06,0,0,0-1-.55,1.6,1.6,0,0,0-1,.39,1.42,1.42,0,0,0-.47,1.16v3.83c0,.47,0,.93,0,1.38s0,.88,0,1.27,0,.75.06,1.07.05.56.08.74H78.15c0-.18.06-.42.08-.74s0-.67.06-1.07,0-.82,0-1.27,0-.91,0-1.38V8.8q0-.56,0-1.16T78.2,6.45a7.16,7.16,0,0,0-.19-1Z"/><path class="cls-1" d="M96.14,17.65a4.63,4.63,0,0,1-.25-.49l-.16-.36a8.39,8.39,0,0,1-1.29.79,3.48,3.48,0,0,1-1.58.35,4.05,4.05,0,0,1-1.26-.21,3.46,3.46,0,0,1-1.15-.64A3.3,3.3,0,0,1,89.61,16a3.71,3.71,0,0,1-.33-1.62,4.05,4.05,0,0,1,.42-1.9A4.47,4.47,0,0,1,90.93,11a7.72,7.72,0,0,1,1.92-1.08,21.11,21.11,0,0,1,2.5-.81,2.89,2.89,0,0,0-.65-1.35,1.67,1.67,0,0,0-1.29-.5,4.09,4.09,0,0,0-1.6.33,8.89,8.89,0,0,0-1.41.74V5.26l.84-.08c.32,0,.61,0,.89,0a14.71,14.71,0,0,1,3.32.3A4.2,4.2,0,0,1,97.52,6.6a3.49,3.49,0,0,1,.72,1,5.53,5.53,0,0,1,.38,1.12,6.48,6.48,0,0,1,.15,1.08q0,.52,0,.91v3.05a14.29,14.29,0,0,0,.16,2.17,9.39,9.39,0,0,0,.4,1.71Zm-.61-6.3a4.68,4.68,0,0,0-.95.22,3.31,3.31,0,0,0-.95.5,2.81,2.81,0,0,0-.73.81A2.22,2.22,0,0,0,92.62,14,1.56,1.56,0,0,0,93,15.19a1.46,1.46,0,0,0,1.08.42,1.9,1.9,0,0,0,.84-.18,1.81,1.81,0,0,0,.57-.4Z"/><path class="cls-1" d="M101.09,17.65c0-.18.06-.42.08-.74s0-.67.06-1.07,0-.82,0-1.27,0-.91,0-1.38v-8q0-.36,0-1.07t0-1.44q0-.74-.06-1.39t-.08-.95h3.44V13.19c0,.47,0,.93,0,1.38s0,.88,0,1.27,0,.75.06,1.07.05.56.08.74Z"/><path class="cls-1" d="M106.93,17.65c0-.18.06-.42.08-.74s0-.67.06-1.07,0-.82,0-1.27,0-.91,0-1.38v-8q0-.36,0-1.07t0-1.44q0-.74-.06-1.39t-.08-.95h3.44V13.19c0,.47,0,.93,0,1.38s0,.88,0,1.27,0,.75.06,1.07.05.56.08.74Z"/><path class="cls-1" d="M130.23,4.44A5.71,5.71,0,0,0,128.63,3a3.69,3.69,0,0,0-1.94-.56,3.14,3.14,0,0,0-1.66.45,3.81,3.81,0,0,0-1.26,1.3,6.86,6.86,0,0,0-.8,2.06A12.26,12.26,0,0,0,122.69,9a10.91,10.91,0,0,0,.29,2.59,7,7,0,0,0,.84,2.06A4.17,4.17,0,0,0,125.14,15a3.18,3.18,0,0,0,1.72.48,3.27,3.27,0,0,0,1.77-.48,7.94,7.94,0,0,0,1.24-.92l1.28,1.38a8.07,8.07,0,0,1-2.23,1.84,5.74,5.74,0,0,1-2.84.7,7,7,0,0,1-3.2-.7,7.12,7.12,0,0,1-2.33-1.87,8,8,0,0,1-1.42-2.68,10.48,10.48,0,0,1-.47-3.14,11.26,11.26,0,0,1,.55-3.42,9.79,9.79,0,0,1,1.61-3.09A8.44,8.44,0,0,1,123.47.86,7.47,7.47,0,0,1,127.1,0a9.05,9.05,0,0,1,1.42.12,15.13,15.13,0,0,1,1.71.39Z"/><path class="cls-1" d="M135.32,13.14a4.2,4.2,0,0,0,.3.93,3.15,3.15,0,0,0,.51.79,2.41,2.41,0,0,0,.7.54,1.9,1.9,0,0,0,.89.21,2.78,2.78,0,0,0,1.27-.33,6.52,6.52,0,0,0,1.22-.81l1.16,1.31a6.72,6.72,0,0,1-2,1.53,5.49,5.49,0,0,1-2.62.63,4.62,4.62,0,0,1-2-.46,5.23,5.23,0,0,1-1.67-1.27,6.18,6.18,0,0,1-1.14-2,7.17,7.17,0,0,1-.42-2.52,8.76,8.76,0,0,1,.35-2.5,6.59,6.59,0,0,1,1-2.1,5.18,5.18,0,0,1,1.67-1.46,4.72,4.72,0,0,1,2.3-.54,4.2,4.2,0,0,1,2,.45,3.63,3.63,0,0,1,1.36,1.22A5.89,5.89,0,0,1,141,8.63a12.91,12.91,0,0,1,.36,2.35ZM137,10.26a1.93,1.93,0,0,0,.86-.49,1,1,0,0,0,.18-.61,2.75,2.75,0,0,0-.35-1.36,1.14,1.14,0,0,0-1.05-.63,1.1,1.1,0,0,0-.75.28,2.28,2.28,0,0,0-.53.74,3.94,3.94,0,0,0-.32,1,7.18,7.18,0,0,0-.1,1.19v.32a1.23,1.23,0,0,0,0,.24Z"/><path class="cls-1" d="M145.7,5.43A10.29,10.29,0,0,1,146,6.72a4.38,4.38,0,0,1,1.22-1.12A3.25,3.25,0,0,1,149,5.14a3.19,3.19,0,0,1,1.53.34,2.8,2.8,0,0,1,1,.92,4,4,0,0,1,.56,1.32,6.89,6.89,0,0,1,.17,1.54v3.93c0,.47,0,.93,0,1.38s0,.88,0,1.27,0,.75.06,1.07.05.56.08.74h-3.64c0-.18.06-.42.08-.74s0-.67.06-1.07,0-.82,0-1.27,0-.91,0-1.38V10.14a3.87,3.87,0,0,0-.3-1.78,1.06,1.06,0,0,0-1-.55,1.6,1.6,0,0,0-1,.39,1.42,1.42,0,0,0-.47,1.16v3.83c0,.47,0,.93,0,1.38s0,.88,0,1.27,0,.75.06,1.07.05.56.08.74h-3.64c0-.18.06-.42.08-.74s0-.67.06-1.07,0-.82,0-1.27,0-.91,0-1.38V8.8q0-.56,0-1.16t-.11-1.19a7.16,7.16,0,0,0-.19-1Z"/><path class="cls-1" d="M158.5,1.75a4.2,4.2,0,0,0-.07.61q0,.56,0,1.29V5.43h2V7.66h-2v5.67a8.58,8.58,0,0,0,.06,1.14,2.4,2.4,0,0,0,.18.69.69.69,0,0,0,.34.35,1.31,1.31,0,0,0,.53.1l.45,0,.45-.07v2a7.32,7.32,0,0,1-1.21.32,7.52,7.52,0,0,1-1.31.12,2.93,2.93,0,0,1-1.47-.32,2,2,0,0,1-.82-.87,4,4,0,0,1-.36-1.36,17.12,17.12,0,0,1-.08-1.79V7.66h-1.48V5.43h1.48v-2q0-.61,0-1a5.19,5.19,0,0,0-.07-.68Z"/><path class="cls-1" d="M164.93,5.43a7.63,7.63,0,0,1,.21,1,5.89,5.89,0,0,1,.08.79h0a5,5,0,0,1,1.53-1.5A4.17,4.17,0,0,1,169,5.14V8l-.3-.06a2.89,2.89,0,0,0-.5,0,2.23,2.23,0,0,0-1.84.9,2.79,2.79,0,0,0-.51,1,8.22,8.22,0,0,0-.27,1.14,8.36,8.36,0,0,0-.11,1.19c0,.4,0,.76,0,1.1s0,.93,0,1.38,0,.88,0,1.27,0,.75.06,1.07.05.56.08.74h-3.78c0-.18.06-.42.08-.74s0-.67.06-1.07,0-.82,0-1.27,0-.91,0-1.38V9.89q0-.68,0-1.37T162,7.24q-.06-.59-.13-1.07a6.87,6.87,0,0,0-.15-.74Z"/><path class="cls-1" d="M173.17,13.14a4.2,4.2,0,0,0,.3.93,3.15,3.15,0,0,0,.51.79,2.41,2.41,0,0,0,.7.54,1.9,1.9,0,0,0,.89.21,2.78,2.78,0,0,0,1.27-.33,6.52,6.52,0,0,0,1.22-.81l1.16,1.31a6.72,6.72,0,0,1-2,1.53,5.49,5.49,0,0,1-2.62.63,4.62,4.62,0,0,1-2-.46A5.23,5.23,0,0,1,171,16.21a6.18,6.18,0,0,1-1.14-2,7.17,7.17,0,0,1-.42-2.52,8.76,8.76,0,0,1,.35-2.5,6.59,6.59,0,0,1,1-2.1,5.18,5.18,0,0,1,1.67-1.46,4.72,4.72,0,0,1,2.3-.54,4.2,4.2,0,0,1,2,.45,3.63,3.63,0,0,1,1.36,1.22,5.89,5.89,0,0,1,.73,1.82,12.91,12.91,0,0,1,.36,2.35Zm1.72-2.89a1.93,1.93,0,0,0,.86-.49,1,1,0,0,0,.18-.61,2.75,2.75,0,0,0-.35-1.36,1.14,1.14,0,0,0-1.05-.63,1.1,1.1,0,0,0-.75.28,2.28,2.28,0,0,0-.53.74,3.94,3.94,0,0,0-.32,1,7.18,7.18,0,0,0-.1,1.19v.32a1.23,1.23,0,0,0,0,.24Z"/></g></g></svg>