<svg xmlns="http://www.w3.org/2000/svg" viewBox="0 0 584.22 609.22"><defs><style>.cls-1{fill:#3f758a;}.cls-2{fill:#a11e16;}.cls-3{fill:#732813;}.cls-4{fill:#84a987;}.cls-5{fill:#6a494f;}.cls-6{fill:#7d864b;}.cls-7{fill:#d0b46d;}.cls-8{fill:#a38977;}.cls-9{fill:#b85636;}</style></defs><title>tree_footer</title><g id="Layer_2" data-name="Layer 2"><g id="Layer_1-2" data-name="Layer 1"><path class="cls-1" d="M430.32,343.36l-3-6.67-3,6.66c0,.08-4,8.46-10.71,11.16-24.88,10-17.77,28.54-17.7,28.72l.42,1.06,1,.58a20,20,0,0,0,9.2,2.33h.4c4.84,0,11.89-1.69,18.73-9.43C438.86,362.76,430.67,344.14,430.32,343.36Z"/><path class="cls-2" d="M225.25,257.11l-2.55,7.68c0,.1-3.4,9.78-10.42,13.55-26.1,14-16.06,33.47-16,33.67l.59,1.11,1.15.51a21.43,21.43,0,0,0,8.26,1.55c.68,0,1.39,0,2.13-.1,5.33-.48,13.11-3.06,19.87-12.65,12.76-18.07,1.53-37.53,1-38.35Z"/><path class="cls-2" d="M14.5,185.34l-6.79,2.07,6,3.79c.08,0,7.68,4.91,9.46,11.77C28,221.52,39.37,224,45.19,224a16.15,16.15,0,0,0,3.56-.35l1.07-.28.68-.88a19.51,19.51,0,0,0,3.41-8.61c.7-4.68.1-11.89-6.72-19.7C34.33,179.51,15.3,185.1,14.5,185.34Z"/><path class="cls-2" d="M578.23,131.17c-1.09-19.13-19.18-26.28-20-26.58l-6.55-2.51,2.41,6.58c0,.08,3,8.47.24,14.8-10.16,23.57,7.13,31.36,7.3,31.44l1,.43,1.05-.27a19.13,19.13,0,0,0,7.83-4.61C574.92,147.26,578.8,141.32,578.23,131.17Z"/><path class="cls-2" d="M18,252.09c-6.64-1.31-11.7-8.26-11.75-8.33l-4-5.55L.7,244.84c-.19.78-4.39,19.22,10.34,30.6,5.46,4.21,10.66,5.66,15.11,5.66a18.72,18.72,0,0,0,12-4.15l.79-.7.2-1C39.19,275,42.45,256.89,18,252.09Z"/><path class="cls-3" d="M83.54,318.16,82.6,317a25.86,25.86,0,0,0-10.18-6.87c-5.85-2.24-15.36-3.52-27.41,3.09-22.72,12.45-20.91,38.69-20.82,39.8l.75,9.44,6.63-6.77c.08-.09,8.61-8.54,17.93-8.89,34.66-1.32,34.1-27,34.09-27.21Z"/><path class="cls-3" d="M584.13,324a50,50,0,0,0-15.28,6.12l-8.29,5.41,9.53,2.69c.1,0,8.37,2.5,14,8.11C584.12,342.22,584.13,328.22,584.13,324Z"/><path class="cls-3" d="M151.18,275.8c-7.81-7.22-8.87-20.7-8.87-20.83l-.72-10.69L134,251.85c-.89.89-21.72,22.11-11.36,49.5C130.09,321,144.85,326,154.07,326a21.88,21.88,0,0,0,3.65-.29l1.64-.28,1.13-1.22C160.68,324,180,302.39,151.18,275.8Z"/><path class="cls-4" d="M423.48,271.93c-1.17-.54-28.92-13.13-51.63,6.48-12.05,10.4-14.51,21.24-14.46,28.5a30,30,0,0,0,3.33,13.83l.84,1.48,1.57.65a28.19,28.19,0,0,0,9.71,1.61c9.51,0,24-4.38,33.64-27.6,4.19-10.05,16.79-15.81,16.91-15.86l10-4.45Z"/><path class="cls-4" d="M175.22,555.4c0-26.82-19.78-27.18-20-27.18H154.1l-.9.69c-4.62,3.55-11.41,14.17-4.06,28.93,8.21,16.49,26,17.32,29.54,17.32h.57l7.32-.29-5-5.33C181.47,569.46,175.2,562.61,175.22,555.4Z"/><path class="cls-4" d="M110.94,446.47c-6.71-5.27-8.42-16-8.44-16.1l-1.26-8.51-5.59,6.55c-.66.77-16,19.1-5.92,40.37,6.7,14.12,17.59,17.78,25,17.78a19.06,19.06,0,0,0,4.63-.53l1.29-.33.82-1.05C121.65,484.45,135.71,465.91,110.94,446.47Z"/><path class="cls-4" d="M284.85,319.85c-10.22,1.36-20.93-6.24-21-6.31l-8.42-6.1.93,10.35c.11,1.22,3,29.92,29.84,39.21a43,43,0,0,0,14.06,2.52c13.92,0,22.72-8.05,25.9-13.54l.81-1.4-.21-1.6C326.7,342.7,322.57,314.89,284.85,319.85Z"/><path class="cls-5" d="M366.18,37.45c7-17.83-6.44-31.88-7-32.47l-4.87-5-.59,6.94c0,.09-.81,8.9-6,13.56-19.06,17.17-6.6,31.47-6.48,31.61l.73.81,1.07.2a14.4,14.4,0,0,0,2.47.19,20.38,20.38,0,0,0,6.56-1.11C356.46,50.69,362.46,46.92,366.18,37.45Z"/><path class="cls-5" d="M309.36,436.78l-6.79,2.61,6.42,3.44c.08,0,8.21,4.46,10.54,11.35,5.8,17.17,16.3,20,22.56,20a18,18,0,0,0,5.09-.67l1.08-.36.63-.95c3.23-4.85,6.24-17.09-5.46-28.69C329.22,429.38,310.16,436.47,309.36,436.78Z"/><path class="cls-5" d="M306.32,524c-7.48,4.18-18.08,1.62-18.17,1.59l-8.38-2.12,3.91,7.71c.45.88,11,21.12,33.33,21.12q.87,0,1.77,0c19.43-.91,26.46-14,27.46-20.8l.2-1.33-.66-1.17C345.66,528.76,333.92,508.54,306.32,524Z"/><path class="cls-5" d="M391.74,72c-6.57-8.92-14-11.21-19-11.56A20.91,20.91,0,0,0,363,62.05l-1.07.51-.54,1.05c-.09.19-9.2,18.75,15.72,31.47,6.74,3.44,10.06,12.5,10.09,12.58l2.55,7.21,3.75-6.66C393.91,107.44,404.14,88.85,391.74,72Z"/><path class="cls-6" d="M97.55,141.22h-.09c-7.92,0-15.32-6.84-15.39-6.9l-5.81-5.48-.32,8c0,.94-.69,23.11,18.87,32.85a31.05,31.05,0,0,0,13.9,3.54c8.8,0,15-4.54,17.66-8l.75-1V163C127.11,162.79,126.73,141.22,97.55,141.22Z"/><path class="cls-6" d="M446.47,122.43c-3.53-4.53-10.38-10-23-10.55-23.71-1-34.71,20.45-35.16,21.36L384.49,141l8.37-2.13c.11,0,10.73-2.66,18.26,1.5s14,5.74,19.3,5.74a23.88,23.88,0,0,0,20.32-10.93l.65-1.18-.2-1.33A23.7,23.7,0,0,0,446.47,122.43Z"/><path class="cls-6" d="M172.32,205.85c-1.93-31.71-25.39-30.67-25.62-30.66l-1.34.08-1,.89a23.67,23.67,0,0,0-6.08,9.46c-1.93,5.41-2.9,14.14,3.4,25,9.61,16.62,27.13,18.35,34,18.35,1.63,0,2.66-.1,2.86-.12l8.64-.89-6.34-5.93C180.75,222,172.83,214.38,172.32,205.85Z"/><path class="cls-6" d="M79.31,220.22c-16.58,10-16.52,24.81-14.17,31.24l.46,1.25,1.13.71A23.25,23.25,0,0,0,78,256.3c7.21,0,16.82-3.34,25.61-17.23,4.57-7.22,15.07-10,15.17-10l8.35-2.12-7.09-4.9C119.23,221.45,99.44,208.08,79.31,220.22Z"/><path class="cls-6" d="M470.86,87.43c-7.4,8.25-8.14,16-7.46,21a20.85,20.85,0,0,0,3.53,9.25l.71.95,1.14.31a17.6,17.6,0,0,0,4.08.42c6.3,0,18.21-2.75,23.55-22.22,2-7.31,10.19-12.4,10.27-12.45l6.53-4-7.27-2.32C505.07,78.1,484.8,71.87,470.86,87.43Z"/><path class="cls-7" d="M218.61,424.86c-18.23-31.31-41.58-18.22-41.81-18.08l-1.33.77-.58,1.42a27,27,0,0,0-1.34,12.75c.81,6.49,4.29,15.89,16.3,23.76A39.7,39.7,0,0,0,212,452.13a50.11,50.11,0,0,0,24.79-7l8.29-5.3L235.62,437C235.5,437,223.55,433.36,218.61,424.86Z"/><path class="cls-7" d="M521.58,348.66l-8.46-7.11.15,11.06c0,.14.1,14.18-7.35,22.33-27.45,30.06-5.57,50.71-5.34,50.91l1.27,1.16,1.72.14c.16,0,.61,0,1.31,0a31.62,31.62,0,0,0,12.82-2.89c6.69-3,15.6-9.94,20-25.45C546,369.62,522.58,349.5,521.58,348.66Z"/><path class="cls-7" d="M504.56,471.21a19.71,19.71,0,0,0-14.82,1.08l-1.37.76-.61,1.44a36.7,36.7,0,0,0-2.12,15.85c.64,8.25,4.32,20.34,18.16,31.08,6.23,4.83,10,16.3,10.91,20.31l2.94,12.94,5.59-12c.52-1.11,12.48-27.49-.18-53C518.12,479.7,511.89,473.5,504.56,471.21Z"/><path class="cls-7" d="M584.2,461.57a19.62,19.62,0,0,1-9.66-3.45c-21.27-16.34-33.61-.83-33.73-.67l-.7.9v1.14a20,20,0,0,0,2.66,9.11c2.38,4.22,7.4,9.68,17.83,11.7a30.65,30.65,0,0,0,5.86.57,29,29,0,0,0,17.71-5.81C584.19,471.22,584.26,465.11,584.2,461.57Z"/><path class="cls-7" d="M251.22,76.91c-14.54,4.89-17,16.34-16.33,21.71l.14,1,.75.74A18.66,18.66,0,0,0,248,105c5.14,0,11.6-2.14,18.77-9.36,4.77-4.79,13.37-5.14,13.44-5.14l6.81-.2-4.63-5C281.87,84.71,268.88,71,251.22,76.91Z"/><path class="cls-7" d="M117.44,387.54c-7.48,4.18-18.09,1.62-18.18,1.59L90.88,387l3.91,7.71c.45.88,11,21.12,33.34,21.12.58,0,1.17,0,1.77,0,19.43-.91,26.46-14,27.46-20.81l.19-1.33-.66-1.17C156.78,392.29,145,372.09,117.44,387.54Z"/><path class="cls-7" d="M185.74,61.58c5.61,23,19.79,26,26.72,26a19.1,19.1,0,0,0,3.93-.36l1.31-.32.84-1.05a23.69,23.69,0,0,0,4.31-10.39c.94-5.66.35-14.43-7.78-24C199.74,33.32,176.52,39.73,175.54,40l-8.34,2.4,7.29,4.71C174.58,47.18,183.72,53.29,185.74,61.58Z"/><path class="cls-7" d="M183.64,117.47c6.29,3.77,11.58,5.11,15.93,5.11a19,19,0,0,0,15.7-8.13l.55-.92-.12-1.07c-.64-5.45-5.95-16.07-21.43-17.26-18.84-1.45-28.14,15.29-28.53,16l-3.3,6.06,6.74-1.5C169.26,115.75,177.82,114,183.64,117.47Z"/><path class="cls-1" d="M303.69,196.55c-4.4,20.46,7.28,31.38,14.08,34.29l1.33.57,1.4-.36c.25-.06,24.49-6.71,16-39.68-2.29-8.93,3.3-19.24,3.35-19.34l4.52-8.13-9.1,1.94C334.24,166.07,309,171.7,303.69,196.55Z"/><path class="cls-1" d="M253.16,226.27c-18.83-1.45-28.14,15.29-28.53,16l-3.3,6.06,6.74-1.5c.08,0,8.65-1.79,14.47,1.7,6.29,3.77,11.58,5.11,15.93,5.11a18.94,18.94,0,0,0,15.69-8.14l.55-.92-.12-1.06C273.95,238.08,268.65,227.46,253.16,226.27Z"/><path class="cls-8" d="M14.82,328.72a29.36,29.36,0,0,1-2.39-8.8,28.25,28.25,0,0,1,.36-9,27.16,27.16,0,0,1,3.2-8.3,34.68,34.68,0,0,1,8.92-9.72,19.41,19.41,0,0,1,3.72-2.06A23.31,23.31,0,0,1,37,289.16c5.78-.16,11.62,1.29,17.22,3.24a121.21,121.21,0,0,1,16.4,7.37c5.33,2.83,10.53,5.94,15.66,9.18.93.59,1.85,1.21,2.77,1.81l1.87,1.61c.54.46,1.08.94,1.63,1.39l1.7,1.29,6.82,5.14c2.34,1.6,4.72,3.16,7.07,4.74,1.19.78,2.35,1.59,3.56,2.34l3.65,2.17,7.31,4.33c5,2.72,9.95,5.4,15.08,7.8,20.42,9.82,42,17,63.88,22.46,5.35,1.34,10.7,2.59,16.06,3.79-.94.21-1.88.4-2.82.62a142.68,142.68,0,0,0-22.54,7.13,78.53,78.53,0,0,0-20.66,12.25,48,48,0,0,0-8.32,9A37.7,37.7,0,0,0,158,408a34.75,34.75,0,0,0-1.23,12.24A38.8,38.8,0,0,0,159.55,432a46.63,46.63,0,0,0,14.18,18.58,60.86,60.86,0,0,0,9.65,6.35A59.07,59.07,0,0,0,194,461.35l.07-.22a58.37,58.37,0,0,1-10-5.27,59.12,59.12,0,0,1-8.81-7,44.75,44.75,0,0,1-11.77-18.33,31.42,31.42,0,0,1,.12-20.74c2.4-6.5,7.15-11.91,12.85-16a70.23,70.23,0,0,1,19.23-9.45,132.57,132.57,0,0,1,21.36-5,253.79,253.79,0,0,1,42.41-2.45c2.43.57,4.86,1.16,7.27,1.77a208,208,0,0,1,30.63,9.91,110.86,110.86,0,0,1,26.79,15.88A102,102,0,0,1,335.3,415.1a116.4,116.4,0,0,1,9.56,12.28,135,135,0,0,1,8.05,13.52c2.5,4.65,4.68,9.5,6.75,14.41a270.63,270.63,0,0,1,12.69,40.14q-1.81,7.12-4.21,14.12c-1-1.3-2.12-2.57-3.22-3.8a106.3,106.3,0,0,0-20.65-17.49A133.6,133.6,0,0,0,320.64,476a141.16,141.16,0,0,0-103.11-.88c-4.08,1.54-8.08,3.28-12,5.16-2,.95-3.9,1.92-5.81,3l-5.46,2.89a144.67,144.67,0,0,1-22.38,9.19A99.13,99.13,0,0,1,101,492a119.87,119.87,0,0,1-21.37-12.1,145.43,145.43,0,0,1-34.92-35.28,127,127,0,0,0,14.39,20.69,136.18,136.18,0,0,0,18,17.89,110.58,110.58,0,0,0,45.73,22.9,104.16,104.16,0,0,0,25.95,2.43c1.23,0,2.47-.12,3.7-.2l-.1.07-2.88,2.28c-1,.76-1.82,1.66-2.73,2.48a62.82,62.82,0,0,0-5.07,5.36,48.42,48.42,0,0,0-7.44,12.75,42.69,42.69,0,0,0-2.84,14.34,51.25,51.25,0,0,0,1.73,14.26,72.1,72.1,0,0,0,12.48,25.16,71,71,0,0,1-10.25-25.64,48.4,48.4,0,0,1-.55-13.56,38.68,38.68,0,0,1,3.62-12.76A43.31,43.31,0,0,1,146,522.33a56.84,56.84,0,0,1,4.93-4.42c.88-.67,1.7-1.41,2.63-2l2.78-1.85c7.48-4.84,15.94-8.18,24.58-10.84l-.09-.26A153.57,153.57,0,0,0,199,495.85l5.76-2.76c1.82-.88,3.65-1.71,5.5-2.52,3.7-1.59,7.45-3,11.27-4.3a131.54,131.54,0,0,1,47.16-6.75A129.92,129.92,0,0,1,314.78,490c14.44,6.27,27.78,15.34,37.81,26.72a63.35,63.35,0,0,1,8.09,11.5,244.86,244.86,0,0,1-18.19,32.84c-3.68,5.49-7.46,10.9-11.5,16.07-2,2.58-4.07,5.12-6.16,7.58-1.06,1.22-2.12,2.42-3.17,3.58L320.08,590l-.77.78-.12.12h0c-8.26,7.38-15.58,13.45-21.72,18.31h74.2q1.42-2.83,2.78-5.67c3.3-6.91,6.47-13.82,9.36-20.86a373.07,373.07,0,0,0,15.1-43q2.48-8.86,4.43-17.91c1.51-1.88,3-3.74,4.64-5.55,2.76-3.19,5.59-6.31,8.57-9.31a217.26,217.26,0,0,1,19.75-17.69l.25-.18c4.05-2.71,8.16-5.33,12.33-7.79a155,155,0,0,1,24.61-12.07c8.43-3.12,17.17-5.16,25.68-4.7a39.81,39.81,0,0,1,12.41,2.64A50.13,50.13,0,0,1,523,473.57c7.33,5.3,13.87,12.34,21.59,18.55a55.56,55.56,0,0,0,12.83,8,38.24,38.24,0,0,0,7.32,2.29,61.11,61.11,0,0,0,7.4,1,46.6,46.6,0,0,0,12-.6v-3.45a42.35,42.35,0,0,1-11.55-.22,56.56,56.56,0,0,1-6.73-1.4,33.14,33.14,0,0,1-6.18-2.46,49.78,49.78,0,0,1-10.9-8C542,481,536,473.39,528.3,466.83a59.28,59.28,0,0,0-12.91-8.55,50.08,50.08,0,0,0-15.25-4.47c-1.16-.16-2.33-.27-3.49-.35,1.35-.43,2.72-.84,4.09-1.23,4-1.14,8.15-2.11,12.32-3s8.4-1.68,12.68-2.4c8.56-1.45,17.28-2.64,26.1-4s17.75-2.8,26.68-5q2.79-.69,5.58-1.47V422q-4.28,1.11-8.67,2c-16.7,3.3-34.26,4.53-52.1,6.9a226.24,226.24,0,0,0-27,5,125.48,125.48,0,0,0-26.64,9.88c-1.07.55-2.14,1.15-3.19,1.72l-2.94,1.67c-2,1.11-3.91,2.26-5.85,3.41-3.87,2.33-7.72,4.7-11.52,7.18-7.62,4.93-15.08,10.19-22.28,15.87-5.48,4.35-10.79,9-15.89,13.82.45-6,.66-12,.53-18.07,0-.16,0-.31,0-.47q2.74-7,5.75-13.87a244.08,244.08,0,0,1,21.88-40.44,200.59,200.59,0,0,1,13.93-18.1c5-5.8,10.35-11.33,15.94-16.94s11.34-11.33,16.77-17.65a131.44,131.44,0,0,0,14.67-20.43,124.29,124.29,0,0,0,5.76-11.18c1.73-3.71,3.26-7.5,4.64-11.37,2.53-5.53,5.21-11,8.16-16.2l.8-1.44.85-1.4,1.7-2.81c1.15-1.86,2.38-3.64,3.59-5.45a92.65,92.65,0,0,1,8.09-10,60.52,60.52,0,0,1,9.56-8.17,51.83,51.83,0,0,1,11.18-5.73c8-3,16.9-4.29,25.93-6.1,2.12-.43,4.25-.88,6.37-1.37V255.8c-2.48.44-5,.82-7.5,1.16-8.88,1.24-18.17,1.94-27.5,4.75a60.79,60.79,0,0,0-13.44,5.87A70.2,70.2,0,0,0,524,276.39c-1.55,1.43-3,2.92-4.42,4.45a367.63,367.63,0,0,1,8-38.47c4.4-16.16,10-32,17.88-46.78a128.85,128.85,0,0,1,13.67-20.87A77.21,77.21,0,0,1,577.38,158a49.5,49.5,0,0,1,6.74-3.56v-3.22a52.13,52.13,0,0,0-8.53,3.68,81.61,81.61,0,0,0-20.52,16.27A135.05,135.05,0,0,0,539.25,192c-9.25,14.79-16.24,30.83-22,47.21-2.38,6.89-4.51,13.85-6.45,20.85a79.1,79.1,0,0,0-5.3-13.35,71.06,71.06,0,0,0-15.11-20.15,56.66,56.66,0,0,0-10.15-7.5,47.69,47.69,0,0,0-11.66-4.89,37.6,37.6,0,0,0-6.26-1.11,35.14,35.14,0,0,0-6.32,0,45.54,45.54,0,0,0-12,2.62,38.46,38.46,0,0,0-10.64,6,30.6,30.6,0,0,0-7.81,9.08,31.06,31.06,0,0,1,8.63-7.93,36.39,36.39,0,0,1,10.63-4.51,45.37,45.37,0,0,1,11.38-1.25,31.76,31.76,0,0,1,5.56.51,32.73,32.73,0,0,1,5.34,1.49,47.81,47.81,0,0,1,18.14,12.7A62.71,62.71,0,0,1,497,250.63a71.88,71.88,0,0,1,5,21.57,87.53,87.53,0,0,1-1.16,22.13,113.11,113.11,0,0,1-6.12,21.49c-1.35,3.5-2.86,7-4.54,10.32-.78,1.71-1.7,3.34-2.58,5s-1.85,3.24-2.78,4.86a116.45,116.45,0,0,1-13.42,17.92c-5,5.64-10.65,11-16.36,16.55s-11.53,11.29-17,17.42a202.22,202.22,0,0,0-15.38,19.38,242.27,242.27,0,0,0-18.11,30.64c-1-4.35-2.2-8.66-3.63-12.9-1.31-3.82-2.62-7.25-4-10.72s-2.89-6.86-4.41-10.23c-6.15-13.41-12.89-26.22-19.89-38.74-6.18-11-12.52-21.84-18.8-32.63-.29-.87-.59-1.73-.86-2.6-4.16-13.55-6.37-27.66-5.52-41.59a91.59,91.59,0,0,1,11.67-39.78,103.61,103.61,0,0,1,5.58-8.93,94.08,94.08,0,0,1,6.55-8.25A119.54,119.54,0,0,1,386.91,217c5.69-4.47,11.75-8.61,18-12.61s12.69-7.89,19.11-12a156,156,0,0,0,18.79-13.66c5.92-5.18,11.44-11.31,15.11-18.63a49.63,49.63,0,0,0,5.22-23.39,46.6,46.6,0,0,0-1.54-11.88,32.36,32.36,0,0,0-13.83-19.11,41.56,41.56,0,0,0-10.63-4.8,60.16,60.16,0,0,0-22.59-2.11A66,66,0,0,1,425.71,100a56.09,56.09,0,0,1,10.65,3.11c6.79,2.76,12.85,7.2,16.45,13.2s4.76,13.15,4.27,20.21a44,44,0,0,1-5.91,19.87,56.27,56.27,0,0,1-14.11,15.38,162.24,162.24,0,0,1-18.31,11.95c-12.86,7.4-26.48,14.37-39.16,23.52a132.15,132.15,0,0,0-17.95,15.42,107.33,107.33,0,0,0-7.84,9.1,111.38,111.38,0,0,0-6.76,9.93,106.21,106.21,0,0,0-14.91,45.61c-.15,1.68-.26,3.37-.34,5.06-3.07-5.67-6.19-11.31-9.45-16.87-1.39-2.37-2.81-4.73-4.24-7.09-8.56-17.11-16.18-34.55-21.8-52.55a181.79,181.79,0,0,1-8.06-40,120.71,120.71,0,0,1,3.22-40.13,116.53,116.53,0,0,1,16.86-36.82A117.77,117.77,0,0,1,337,69.77a88.1,88.1,0,0,1,18-9.92,57.22,57.22,0,0,1,9.75-3,37.52,37.52,0,0,1,5-.68c.83-.06,1.66-.07,2.54-.06s1.73,0,2.59,0c6.89.2,13.83,1.43,20,4.54A26.85,26.85,0,0,1,403,67a20.77,20.77,0,0,1,4.72,9.26,21.21,21.21,0,0,0-4-9.81,28.18,28.18,0,0,0-8-7.29c-6.22-3.84-13.47-5.61-20.64-6.37-.9-.12-1.8-.16-2.7-.24s-1.82-.13-2.76-.14a41.41,41.41,0,0,0-5.56.36,58.52,58.52,0,0,0-10.72,2.5,93.54,93.54,0,0,0-19.73,9.31,121.62,121.62,0,0,0-32.27,29.21A123.54,123.54,0,0,0,281,132.74a132.2,132.2,0,0,0-5.67,43.83,191.78,191.78,0,0,0,5.85,39.89c-5.56-6.55-11.38-12.9-17.52-19l-.15-.14a308.72,308.72,0,0,1-23.45-41.16,172.06,172.06,0,0,1-8.75-23.38,97.87,97.87,0,0,1-3.95-24.31,61.79,61.79,0,0,1,4-23.88,54,54,0,0,1,13.78-20.06,77,77,0,0,1,20.94-13.7,102.92,102.92,0,0,1,24.33-7.6,84.37,84.37,0,0,0-12.76,1.83,94.72,94.72,0,0,0-12.47,3.55A86.67,86.67,0,0,0,253.23,54a66.83,66.83,0,0,0-11,7.32,59.18,59.18,0,0,0-16.39,21,66.24,66.24,0,0,0-5.78,26.2,105.67,105.67,0,0,0,3,26.46A166.34,166.34,0,0,0,231.27,160c2.3,5.6,4.85,11.08,7.56,16.46-1.9-1.35-3.82-2.68-5.78-4-11.1-7.23-23.24-13.19-36.27-16.6a86.07,86.07,0,0,0-20-2.82,71.14,71.14,0,0,0-20.11,2.47A59.57,59.57,0,0,0,138.22,164a34.9,34.9,0,0,0-7.59,7.16,27.72,27.72,0,0,0-4.78,9.39,29.19,29.19,0,0,0-.92,10.29,38,38,0,0,0,2.2,9.77A54.06,54.06,0,0,0,137,217.35a64,64,0,0,1-4.26-8.56,55.87,55.87,0,0,1-2.89-9c-1.38-6-1.48-12.34.64-17.75s6.25-9.69,11.26-12.78a49.46,49.46,0,0,1,8.06-3.91,59.32,59.32,0,0,1,8.66-2.63c11.8-2.65,24.19-1.54,35.77,2.1a114.45,114.45,0,0,1,32.49,16.88,200.73,200.73,0,0,1,27.75,24.75,293.62,293.62,0,0,1,23.74,29q10.44,14.53,19.68,30c4.93,11.79,10.24,23.37,15.79,34.78q9.4,19.25,19.09,38.14c6.44,12.6,12.77,25.18,18.74,37.79s11.62,25.25,16.22,38c1.14,3.18,2.25,6.36,3.25,9.55s2,6.43,2.72,9.38a114.48,114.48,0,0,1,3,18.51c0,.57.05,1.14.08,1.71q-.9-2.24-1.84-4.46c-2.31-5.3-4.76-10.57-7.59-15.69a141.61,141.61,0,0,0-9.28-14.95,132.23,132.23,0,0,0-11.2-13.79,117.57,117.57,0,0,0-13.2-12A126,126,0,0,0,302.92,375a212.56,212.56,0,0,0-33-9.93l-1-.21a298.11,298.11,0,0,1-38.72-15.19,163,163,0,0,1-21.83-12.58,103.45,103.45,0,0,1-9.86-7.67,74.56,74.56,0,0,1-8.64-8.87,49.58,49.58,0,0,1-10.83-21.7A46.63,46.63,0,0,1,181,274.38a78.63,78.63,0,0,1,12.31-22.2,111.73,111.73,0,0,1,18-18.48A112.55,112.55,0,0,0,192,251.11a81.11,81.11,0,0,0-14.15,22.09,56.05,56.05,0,0,0-3.62,12.89,47.11,47.11,0,0,0-.1,13.56,50.27,50.27,0,0,0,3.69,13.14,62.68,62.68,0,0,0,6.77,11.8,81.61,81.61,0,0,0,8.78,10.27,111.31,111.31,0,0,0,10,8.9,165.11,165.11,0,0,0,17,11.76c-5.37-1-10.71-2.13-16-3.31C183,347.51,162,341.16,142,332.26c-5-2.19-9.9-4.6-14.79-7l-5.7-3.1.17-.25c-7.92-5.07-15.92-10.06-24.1-14.81-.52-.39-1-.8-1.54-1.2l-3.19-2.51c-1.06-.84-2.14-1.67-3.18-2.52l-3-2.72a98.53,98.53,0,0,1-20.33-24.77,71.16,71.16,0,0,1-6.25-14.71,72,72,0,0,1-1.7-7.83l-.31-2a15.46,15.46,0,0,1-.24-2l-.27-4a73.69,73.69,0,0,1,1.32-16.12A87.94,87.94,0,0,1,63.66,211a98.18,98.18,0,0,1,7.49-14.71A99.89,99.89,0,0,1,81,182.87a92.8,92.8,0,0,0-10.87,12.71A100,100,0,0,0,61.46,210a90.26,90.26,0,0,0-6,15.86,77.71,77.71,0,0,0-2.37,16.94l0,4.31a17.51,17.51,0,0,0,.13,2.15l.21,2.15A72.38,72.38,0,0,0,54.9,260a77,77,0,0,0,5.94,16.25,92.75,92.75,0,0,0,11.49,17.64,124.06,124.06,0,0,0-16.64-6.2c-6.07-1.69-12.44-2.89-19-2.31a26.82,26.82,0,0,0-9.45,2.55,22.51,22.51,0,0,0-4.16,2.65,32.44,32.44,0,0,0-3.46,3.34,35,35,0,0,0-5.42,7.79,28.81,28.81,0,0,0-2.76,9,29.24,29.24,0,0,0,.29,9.32A29.68,29.68,0,0,0,14.82,328.72Zm317-34.56-.69-1.24.75-.39Q331.82,293.34,331.79,294.16Z"/><path class="cls-9" d="M122.2,519.85,121,519a25.85,25.85,0,0,0-11.69-3.74c-6.25-.5-15.73.93-25.45,10.65-18.31,18.32-9.23,43-8.83,44l3.37,8.86,4.47-8.36c.06-.11,5.87-10.61,14.72-13.56,32.9-11,25.19-35.43,25.11-35.67Z"/><path class="cls-9" d="M478,234.58c-2.8-4.05-8.39-9.1-19.12-10.19-20.24-2-30.71,15.73-31.15,16.49l-3.67,6.4,7.25-1.39c.09,0,9.32-1.72,15.55,2.22,6.94,4.39,12.79,5.92,17.58,5.92A20.42,20.42,0,0,0,481,245.68l.62-1-.11-1.15A20.33,20.33,0,0,0,478,234.58Z"/><path class="cls-9" d="M580.71,288.52c-.81-.57-20-13.86-39.88-2.17-16.33,9.64-16.42,24.13-14.19,30.45l.44,1.23,1.1.71a22.77,22.77,0,0,0,11.26,2.91c7,0,16.37-3.25,25-16.62,4.54-7,14.85-9.64,14.95-9.67l4.71-1.15v-3.3Z"/><path class="cls-9" d="M520.84,168.67l-7.26,2.4c-.85.28-20.92,7.16-23.06,27.95-1.13,11,2.8,17.69,6.3,21.34a20.85,20.85,0,0,0,8.29,5.41l1.13.34,1.11-.42c.2-.07,19.41-7.69,9.54-33.87-2.68-7.09,1-16,1-16.1Z"/><path class="cls-9" d="M79.87,495.59l.15-1.06-.52-.93c-2.69-4.78-11.68-12.54-26.43-7.66-17.9,5.92-20.06,25-20.15,25.77l-.7,6.83,5.63-3.94c.07,0,7.24-5,14-4C76.86,514.19,79.84,495.78,79.87,495.59Z"/></g></g></svg>