<?xml version="1.0" encoding="utf-8"?>
<!-- Generator: Adobe Illustrator 21.1.0, SVG Export Plug-In . SVG Version: 6.00 Build 0)  -->
<svg version="1.1" id="Layer_1" xmlns="http://www.w3.org/2000/svg" xmlns:xlink="http://www.w3.org/1999/xlink" x="0px" y="0px"
	 viewBox="0 0 10 40.7" style="enable-background:new 0 0 10 40.7;" xml:space="preserve">
<style type="text/css">
	.st0{fill:#FFFFFF;}
</style>
<g>
	<path class="st0" d="M1,34.5h1.4v3.3h2v-2.7h1.4v2.7H9v1.9H1V34.5z"/>
	<path class="st0" d="M6,31.7h3v1.9H1v-2.6c0-0.6,0.1-1.1,0.2-1.5c0.1-0.4,0.3-0.7,0.5-1c0.2-0.3,0.5-0.4,0.8-0.6
		c0.3-0.1,0.6-0.2,0.9-0.2c0.3,0,0.5,0,0.7,0.1c0.2,0.1,0.4,0.2,0.6,0.3c0.2,0.1,0.4,0.3,0.5,0.5c0.2,0.2,0.3,0.4,0.4,0.7
		c0.1-0.1,0.1-0.2,0.2-0.3s0.2-0.2,0.3-0.3L9,27v1.7c0,0.3-0.1,0.5-0.4,0.7l-2.3,1.3c-0.1,0.1-0.2,0.1-0.2,0.2C6.1,31,6,31.1,6,31.2
		V31.7z M4.8,31.7v-0.7c0-0.3,0-0.5-0.1-0.6c-0.1-0.2-0.2-0.3-0.3-0.4c-0.1-0.1-0.2-0.2-0.4-0.2c-0.2-0.1-0.3-0.1-0.5-0.1
		c-0.4,0-0.6,0.1-0.8,0.3c-0.2,0.2-0.3,0.6-0.3,1.1v0.7H4.8z"/>
	<path class="st0" d="M9,24.2v1.9H1v-1.9H9z"/>
	<path class="st0" d="M5,15.4c0.6,0,1.1,0.1,1.6,0.3c0.5,0.2,0.9,0.5,1.3,0.8s0.6,0.8,0.8,1.3C8.9,18.4,9,19,9,19.6v3.1H1v-3.1
		c0-0.6,0.1-1.2,0.3-1.7c0.2-0.5,0.5-0.9,0.8-1.3s0.8-0.6,1.3-0.8C3.9,15.5,4.4,15.4,5,15.4z M5,17.4c-0.4,0-0.8,0.1-1.1,0.2
		s-0.6,0.3-0.8,0.4c-0.2,0.2-0.4,0.4-0.5,0.7s-0.2,0.6-0.2,1v1.2h5.2v-1.2c0-0.4-0.1-0.7-0.2-1s-0.3-0.5-0.5-0.7
		c-0.2-0.2-0.5-0.3-0.8-0.4S5.4,17.4,5,17.4z"/>
	<path class="st0" d="M9,7.4v1.4C9,9,9,9.2,8.9,9.3S8.7,9.4,8.6,9.5L7.2,10v3l1.4,0.5c0.1,0,0.2,0.1,0.3,0.2C9,13.8,9,13.9,9,14.1
		v1.5l-8-3.1v-1.9L9,7.4z M5.9,12.6v-2.2l-2.2,0.7c-0.1,0-0.3,0.1-0.5,0.2c-0.2,0.1-0.4,0.1-0.6,0.2c0.2,0.1,0.4,0.1,0.6,0.2
		s0.4,0.1,0.5,0.2L5.9,12.6z"/>
	<path class="st0" d="M6,3.9h3v1.9H6L1,8.7V7c0-0.2,0-0.3,0.1-0.4s0.2-0.2,0.3-0.2l2.3-1.1C3.9,5.2,4.1,5.1,4.2,5
		c0.2-0.1,0.3-0.1,0.5-0.2C4.6,4.8,4.4,4.7,4.2,4.6C4.1,4.5,3.9,4.4,3.7,4.4L1.4,3.2c0,0-0.1-0.1-0.1-0.1c0,0-0.1-0.1-0.1-0.1
		c0,0-0.1-0.1-0.1-0.2c0-0.1,0-0.1,0-0.2V1L6,3.9z"/>
</g>
</svg>
