<?xml version="1.0" encoding="utf-8"?>
<!-- Generator: Adobe Illustrator 21.0.2, SVG Export Plug-In . SVG Version: 6.00 Build 0)  -->
<svg version="1.1" id="Layer_1" xmlns="http://www.w3.org/2000/svg" xmlns:xlink="http://www.w3.org/1999/xlink" x="0px" y="0px"
	 viewBox="0 0 10 50" style="enable-background:new 0 0 10 50;" xml:space="preserve">
<style type="text/css">
	.st0{fill:#FFFFFF;}
</style>
<g>
	<path class="st0" d="M5.8,45.3c0.2-0.1,0.3-0.1,0.5-0.2C6.1,45,5.9,45,5.8,44.9s-0.3-0.1-0.4-0.2l-4.1-2.1c-0.1,0-0.1-0.1-0.2-0.1
		c0,0-0.1-0.1-0.1-0.1s0-0.1,0-0.2s0-0.1,0-0.2v-1.4h8v1.6H4.4c-0.2,0-0.5,0-0.7,0l4.1,2.1c0.1,0.1,0.2,0.2,0.3,0.3
		c0.1,0.1,0.1,0.2,0.1,0.4v0.3c0,0.1,0,0.3-0.1,0.4c-0.1,0.1-0.2,0.2-0.3,0.3L3.7,48c0.1,0,0.3,0,0.4,0c0.1,0,0.2,0,0.3,0H9v1.6H1
		v-1.4C1,48.1,1,48,1,48s0-0.1,0-0.2s0-0.1,0.1-0.1c0,0,0.1-0.1,0.2-0.1l4.1-2.1C5.5,45.4,5.6,45.3,5.8,45.3z"/>
	<path class="st0" d="M5,31.4c0.6,0,1.1,0.1,1.6,0.3c0.5,0.2,0.9,0.5,1.3,0.8s0.7,0.8,0.9,1.3s0.3,1.1,0.3,1.7S9,36.7,8.8,37.2
		s-0.5,1-0.9,1.3s-0.8,0.6-1.3,0.8c-0.5,0.2-1,0.3-1.6,0.3c-0.6,0-1.1-0.1-1.6-0.3c-0.5-0.2-0.9-0.5-1.3-0.8
		c-0.4-0.4-0.7-0.8-0.9-1.3s-0.3-1.1-0.3-1.7s0.1-1.2,0.3-1.7s0.5-0.9,0.9-1.3s0.8-0.6,1.3-0.8C3.9,31.5,4.4,31.4,5,31.4z M5,33.3
		c-0.4,0-0.8,0.1-1.1,0.2s-0.6,0.3-0.8,0.4c-0.2,0.2-0.4,0.4-0.5,0.7c-0.1,0.3-0.2,0.6-0.2,1c0,0.4,0.1,0.7,0.2,1
		c0.1,0.3,0.3,0.5,0.5,0.7c0.2,0.2,0.5,0.3,0.8,0.4s0.7,0.2,1.1,0.2c0.4,0,0.8-0.1,1.1-0.2c0.3-0.1,0.6-0.3,0.8-0.4
		c0.2-0.2,0.4-0.4,0.5-0.7c0.1-0.3,0.2-0.6,0.2-1c0-0.4-0.1-0.7-0.2-1c-0.1-0.3-0.3-0.5-0.5-0.7c-0.2-0.2-0.5-0.3-0.8-0.4
		C5.8,33.3,5.4,33.3,5,33.3z"/>
	<path class="st0" d="M1,29.3c0-0.1,0-0.1,0-0.1c0,0,0-0.1,0.1-0.1c0,0,0.1-0.1,0.1-0.1l4.8-3.8c-0.2,0-0.3,0-0.4,0
		c-0.1,0-0.3,0-0.4,0H1v-1.6h8v1c0,0.1,0,0.3-0.1,0.4c0,0.1-0.1,0.2-0.2,0.3l-4.8,3.8c0.1,0,0.3,0,0.4,0c0.1,0,0.3,0,0.4,0H9v1.6H1
		v-1C1,29.4,1,29.3,1,29.3z"/>
	<path class="st0" d="M5,14.9c0.6,0,1.1,0.1,1.6,0.3c0.5,0.2,0.9,0.5,1.3,0.8s0.6,0.8,0.8,1.3C8.9,17.8,9,18.4,9,19v3.1H1V19
		c0-0.6,0.1-1.2,0.3-1.7c0.2-0.5,0.5-0.9,0.8-1.3s0.8-0.6,1.3-0.8C3.9,15,4.4,14.9,5,14.9z M5,16.8c-0.4,0-0.8,0.1-1.1,0.2
		s-0.6,0.3-0.8,0.4c-0.2,0.2-0.4,0.4-0.5,0.7s-0.2,0.6-0.2,1v1.2h5.2V19c0-0.4-0.1-0.7-0.2-1s-0.3-0.5-0.5-0.7
		c-0.2-0.2-0.5-0.3-0.8-0.4S5.4,16.8,5,16.8z"/>
	<path class="st0" d="M9,6.9v1.4c0,0.2,0,0.3-0.1,0.4S8.7,8.9,8.6,8.9L7.2,9.4v3l1.4,0.5c0.1,0,0.2,0.1,0.3,0.2
		C9,13.2,9,13.4,9,13.5V15l-8-3.1V10L9,6.9z M5.9,12V9.8l-2.2,0.7c-0.1,0-0.3,0.1-0.5,0.2c-0.2,0.1-0.4,0.1-0.6,0.2
		C2.9,11,3.1,11,3.3,11.1s0.4,0.1,0.5,0.2L5.9,12z"/>
	<path class="st0" d="M6,3.3h3v1.9H6L1,8.1V6.4c0-0.2,0-0.3,0.1-0.4s0.2-0.2,0.3-0.2l2.3-1.1c0.2-0.1,0.4-0.2,0.5-0.3
		c0.2-0.1,0.3-0.1,0.5-0.2C4.6,4.2,4.4,4.1,4.2,4C4.1,4,3.9,3.9,3.7,3.8L1.4,2.7c0,0-0.1-0.1-0.1-0.1c0,0-0.1-0.1-0.1-0.1
		c0,0-0.1-0.1-0.1-0.2c0-0.1,0-0.1,0-0.2V0.4L6,3.3z"/>
</g>
</svg>
