<?xml version="1.0" encoding="utf-8"?>
<!-- Generator: Adobe Illustrator 21.1.0, SVG Export Plug-In . SVG Version: 6.00 Build 0)  -->
<svg version="1.1" id="Layer_1" xmlns="http://www.w3.org/2000/svg" xmlns:xlink="http://www.w3.org/1999/xlink" x="0px" y="0px"
	 viewBox="0 0 10 58.7" style="enable-background:new 0 0 10 58.7;" xml:space="preserve">
<style type="text/css">
	.st0{fill:#FFFFFF;}
</style>
<g>
	<path class="st0" d="M2.6,53c0.1,0.1,0.2,0.1,0.2,0.2s0.1,0.1,0.1,0.2c0,0.1,0,0.2-0.1,0.3c-0.1,0.1-0.1,0.2-0.2,0.3
		c-0.1,0.1-0.1,0.3-0.2,0.4c-0.1,0.2-0.1,0.3-0.1,0.5c0,0.3,0.1,0.6,0.2,0.8C2.7,55.9,2.9,56,3.2,56c0.2,0,0.3-0.1,0.4-0.2
		c0.1-0.1,0.2-0.2,0.3-0.4c0.1-0.2,0.1-0.4,0.2-0.6c0.1-0.2,0.1-0.4,0.2-0.7s0.2-0.4,0.3-0.7C4.7,53.3,4.8,53.1,5,53
		s0.4-0.3,0.6-0.4s0.5-0.2,0.9-0.2c0.4,0,0.7,0.1,1,0.2c0.3,0.1,0.6,0.3,0.8,0.6s0.4,0.5,0.6,0.9s0.2,0.8,0.2,1.2
		c0,0.3,0,0.5-0.1,0.8c-0.1,0.3-0.1,0.5-0.2,0.8s-0.2,0.5-0.3,0.7C8.3,57.7,8.2,57.9,8,58l-0.9-0.5c-0.1,0-0.1-0.1-0.2-0.2
		C7,57.2,7,57.2,7,57.1c0-0.1,0-0.2,0.1-0.3c0.1-0.1,0.1-0.2,0.2-0.4c0.1-0.1,0.2-0.3,0.2-0.5c0.1-0.2,0.1-0.4,0.1-0.6
		c0-0.3-0.1-0.6-0.2-0.8c-0.1-0.2-0.4-0.3-0.7-0.3c-0.2,0-0.3,0.1-0.5,0.2c-0.1,0.1-0.2,0.2-0.3,0.4s-0.1,0.4-0.2,0.6
		s-0.1,0.4-0.2,0.7c-0.1,0.2-0.2,0.4-0.3,0.7S5,57,4.9,57.2s-0.4,0.3-0.6,0.4s-0.6,0.2-0.9,0.2c-0.3,0-0.6-0.1-0.9-0.2
		c-0.3-0.1-0.5-0.3-0.8-0.5c-0.2-0.2-0.4-0.5-0.5-0.9C1,55.8,0.9,55.4,0.9,55c0-0.2,0-0.5,0.1-0.7c0-0.2,0.1-0.5,0.2-0.7
		s0.2-0.4,0.3-0.6s0.2-0.3,0.4-0.5L2.6,53z"/>
	<path class="st0" d="M9,44v1.4c0,0.2,0,0.3-0.1,0.4S8.7,46,8.6,46.1l-1.4,0.5v3l1.4,0.5c0.1,0,0.2,0.1,0.3,0.2
		C9,50.4,9,50.5,9,50.7v1.5L1,49v-1.9L9,44z M5.9,49.2V47l-2.2,0.7c-0.1,0-0.3,0.1-0.5,0.2C3.1,48,2.9,48,2.6,48.1
		c0.2,0.1,0.4,0.1,0.6,0.2s0.4,0.1,0.5,0.2L5.9,49.2z"/>
	<path class="st0" d="M1,38.4h1.5v2.3H9v1.9H2.5v2.3H1V38.4z"/>
	<path class="st0" d="M7.5,34.3c0-0.2,0-0.5-0.1-0.7c-0.1-0.2-0.2-0.4-0.4-0.5c-0.2-0.1-0.3-0.2-0.6-0.3S6,32.8,5.7,32.8H1v-1.9h4.7
		c0.5,0,0.9,0.1,1.4,0.2c0.4,0.2,0.8,0.4,1.1,0.7c0.3,0.3,0.5,0.7,0.7,1.1c0.2,0.4,0.2,0.9,0.2,1.4c0,0.5-0.1,1-0.2,1.4
		c-0.2,0.4-0.4,0.8-0.7,1.1s-0.7,0.5-1.1,0.7c-0.4,0.2-0.9,0.2-1.4,0.2H1v-1.9h4.7c0.3,0,0.5,0,0.8-0.1c0.2-0.1,0.4-0.2,0.6-0.3
		c0.2-0.1,0.3-0.3,0.4-0.5C7.5,34.8,7.5,34.6,7.5,34.3z"/>
	<path class="st0" d="M6,27.8h3v1.9H1v-2.6c0-0.6,0.1-1.1,0.2-1.5c0.1-0.4,0.3-0.7,0.5-1c0.2-0.3,0.5-0.4,0.8-0.6
		c0.3-0.1,0.6-0.2,0.9-0.2c0.3,0,0.5,0,0.7,0.1c0.2,0.1,0.4,0.2,0.6,0.3c0.2,0.1,0.4,0.3,0.5,0.5c0.2,0.2,0.3,0.4,0.4,0.7
		c0.1-0.1,0.1-0.2,0.2-0.3s0.2-0.2,0.3-0.3L9,23.1v1.7c0,0.3-0.1,0.5-0.4,0.7l-2.3,1.3c-0.1,0.1-0.2,0.1-0.2,0.2
		c0,0.1-0.1,0.2-0.1,0.3V27.8z M4.8,27.8v-0.7c0-0.3,0-0.5-0.1-0.6c-0.1-0.2-0.2-0.3-0.3-0.4c-0.1-0.1-0.2-0.2-0.4-0.2
		c-0.2-0.1-0.3-0.1-0.5-0.1c-0.4,0-0.6,0.1-0.8,0.3c-0.2,0.2-0.3,0.6-0.3,1.1v0.7H4.8z"/>
	<path class="st0" d="M5,15.1c0.6,0,1.1,0.1,1.6,0.3c0.5,0.2,0.9,0.5,1.3,0.8c0.4,0.4,0.6,0.8,0.8,1.3C8.9,18.1,9,18.6,9,19.3v3.1H1
		v-3.1c0-0.6,0.1-1.2,0.3-1.7c0.2-0.5,0.5-0.9,0.8-1.3c0.4-0.4,0.8-0.6,1.3-0.8C3.9,15.2,4.4,15.1,5,15.1z M5,17
		c-0.4,0-0.8,0.1-1.1,0.2s-0.6,0.3-0.8,0.4c-0.2,0.2-0.4,0.4-0.5,0.7s-0.2,0.6-0.2,1v1.2h5.2v-1.2c0-0.4-0.1-0.7-0.2-1
		s-0.3-0.5-0.5-0.7c-0.2-0.2-0.5-0.3-0.8-0.4S5.4,17,5,17z"/>
	<path class="st0" d="M9,7.1v1.4c0,0.2,0,0.3-0.1,0.4S8.7,9.1,8.6,9.1L7.2,9.6v3l1.4,0.5c0.1,0,0.2,0.1,0.3,0.2
		C9,13.5,9,13.6,9,13.7v1.5l-8-3.1v-1.9L9,7.1z M5.9,12.2V10l-2.2,0.7c-0.1,0-0.3,0.1-0.5,0.2c-0.2,0.1-0.4,0.1-0.6,0.2
		c0.2,0.1,0.4,0.1,0.6,0.2s0.4,0.1,0.5,0.2L5.9,12.2z"/>
	<path class="st0" d="M6,3.5h3v1.9H6L1,8.3V6.7c0-0.2,0-0.3,0.1-0.4S1.3,6.1,1.4,6l2.3-1.1c0.2-0.1,0.4-0.2,0.5-0.3
		c0.2-0.1,0.3-0.1,0.5-0.2C4.6,4.4,4.4,4.3,4.2,4.3C4.1,4.2,3.9,4.1,3.7,4L1.4,2.9c0,0-0.1-0.1-0.1-0.1c0,0-0.1-0.1-0.1-0.1
		c0,0-0.1-0.1-0.1-0.2c0-0.1,0-0.1,0-0.2V0.6L6,3.5z"/>
</g>
</svg>
