<?xml version="1.0" encoding="utf-8"?>
<!-- Generator: Adobe Illustrator 21.1.0, SVG Export Plug-In . SVG Version: 6.00 Build 0)  -->
<svg version="1.1" id="Layer_1" xmlns="http://www.w3.org/2000/svg" xmlns:xlink="http://www.w3.org/1999/xlink" x="0px" y="0px"
	 viewBox="0 0 10 60.5" style="enable-background:new 0 0 10 60.5;" xml:space="preserve">
<style type="text/css">
	.st0{fill:#FFFFFF;}
</style>
<g>
	<path class="st0" d="M1,53.1h1.5v2.3H9v1.9H2.5v2.3H1V53.1z"/>
	<path class="st0" d="M9,45.3v1.9H5.6v3.3H9v1.9H1v-1.9h3.3v-3.3H1v-1.9H9z"/>
	<path class="st0" d="M7.5,40.7c0-0.2,0-0.5-0.1-0.7c-0.1-0.2-0.2-0.4-0.4-0.5c-0.2-0.1-0.3-0.2-0.6-0.3S6,39.1,5.7,39.1H1v-1.9h4.7
		c0.5,0,0.9,0.1,1.4,0.2c0.4,0.2,0.8,0.4,1.1,0.7s0.5,0.7,0.7,1.1c0.2,0.4,0.2,0.9,0.2,1.4c0,0.5-0.1,1-0.2,1.4
		c-0.2,0.4-0.4,0.8-0.7,1.1s-0.7,0.5-1.1,0.7c-0.4,0.2-0.9,0.2-1.4,0.2H1v-1.9h4.7c0.3,0,0.5,0,0.8-0.1c0.2-0.1,0.4-0.2,0.6-0.3
		c0.2-0.1,0.3-0.3,0.4-0.5C7.5,41.2,7.5,40.9,7.5,40.7z"/>
	<path class="st0" d="M6,34.2h3V36H1v-2.6c0-0.6,0.1-1.1,0.2-1.5c0.1-0.4,0.3-0.7,0.5-1c0.2-0.3,0.5-0.4,0.8-0.6
		c0.3-0.1,0.6-0.2,0.9-0.2c0.3,0,0.5,0,0.7,0.1c0.2,0.1,0.4,0.2,0.6,0.3c0.2,0.1,0.4,0.3,0.5,0.5c0.2,0.2,0.3,0.4,0.4,0.7
		c0.1-0.1,0.1-0.2,0.2-0.3s0.2-0.2,0.3-0.3L9,29.5v1.7c0,0.3-0.1,0.5-0.4,0.7l-2.3,1.3c-0.1,0.1-0.2,0.1-0.2,0.2
		c0,0.1-0.1,0.2-0.1,0.3V34.2z M4.8,34.2v-0.7c0-0.3,0-0.5-0.1-0.6c-0.1-0.2-0.2-0.3-0.3-0.4c-0.1-0.1-0.2-0.2-0.4-0.2
		C3.8,32,3.7,32,3.5,32c-0.4,0-0.6,0.1-0.8,0.3c-0.2,0.2-0.3,0.6-0.3,1.1v0.7H4.8z"/>
	<path class="st0" d="M2.6,24.3c0.1,0.1,0.2,0.1,0.2,0.2s0.1,0.1,0.1,0.2c0,0.1,0,0.2-0.1,0.3c-0.1,0.1-0.1,0.2-0.2,0.3
		c-0.1,0.1-0.1,0.3-0.2,0.4c-0.1,0.2-0.1,0.3-0.1,0.5c0,0.3,0.1,0.6,0.2,0.8c0.1,0.2,0.3,0.3,0.6,0.3c0.2,0,0.3-0.1,0.4-0.2
		c0.1-0.1,0.2-0.2,0.3-0.4c0.1-0.2,0.1-0.4,0.2-0.6c0.1-0.2,0.1-0.4,0.2-0.7s0.2-0.4,0.3-0.7c0.1-0.2,0.2-0.4,0.4-0.6
		s0.4-0.3,0.6-0.4s0.5-0.2,0.9-0.2c0.4,0,0.7,0.1,1,0.2c0.3,0.1,0.6,0.3,0.8,0.6s0.4,0.5,0.6,0.9s0.2,0.8,0.2,1.2
		c0,0.3,0,0.5-0.1,0.8c-0.1,0.3-0.1,0.5-0.2,0.8s-0.2,0.5-0.3,0.7C8.3,29,8.2,29.1,8,29.3l-0.9-0.5c-0.1,0-0.1-0.1-0.2-0.2
		C7,28.5,7,28.4,7,28.3c0-0.1,0-0.2,0.1-0.3c0.1-0.1,0.1-0.2,0.2-0.4c0.1-0.1,0.2-0.3,0.2-0.5c0.1-0.2,0.1-0.4,0.1-0.6
		c0-0.3-0.1-0.6-0.2-0.8c-0.1-0.2-0.4-0.3-0.7-0.3c-0.2,0-0.3,0.1-0.5,0.2C6.1,25.7,6,25.8,5.9,26s-0.1,0.4-0.2,0.6S5.6,27,5.5,27.2
		c-0.1,0.2-0.2,0.4-0.3,0.7S5,28.3,4.9,28.4s-0.4,0.3-0.6,0.4S3.7,29,3.3,29c-0.3,0-0.6-0.1-0.9-0.2c-0.3-0.1-0.5-0.3-0.8-0.5
		c-0.2-0.2-0.4-0.5-0.5-0.9c-0.1-0.3-0.2-0.7-0.2-1.2c0-0.2,0-0.5,0.1-0.7c0-0.2,0.1-0.5,0.2-0.7s0.2-0.4,0.3-0.6s0.2-0.3,0.4-0.5
		L2.6,24.3z"/>
	<path class="st0" d="M5,15.5c0.6,0,1.1,0.1,1.6,0.3c0.5,0.2,0.9,0.5,1.3,0.8s0.6,0.8,0.8,1.3C8.9,18.5,9,19,9,19.6v3.1H1v-3.1
		c0-0.6,0.1-1.2,0.3-1.7c0.2-0.5,0.5-0.9,0.8-1.3s0.8-0.6,1.3-0.8C3.9,15.6,4.4,15.5,5,15.5z M5,17.4c-0.4,0-0.8,0.1-1.1,0.2
		S3.3,17.8,3.1,18c-0.2,0.2-0.4,0.4-0.5,0.7s-0.2,0.6-0.2,1v1.2h5.2v-1.2c0-0.4-0.1-0.7-0.2-1S7.1,18.2,6.9,18
		c-0.2-0.2-0.5-0.3-0.8-0.4S5.4,17.4,5,17.4z"/>
	<path class="st0" d="M9,7.5v1.4c0,0.2,0,0.3-0.1,0.4S8.7,9.5,8.6,9.5L7.2,10v3l1.4,0.5c0.1,0,0.2,0.1,0.3,0.2C9,13.8,9,14,9,14.1
		v1.5l-8-3.1v-1.9L9,7.5z M5.9,12.6v-2.2l-2.2,0.7c-0.1,0-0.3,0.1-0.5,0.2c-0.2,0.1-0.4,0.1-0.6,0.2c0.2,0.1,0.4,0.1,0.6,0.2
		s0.4,0.1,0.5,0.2L5.9,12.6z"/>
	<path class="st0" d="M6,3.9h3v1.9H6L1,8.7V7.1c0-0.2,0-0.3,0.1-0.4s0.2-0.2,0.3-0.2l2.3-1.1C3.9,5.2,4.1,5.1,4.2,5
		C4.4,5,4.6,4.9,4.7,4.8C4.6,4.8,4.4,4.7,4.2,4.6C4.1,4.6,3.9,4.5,3.7,4.4L1.4,3.3c0,0-0.1-0.1-0.1-0.1c0,0-0.1-0.1-0.1-0.1
		c0,0-0.1-0.1-0.1-0.2c0-0.1,0-0.1,0-0.2V1L6,3.9z"/>
</g>
</svg>
