<?xml version="1.0" encoding="utf-8"?>
<!-- Generator: Adobe Illustrator 21.1.0, SVG Export Plug-In . SVG Version: 6.00 Build 0)  -->
<svg version="1.1" id="Layer_1" xmlns="http://www.w3.org/2000/svg" xmlns:xlink="http://www.w3.org/1999/xlink" x="0px" y="0px"
	 viewBox="0 0 10 50" style="enable-background:new 0 0 10 50;" xml:space="preserve">
<style type="text/css">
	.st0{fill:#FFFFFF;}
</style>
<g>
	<path class="st0" d="M1,43.1h1.5v2.3H9v1.9H2.5v2.3H1V43.1z"/>
	<path class="st0" d="M7.5,39c0-0.2,0-0.5-0.1-0.7c-0.1-0.2-0.2-0.4-0.4-0.5c-0.2-0.1-0.3-0.2-0.6-0.3S6,37.4,5.7,37.4H1v-1.9h4.7
		c0.5,0,0.9,0.1,1.4,0.2c0.4,0.2,0.8,0.4,1.1,0.7s0.5,0.7,0.7,1.1C9,38,9.1,38.5,9.1,39c0,0.5-0.1,1-0.2,1.4
		c-0.2,0.4-0.4,0.8-0.7,1.1S7.5,42,7.1,42.2c-0.4,0.2-0.9,0.2-1.4,0.2H1v-1.9h4.7c0.3,0,0.5,0,0.8-0.1c0.2-0.1,0.4-0.2,0.6-0.3
		c0.2-0.1,0.3-0.3,0.4-0.5C7.5,39.5,7.5,39.2,7.5,39z"/>
	<path class="st0" d="M1,29.2h1.4v3.3h1.9V30h1.4v2.5h1.9v-3.3H9v5.2H1V29.2z"/>
	<path class="st0" d="M2.6,23.7c0.1,0.1,0.2,0.1,0.2,0.2s0.1,0.1,0.1,0.2c0,0.1,0,0.2-0.1,0.3c-0.1,0.1-0.1,0.2-0.2,0.3
		c-0.1,0.1-0.1,0.3-0.2,0.4c-0.1,0.2-0.1,0.3-0.1,0.5c0,0.3,0.1,0.6,0.2,0.8c0.1,0.2,0.3,0.3,0.6,0.3c0.2,0,0.3-0.1,0.4-0.2
		c0.1-0.1,0.2-0.2,0.3-0.4c0.1-0.2,0.1-0.4,0.2-0.6c0.1-0.2,0.1-0.4,0.2-0.7s0.2-0.4,0.3-0.7C4.7,24,4.8,23.8,5,23.6
		s0.4-0.3,0.6-0.4s0.5-0.2,0.9-0.2c0.4,0,0.7,0.1,1,0.2c0.3,0.1,0.6,0.3,0.8,0.6s0.4,0.5,0.6,0.9s0.2,0.8,0.2,1.2
		c0,0.3,0,0.5-0.1,0.8C9,27,8.9,27.2,8.8,27.5s-0.2,0.5-0.3,0.7c-0.1,0.2-0.3,0.4-0.4,0.6l-0.9-0.5c-0.1,0-0.1-0.1-0.2-0.2
		c0-0.1-0.1-0.2-0.1-0.2c0-0.1,0-0.2,0.1-0.3c0.1-0.1,0.1-0.2,0.2-0.4c0.1-0.1,0.2-0.3,0.2-0.5c0.1-0.2,0.1-0.4,0.1-0.6
		c0-0.3-0.1-0.6-0.2-0.8c-0.1-0.2-0.4-0.3-0.7-0.3c-0.2,0-0.3,0.1-0.5,0.2c-0.1,0.1-0.2,0.2-0.3,0.4S5.8,25.8,5.7,26
		s-0.1,0.4-0.2,0.7c-0.1,0.2-0.2,0.4-0.3,0.7S5,27.7,4.9,27.8s-0.4,0.3-0.6,0.4s-0.6,0.2-0.9,0.2c-0.3,0-0.6-0.1-0.9-0.2
		c-0.3-0.1-0.5-0.3-0.8-0.5c-0.2-0.2-0.4-0.5-0.5-0.9c-0.1-0.3-0.2-0.7-0.2-1.2c0-0.2,0-0.5,0.1-0.7c0-0.2,0.1-0.5,0.2-0.7
		s0.2-0.4,0.3-0.6s0.2-0.3,0.4-0.5L2.6,23.7z"/>
	<path class="st0" d="M5,14.9c0.6,0,1.1,0.1,1.6,0.3c0.5,0.2,0.9,0.5,1.3,0.8s0.6,0.8,0.8,1.3C8.9,17.9,9,18.4,9,19v3.1H1V19
		c0-0.6,0.1-1.2,0.3-1.7c0.2-0.5,0.5-0.9,0.8-1.3s0.8-0.6,1.3-0.8C3.9,15,4.4,14.9,5,14.9z M5,16.8c-0.4,0-0.8,0.1-1.1,0.2
		s-0.6,0.3-0.8,0.4c-0.2,0.2-0.4,0.4-0.5,0.7s-0.2,0.6-0.2,1v1.2h5.2V19c0-0.4-0.1-0.7-0.2-1s-0.3-0.5-0.5-0.7
		c-0.2-0.2-0.5-0.3-0.8-0.4C5.8,16.8,5.4,16.8,5,16.8z"/>
	<path class="st0" d="M9,6.9v1.4c0,0.2,0,0.3-0.1,0.4S8.7,8.9,8.6,8.9L7.2,9.4v3l1.4,0.5c0.1,0,0.2,0.1,0.3,0.2
		C9,13.2,9,13.4,9,13.5V15l-8-3.1V10L9,6.9z M5.9,12V9.8l-2.2,0.7c-0.1,0-0.3,0.1-0.5,0.2c-0.2,0.1-0.4,0.1-0.6,0.2
		C2.9,11,3.1,11,3.3,11.1s0.4,0.1,0.5,0.2L5.9,12z"/>
	<path class="st0" d="M6,3.3h3v1.9H6L1,8.1V6.5c0-0.2,0-0.3,0.1-0.4s0.2-0.2,0.3-0.2l2.3-1.1c0.2-0.1,0.4-0.2,0.5-0.3
		c0.2-0.1,0.3-0.1,0.5-0.2C4.6,4.2,4.4,4.1,4.2,4.1C4.1,4,3.9,3.9,3.7,3.8L1.4,2.7c0,0-0.1-0.1-0.1-0.1c0,0-0.1-0.1-0.1-0.1
		c0,0-0.1-0.1-0.1-0.2c0-0.1,0-0.1,0-0.2V0.4L6,3.3z"/>
</g>
</svg>
