<?xml version="1.0" encoding="utf-8"?>
<!-- Generator: Adobe Illustrator 21.1.0, SVG Export Plug-In . SVG Version: 6.00 Build 0)  -->
<svg version="1.1" id="Layer_1" xmlns="http://www.w3.org/2000/svg" xmlns:xlink="http://www.w3.org/1999/xlink" x="0px" y="0px"
	 viewBox="0 0 10 70.7" style="enable-background:new 0 0 10 70.7;" xml:space="preserve">
<style type="text/css">
	.st0{fill:#FFFFFF;}
</style>
<g>
	<path class="st0" d="M1,69.8v-1.6c0-0.2,0-0.3,0.1-0.4c0.1-0.1,0.2-0.2,0.3-0.2l4.2-1.1c0.1,0,0.3-0.1,0.4-0.1
		c0.2,0,0.3-0.1,0.5-0.1c-0.2,0-0.3-0.1-0.5-0.1s-0.3-0.1-0.4-0.1l-4.2-1.3c-0.1,0-0.2-0.1-0.3-0.2C1,64.5,1,64.4,1,64.2v-0.5
		c0-0.2,0-0.3,0.1-0.4s0.2-0.2,0.3-0.2l4.2-1.3c0.1,0,0.3-0.1,0.4-0.1c0.1,0,0.3-0.1,0.5-0.1c-0.2,0-0.3-0.1-0.5-0.1
		s-0.3-0.1-0.4-0.1l-4.2-1.1c-0.1,0-0.2-0.1-0.3-0.2C1,59.9,1,59.8,1,59.6v-1.5l8,2.5v1.7l-5,1.5c-0.1,0-0.2,0.1-0.3,0.1
		S3.6,64,3.5,64c0.1,0,0.2,0.1,0.3,0.1c0.1,0,0.2,0.1,0.3,0.1l5,1.5v1.7L1,69.8z"/>
	<path class="st0" d="M1,52.3h1.4v3.3h1.9v-2.5h1.4v2.5h1.9v-3.3H9v5.2H1V52.3z"/>
	<path class="st0" d="M5,44c0.6,0,1.1,0.1,1.6,0.3c0.5,0.2,0.9,0.5,1.3,0.8s0.6,0.8,0.8,1.3C8.9,46.9,9,47.5,9,48.1v3.1H1v-3.1
		c0-0.6,0.1-1.2,0.3-1.7c0.2-0.5,0.5-0.9,0.8-1.3s0.8-0.6,1.3-0.8C3.9,44.1,4.4,44,5,44z M5,45.9c-0.4,0-0.8,0.1-1.1,0.2
		s-0.6,0.3-0.8,0.4c-0.2,0.2-0.4,0.4-0.5,0.7s-0.2,0.6-0.2,1v1.2h5.2v-1.2c0-0.4-0.1-0.7-0.2-1s-0.3-0.5-0.5-0.7
		c-0.2-0.2-0.5-0.3-0.8-0.4S5.4,45.9,5,45.9z"/>
	<path class="st0" d="M1,41.9c0-0.1,0-0.1,0-0.1c0,0,0-0.1,0.1-0.1c0,0,0.1-0.1,0.1-0.1l4.8-3.8c-0.2,0-0.3,0-0.4,0
		c-0.1,0-0.3,0-0.4,0H1v-1.6h8v1c0,0.1,0,0.3-0.1,0.4c0,0.1-0.1,0.2-0.2,0.3l-4.8,3.8c0.1,0,0.3,0,0.4,0c0.1,0,0.3,0,0.4,0H9v1.6H1
		v-1C1,42,1,41.9,1,41.9z"/>
	<path class="st0" d="M1,29.6h1.4v3.3h1.9v-2.5h1.4v2.5h1.9v-3.3H9v5.2H1V29.6z"/>
	<path class="st0" d="M2.6,24.1c0.1,0.1,0.2,0.1,0.2,0.2s0.1,0.1,0.1,0.2c0,0.1,0,0.2-0.1,0.3c-0.1,0.1-0.1,0.2-0.2,0.3
		c-0.1,0.1-0.1,0.3-0.2,0.4c-0.1,0.2-0.1,0.3-0.1,0.5c0,0.3,0.1,0.6,0.2,0.8c0.1,0.2,0.3,0.3,0.6,0.3c0.2,0,0.3-0.1,0.4-0.2
		c0.1-0.1,0.2-0.2,0.3-0.4c0.1-0.2,0.1-0.4,0.2-0.6c0.1-0.2,0.1-0.4,0.2-0.7s0.2-0.4,0.3-0.7c0.1-0.2,0.2-0.4,0.4-0.6
		s0.4-0.3,0.6-0.4s0.5-0.2,0.9-0.2c0.4,0,0.7,0.1,1,0.2c0.3,0.1,0.6,0.3,0.8,0.6s0.4,0.5,0.6,0.9s0.2,0.8,0.2,1.2
		c0,0.3,0,0.5-0.1,0.8c-0.1,0.3-0.1,0.5-0.2,0.8s-0.2,0.5-0.3,0.7C8.3,28.8,8.2,29,8,29.1l-0.9-0.5c-0.1,0-0.1-0.1-0.2-0.2
		C7,28.3,7,28.2,7,28.2c0-0.1,0-0.2,0.1-0.3c0.1-0.1,0.1-0.2,0.2-0.4c0.1-0.1,0.2-0.3,0.2-0.5c0.1-0.2,0.1-0.4,0.1-0.6
		c0-0.3-0.1-0.6-0.2-0.8c-0.1-0.2-0.4-0.3-0.7-0.3c-0.2,0-0.3,0.1-0.5,0.2c-0.1,0.1-0.2,0.2-0.3,0.4s-0.1,0.4-0.2,0.6
		S5.6,26.8,5.5,27c-0.1,0.2-0.2,0.4-0.3,0.7S5,28.1,4.9,28.3s-0.4,0.3-0.6,0.4s-0.6,0.2-0.9,0.2c-0.3,0-0.6-0.1-0.9-0.2
		c-0.3-0.1-0.5-0.3-0.8-0.5c-0.2-0.2-0.4-0.5-0.5-0.9c-0.1-0.3-0.2-0.7-0.2-1.2c0-0.2,0-0.5,0.1-0.7c0-0.2,0.1-0.5,0.2-0.7
		s0.2-0.4,0.3-0.6s0.2-0.3,0.4-0.5L2.6,24.1z"/>
	<path class="st0" d="M5,15.3c0.6,0,1.1,0.1,1.6,0.3c0.5,0.2,0.9,0.5,1.3,0.8s0.6,0.8,0.8,1.3C8.9,18.3,9,18.8,9,19.5v3.1H1v-3.1
		c0-0.6,0.1-1.2,0.3-1.7c0.2-0.5,0.5-0.9,0.8-1.3s0.8-0.6,1.3-0.8C3.9,15.4,4.4,15.3,5,15.3z M5,17.2c-0.4,0-0.8,0.1-1.1,0.2
		s-0.6,0.3-0.8,0.4c-0.2,0.2-0.4,0.4-0.5,0.7s-0.2,0.6-0.2,1v1.2h5.2v-1.2c0-0.4-0.1-0.7-0.2-1S7.1,18,6.9,17.8
		c-0.2-0.2-0.5-0.3-0.8-0.4S5.4,17.2,5,17.2z"/>
	<path class="st0" d="M9,7.3v1.4C9,8.9,9,9,8.9,9.1S8.7,9.3,8.6,9.3L7.2,9.8v3l1.4,0.5c0.1,0,0.2,0.1,0.3,0.2C9,13.7,9,13.8,9,13.9
		v1.5l-8-3.1v-1.9L9,7.3z M5.9,12.4v-2.2L3.7,11c-0.1,0-0.3,0.1-0.5,0.2c-0.2,0.1-0.4,0.1-0.6,0.2c0.2,0.1,0.4,0.1,0.6,0.2
		s0.4,0.1,0.5,0.2L5.9,12.4z"/>
	<path class="st0" d="M6,3.7h3v1.9H6L1,8.5V6.9c0-0.2,0-0.3,0.1-0.4s0.2-0.2,0.3-0.2l2.3-1.1C3.9,5,4.1,4.9,4.2,4.9
		c0.2-0.1,0.3-0.1,0.5-0.2C4.6,4.6,4.4,4.5,4.2,4.5C4.1,4.4,3.9,4.3,3.7,4.2L1.4,3.1c0,0-0.1-0.1-0.1-0.1c0,0-0.1-0.1-0.1-0.1
		c0,0-0.1-0.1-0.1-0.2c0-0.1,0-0.1,0-0.2V0.8L6,3.7z"/>
</g>
</svg>
