<svg xmlns="http://www.w3.org/2000/svg" viewBox="0 0 326.12 201"><defs><style>.cls-1{opacity:0.3;}.cls-2{fill:#fff;}</style></defs><title>contact-tree</title><g id="Layer_2" data-name="Layer 2"><g id="Layer_1-2" data-name="Layer 1"><g class="cls-1"><path class="cls-2" d="M142.52,164.87c-17.52,9.41-10.78,22.47-10.71,22.6l.4.74.77.34a14.38,14.38,0,0,0,5.54,1c.46,0,.93,0,1.43-.06,3.58-.32,8.8-2.06,13.34-8.49,8.57-12.13,1-25.2.7-25.75l-2.77-4.68-1.71,5.16C149.49,155.84,147.23,162.34,142.52,164.87Z"/><path class="cls-2" d="M15.56,114.27c3.24,12.45,10.87,14.14,14.78,14.14a10.84,10.84,0,0,0,2.39-.23l.72-.19.46-.59a13.1,13.1,0,0,0,2.29-5.78c.47-3.14.07-8-4.51-13.22-8.63-9.87-21.41-6.13-21.95-6l-4.56,1.39,4,2.54C9.26,106.4,14.36,109.66,15.56,114.27Z"/><path class="cls-2" d="M25.62,163.93l.53-.47.14-.7c0-.12,2.21-12.31-14.22-15.53-4.46-.88-7.85-5.55-7.89-5.59l-2.66-3.73L.47,142.38c-.13.52-3,12.9,6.94,20.55a16.5,16.5,0,0,0,10.14,3.8A12.57,12.57,0,0,0,25.62,163.93Z"/><path class="cls-2" d="M82.33,180.32c5,13.21,14.91,16.56,21.1,16.56a14.69,14.69,0,0,0,2.45-.19l1.1-.19.76-.82c.13-.14,13.1-14.66-6.25-32.51-5.24-4.85-6-13.9-6-14L95.05,142,90,147.08C89.36,147.68,75.38,161.92,82.33,180.32Z"/><path class="cls-2" d="M284.3,160.56c-.78-.37-19.41-8.82-34.66,4.35-8.09,7-9.74,14.26-9.71,19.14a20.11,20.11,0,0,0,2.24,9.28l.57,1,1.06.44a18.93,18.93,0,0,0,6.52,1.08c6.39,0,16.08-2.94,22.58-18.53,2.82-6.75,11.28-10.61,11.35-10.65l6.74-3Z"/><path class="cls-2" d="M264.16,50.65c.3-.53,7.16-13-1.16-24.29-4.41-6-9.37-7.53-12.76-7.76a14,14,0,0,0-6.56,1.06L243,20l-.36.71c-.06.12-6.18,12.59,10.55,21.13,4.53,2.31,6.75,8.39,6.78,8.45l1.71,4.84Z"/><path class="cls-2" d="M63.93,92a20.85,20.85,0,0,0,9.33,2.38A15.18,15.18,0,0,0,85.12,89l.51-.66v-.83c0-.15-.26-14.63-19.85-14.63h-.06c-5.32,0-10.29-4.59-10.33-4.63l-3.9-3.68-.21,5.36C51.24,70.58,50.81,85.46,63.93,92Z"/><path class="cls-2" d="M276,72.21c5.11,2.83,9.41,3.85,13,3.85a16,16,0,0,0,13.64-7.34l.44-.79-.14-.89a15.91,15.91,0,0,0-3.18-6.85c-2.37-3-7-6.73-15.41-7.09-15.92-.66-23.3,13.73-23.61,14.34l-2.59,5.18,5.62-1.43C263.82,71.19,271,69.42,276,72.21Z"/><path class="cls-2" d="M117.94,131.75c1.09,0,1.79-.07,1.92-.08l5.8-.59-4.26-4c-.05-.05-5.37-5.17-5.71-10.89-1.3-21.29-17-20.59-17.2-20.58l-.9.05-.68.59a15.89,15.89,0,0,0-4.08,6.35c-1.29,3.63-1.95,9.49,2.28,16.81C101.55,130.58,113.32,131.75,117.94,131.75Z"/><path class="cls-2" d="M53.24,125.85c-11.13,6.72-11.09,16.66-9.52,21l.31.84.76.48a15.61,15.61,0,0,0,7.59,1.92c4.84,0,11.29-2.24,17.19-11.57,3.07-4.85,10.12-6.71,10.18-6.73l5.6-1.42-4.76-3.29C80,126.67,66.76,117.69,53.24,125.85Z"/><path class="cls-2" d="M168.66,29.63c-9.76,3.29-11.44,11-11,14.58l.09.7.5.5a12.53,12.53,0,0,0,8.21,3.08c3.45,0,7.79-1.44,12.6-6.28,3.2-3.22,9-3.45,9-3.45l4.57-.14-3.11-3.36C189.23,34.87,180.51,25.64,168.66,29.63Z"/><path class="cls-2" d="M124.7,19.34C128.46,34.81,138,36.8,142.63,36.8a12.82,12.82,0,0,0,2.64-.24l.88-.21.57-.71a15.9,15.9,0,0,0,2.89-7c.63-3.8.24-9.69-5.22-16.14C134.1.37,118.51,4.67,117.85,4.86l-5.6,1.61,4.89,3.16C117.2,9.68,123.34,13.78,124.7,19.34Z"/><path class="cls-2" d="M123.29,56.86c4.22,2.53,7.77,3.43,10.69,3.43a12.72,12.72,0,0,0,10.54-5.46l.37-.62-.08-.72c-.43-3.66-4-10.79-14.39-11.59-12.65-1-18.89,10.26-19.15,10.74l-2.21,4.07,4.52-1C113.63,55.71,119.38,54.52,123.29,56.86Z"/><path class="cls-2" d="M231.21,88l-6.11,1.3c-.72.15-17.63,3.94-21.22,20.62-3,13.74,4.89,21.07,9.45,23l.89.38.94-.24c.16,0,16.44-4.5,10.77-26.64-1.54-6,2.22-12.92,2.25-13Z"/><path class="cls-2" d="M170,129.91c-12.64-1-18.89,10.27-19.15,10.75l-2.21,4.07,4.52-1c.06,0,5.8-1.2,9.71,1.14,4.22,2.53,7.78,3.43,10.7,3.43a12.72,12.72,0,0,0,10.54-5.46l.37-.62-.08-.71C183.92,137.84,180.36,130.7,170,129.91Z"/><path class="cls-2" d="M300,144.58c4.66,2.95,8.59,4,11.81,4a13.71,13.71,0,0,0,11.13-5.62l.42-.66-.07-.77a13.65,13.65,0,0,0-2.38-6c-1.88-2.72-5.63-6.11-12.83-6.84-13.59-1.37-20.62,10.56-20.91,11.07L284.68,144l4.87-.93C289.61,143.07,295.81,141.93,300,144.58Z"/><path class="cls-2" d="M227.32,0a13,13,0,0,0,1.77,13l.49.54.72.13a9.66,9.66,0,0,0,1.66.13,13.68,13.68,0,0,0,4.41-.74c2.94-1,7-3.54,9.47-9.9A19.76,19.76,0,0,0,246.78,0Z"/><path class="cls-2" d="M53.67,201a17.27,17.27,0,0,0,2.45-8.41l0-1-.63-.76a17.36,17.36,0,0,0-6.83-4.61c-3.93-1.5-10.31-2.36-18.4,2.07A25.66,25.66,0,0,0,18.74,201Z"/><path class="cls-2" d="M174.71,201h41.52c-3.44-4.91-10.54-10.17-25-8.27-6.86.91-14.05-4.19-14.12-4.24l-5.65-4.1.63,7A34.86,34.86,0,0,0,174.71,201Z"/><path class="cls-2" d="M85.42,112.69A36.29,36.29,0,0,0,92,123.92a43,43,0,0,1-2.86-5.75,37.52,37.52,0,0,1-1.94-6,20.45,20.45,0,0,1,.43-11.91,17.55,17.55,0,0,1,7.56-8.58A33.2,33.2,0,0,1,100.64,89a39.82,39.82,0,0,1,5.81-1.76,46.44,46.44,0,0,1,24,1.41A76.81,76.81,0,0,1,152.27,100a134.74,134.74,0,0,1,18.63,16.61,197.11,197.11,0,0,1,15.94,19.49q7,9.75,13.21,20.11c3.31,7.92,6.88,15.69,10.6,23.35q5.27,10.8,10.7,21.42h16.11c-.16-.47-.32-.93-.46-1.4a79.19,79.19,0,0,1-3.7-27.92A61.5,61.5,0,0,1,241.12,145a69.55,69.55,0,0,1,3.75-6,63.16,63.16,0,0,1,4.4-5.54,80.24,80.24,0,0,1,10.52-9.78c3.82-3,7.89-5.78,12.08-8.46s8.52-5.29,12.83-8.05A104.67,104.67,0,0,0,297.31,98a41.87,41.87,0,0,0,10.14-12.51,33.33,33.33,0,0,0,3.51-15.7,31.29,31.29,0,0,0-1-8A21.72,21.72,0,0,0,300.64,49a27.89,27.89,0,0,0-7.13-3.22,40.37,40.37,0,0,0-15.16-1.42,44.29,44.29,0,0,1,7.49.82A37.64,37.64,0,0,1,293,47.23a22.58,22.58,0,0,1,11,8.86,23,23,0,0,1,2.87,13.57,29.52,29.52,0,0,1-4,13.34,37.77,37.77,0,0,1-9.47,10.32,108.88,108.88,0,0,1-12.29,8c-8.63,5-17.77,9.65-26.28,15.79a88.7,88.7,0,0,0-12,10.35,72.06,72.06,0,0,0-5.26,6.11,74.78,74.78,0,0,0-4.54,6.67,71.32,71.32,0,0,0-10,30.62c-.1,1.13-.18,2.26-.23,3.39-2.06-3.8-4.15-7.59-6.34-11.33-.93-1.59-1.89-3.18-2.85-4.76A236.84,236.84,0,0,1,199,122.91a122.07,122.07,0,0,1-5.41-26.85,81.06,81.06,0,0,1,2.16-26.94,78.24,78.24,0,0,1,11.32-24.72,79.06,79.06,0,0,1,19.26-19.57,59.12,59.12,0,0,1,12.06-6.66,38.4,38.4,0,0,1,6.54-2,25.17,25.17,0,0,1,3.35-.46c.55,0,1.11,0,1.7,0s1.16,0,1.74,0a31.72,31.72,0,0,1,13.42,3A18,18,0,0,1,270.6,23a14,14,0,0,1,3.17,6.22,14.24,14.24,0,0,0-2.7-6.59,18.92,18.92,0,0,0-5.35-4.89,32.81,32.81,0,0,0-13.85-4.28c-.6-.08-1.21-.1-1.81-.16s-1.22-.09-1.85-.09a27.79,27.79,0,0,0-3.73.24,39.27,39.27,0,0,0-7.19,1.68A62.78,62.78,0,0,0,224,21.37,81.64,81.64,0,0,0,202.38,41a83,83,0,0,0-13.67,26.13,88.77,88.77,0,0,0-3.81,29.42,128.78,128.78,0,0,0,3.93,26.78c-3.73-4.4-7.64-8.66-11.76-12.72l-.1-.1a207.27,207.27,0,0,1-15.74-27.63,115.54,115.54,0,0,1-5.88-15.7,65.72,65.72,0,0,1-2.65-16.32,41.49,41.49,0,0,1,2.67-16,36.25,36.25,0,0,1,9.25-13.46,51.67,51.67,0,0,1,14.05-9.2A69.07,69.07,0,0,1,195,7a56.62,56.62,0,0,0-8.57,1.23,63.58,63.58,0,0,0-8.37,2.38,58.17,58.17,0,0,0-8,3.58,44.85,44.85,0,0,0-7.36,4.92,39.73,39.73,0,0,0-11,14.09,44.48,44.48,0,0,0-3.88,17.59,71,71,0,0,0,2,17.77,111.7,111.7,0,0,0,5.51,16.82c1.55,3.76,3.25,7.44,5.08,11-1.28-.91-2.56-1.8-3.88-2.66a83.61,83.61,0,0,0-24.35-11.14,57.75,57.75,0,0,0-13.43-1.89,47.74,47.74,0,0,0-13.5,1.66,40,40,0,0,0-12.38,5.67,23.43,23.43,0,0,0-5.1,4.81,18.61,18.61,0,0,0-3.21,6.3,19.61,19.61,0,0,0-.62,6.91A25.51,25.51,0,0,0,85.42,112.69Zm137.37,61.69q0,.55,0,1.1l-.46-.84Z"/><path class="cls-2" d="M306.19,121.07a30.56,30.56,0,0,0-8.09,1.76,25.82,25.82,0,0,0-7.14,4,20.54,20.54,0,0,0-5.24,6.09,20.85,20.85,0,0,1,5.79-5.32,24.42,24.42,0,0,1,7.14-3,30.45,30.45,0,0,1,7.64-.84,21.31,21.31,0,0,1,3.73.34,22,22,0,0,1,3.58,1,32.09,32.09,0,0,1,12.17,8.53l.33.38v-6.51a36.55,36.55,0,0,0-3.66-2.41,32,32,0,0,0-7.82-3.28,25.23,25.23,0,0,0-4.2-.74A23.58,23.58,0,0,0,306.19,121.07Z"/><path class="cls-2" d="M133.34,199.14a50.06,50.06,0,0,1-5.8-6,33.29,33.29,0,0,1-7.27-14.57,31.31,31.31,0,0,1,1.28-16.41,52.8,52.8,0,0,1,8.26-14.91,75,75,0,0,1,12.05-12.41,75.55,75.55,0,0,0-12.92,11.7,54.45,54.45,0,0,0-9.5,14.83,37.64,37.64,0,0,0-2.43,8.65,31.64,31.64,0,0,0-.07,9.11,33.75,33.75,0,0,0,2.48,8.82,42.09,42.09,0,0,0,4.55,7.93,56,56,0,0,0,4.15,5.08h7.46C134.84,200.39,134.07,199.78,133.34,199.14Z"/><path class="cls-2" d="M10,198.69a19.72,19.72,0,0,1-1.61-5.91,19,19,0,0,1,.24-6,18.24,18.24,0,0,1,2.15-5.57,23.28,23.28,0,0,1,6-6.52,13,13,0,0,1,2.5-1.38,15.64,15.64,0,0,1,5.6-1.14,33,33,0,0,1,11.56,2.17,81.34,81.34,0,0,1,11,5c3.58,1.9,7.07,4,10.51,6.16.62.4,1.24.81,1.86,1.21l1.26,1.08c.36.31.72.63,1.09.93l1.14.86L67.93,193c1.57,1.08,3.16,2.12,4.75,3.18.8.52,1.58,1.07,2.39,1.57l2.45,1.45L80.62,201H95.29c-3.31-1.45-6.55-3-9.79-4.67l-3.82-2.08.11-.17c-5.32-3.4-10.69-6.76-16.17-9.94-.35-.26-.69-.54-1-.81l-2.14-1.69c-.71-.57-1.43-1.12-2.14-1.69l-2-1.82A66.15,66.15,0,0,1,44.65,161.5a47.78,47.78,0,0,1-4.19-9.87,48.34,48.34,0,0,1-1.14-5.26L39.11,145a10.37,10.37,0,0,1-.16-1.34l-.18-2.7a49.48,49.48,0,0,1,.89-10.83,59,59,0,0,1,3.17-10.52,65.92,65.92,0,0,1,5-9.88,67.06,67.06,0,0,1,6.58-9,62.3,62.3,0,0,0-7.29,8.53A67.14,67.14,0,0,0,41.35,119a60.6,60.6,0,0,0-4,10.65A52.18,52.18,0,0,0,35.75,141l0,2.9a11.76,11.76,0,0,0,.09,1.45l.14,1.44a48.6,48.6,0,0,0,.94,5.73,51.71,51.71,0,0,0,4,10.91,62.26,62.26,0,0,0,7.72,11.84,83.26,83.26,0,0,0-11.17-4.16,35.76,35.76,0,0,0-12.72-1.55,18,18,0,0,0-6.35,1.71,15.11,15.11,0,0,0-2.79,1.78,21.77,21.77,0,0,0-2.32,2.24,23.5,23.5,0,0,0-3.64,5.23,19.35,19.35,0,0,0-1.85,6.06A19.64,19.64,0,0,0,8,192.85,19.93,19.93,0,0,0,10,198.69Z"/><path class="cls-2" d="M326.12,30.48a20.55,20.55,0,0,0-10,6.22c-5,5.54-5.46,10.71-5,14.07A14,14,0,0,0,313.47,57l.48.64.77.21a11.81,11.81,0,0,0,2.74.29,14.06,14.06,0,0,0,8.66-2.93Z"/></g></g></g></svg>