<svg xmlns="http://www.w3.org/2000/svg" viewBox="0 0 179.51 43.86">
    <path class="logo__text" d="M7.33 29.16a2.16 2.16 0 0 0-.4-.12h-.27a.89.89 0 0 0-.82.41 2.07 2.07 0 0 0-.25 1.1 2.46 2.46 0 0 0 0 .43 2.35 2.35 0 0 0 .07.32h1.47v1.67H5.68V39.91c0 .24 0 .42.06.55H3.1q0-.2.06-.55t0-.8v-1-5.17H2.11v-1.67h1.14a8.23 8.23 0 0 1 .18-1.82A2.54 2.54 0 0 1 4 28.4a3.35 3.35 0 0 1 2.69-1.05h.3a1.55 1.55 0 0 1 .39.06zM7.39 35.84a6.2 6.2 0 0 1 .24-1.7 4.93 4.93 0 0 1 .74-1.54 4 4 0 0 1 1.23-1.11 3.38 3.38 0 0 1 1.74-.49 3.38 3.38 0 0 1 1.74.44 4 4 0 0 1 1.23 1.12 4.92 4.92 0 0 1 .73 1.54 6 6 0 0 1 0 3.4 4.93 4.93 0 0 1-.73 1.53 4 4 0 0 1-1.23 1.12 3.39 3.39 0 0 1-1.74.44 3.39 3.39 0 0 1-1.74-.39 4 4 0 0 1-1.23-1.12 4.94 4.94 0 0 1-.74-1.53 6.17 6.17 0 0 1-.24-1.71zm5.23 0a6.85 6.85 0 0 0-.31-2.26q-.31-.86-1-.86t-1 .86a6.84 6.84 0 0 0-.31 2.26 6.84 6.84 0 0 0 .31 2.26q.31.86 1 .86t1-.86a6.85 6.85 0 0 0 .3-2.26zM19 31.27a5.61 5.61 0 0 1 .15.72 4.32 4.32 0 0 1 .06.59 3.74 3.74 0 0 1 1.14-1.13A3.13 3.13 0 0 1 22 31v2.14h-.23a2.14 2.14 0 0 0-.37 0 1.67 1.67 0 0 0-1.38.67 2.09 2.09 0 0 0-.38.72 6.38 6.38 0 0 0-.28 1.74v3.63c0 .24 0 .42.06.55H16.7q0-.2.06-.55t0-.8v-1-3.49-1q0-.49-.06-1 0-.44-.1-.8a5.38 5.38 0 0 0-.11-.55zM30.8 27.46q-.09.85-.11 2.41t0 4.06V38q0 1.57.11 2.41h-2.94q.09-.85.11-2.41t0-4.07v-4.06q0-1.56-.11-2.41zM34.83 31.27a7.79 7.79 0 0 1 .25 1 3.28 3.28 0 0 1 .92-.87 2.43 2.43 0 0 1 1.31-.4 2.38 2.38 0 0 1 1.14.25 2.09 2.09 0 0 1 .76.69 3 3 0 0 1 .42 1 5.15 5.15 0 0 1 .13 1.15V39.83c0 .24 0 .42.06.55h-2.63q0-.2.06-.55t0-.8v-1-3.24a2.9 2.9 0 0 0-.23-1.33.79.79 0 0 0-.75-.41 1.19 1.19 0 0 0-.77.29 1.06 1.06 0 0 0-.35.87v5.67q0 .35.06.55h-2.56q0-.2.06-.55t0-.8v-1-4.29-.87l-.02-.92a5.39 5.39 0 0 0-.15-.76zM44.41 28.51a3.06 3.06 0 0 0-.05.45v2.34h1.49v1.67h-1.53v4.25a6.44 6.44 0 0 0 0 .85 1.8 1.8 0 0 0 .14.52.52.52 0 0 0 .25.26 1 1 0 0 0 .4.07h.34l.34-.05v1.49a5.42 5.42 0 0 1-.91.24 5.57 5.57 0 0 1-1 .09 2.19 2.19 0 0 1-1.1-.24 1.52 1.52 0 0 1-.62-.65 3 3 0 0 1-.27-1 12.8 12.8 0 0 1-.06-1.34v-4.52h-1.05v-1.67h1.11V29.8v-.78a3.8 3.8 0 0 0-.05-.51zM49.22 37a3.13 3.13 0 0 0 .23.7 2.34 2.34 0 0 0 .38.59 1.81 1.81 0 0 0 .53.41 1.43 1.43 0 0 0 .66.15 2.09 2.09 0 0 0 1-.25 4.88 4.88 0 0 0 .92-.61l.87 1a5 5 0 0 1-1.47 1.14 4.12 4.12 0 0 1-2 .47 3.46 3.46 0 0 1-1.52-.34 3.91 3.91 0 0 1-1.25-1 4.62 4.62 0 0 1-.85-1.46 5.38 5.38 0 0 1-.33-1.8 6.56 6.56 0 0 1 .26-1.87 4.93 4.93 0 0 1 .77-1.57 3.85 3.85 0 0 1 1.25-1.09A3.52 3.52 0 0 1 50.4 31a3.14 3.14 0 0 1 1.49.34 2.71 2.71 0 0 1 1 .92 4.41 4.41 0 0 1 .54 1.36 9.67 9.67 0 0 1 .27 1.76zm1.29-2.16a1.45 1.45 0 0 0 .64-.36.74.74 0 0 0 .14-.45A2.05 2.05 0 0 0 51 33a.85.85 0 0 0-.79-.47.82.82 0 0 0-.56.21 1.7 1.7 0 0 0-.4.55 2.94 2.94 0 0 0-.24.78A5.36 5.36 0 0 0 49 35v.24a.91.91 0 0 0 0 .18zM61.47 31.07l.67.49a11.25 11.25 0 0 0-.27 1.91q-.05 1-.05 1.94t0 2.31v2.5a5 5 0 0 1-.23 1.7 2.39 2.39 0 0 1-.74 1 3.6 3.6 0 0 1-1.51.74 7.12 7.12 0 0 1-1.54.18h-.93c-.3 0-.6-.07-.87-.12l-.74-.15-.52-.11.56-2.18a3.18 3.18 0 0 0 1 .64 3.74 3.74 0 0 0 1.44.28 1.37 1.37 0 0 0 1.26-.5 2 2 0 0 0 .35-1.18v-.26V40a3.1 3.1 0 0 1-.77.33 3.31 3.31 0 0 1-.92.13 2.83 2.83 0 0 1-1.22-.27 3.08 3.08 0 0 1-1-.8 3.88 3.88 0 0 1-.72-1.3 5.54 5.54 0 0 1-.26-1.79 6.77 6.77 0 0 1 .29-2 5.49 5.49 0 0 1 .82-1.67 4.31 4.31 0 0 1 1.24-1.15 3 3 0 0 1 1.56-.48 3.44 3.44 0 0 1 1 .16 3 3 0 0 1 1.09.63zm-2.09 3.34a3.81 3.81 0 0 0-.17-1.34.67.67 0 0 0-.68-.42 1.07 1.07 0 0 0-.7.25 1.81 1.81 0 0 0-.49.66 4.07 4.07 0 0 0-.29 1 7.26 7.26 0 0 0-.1 1.23 6.89 6.89 0 0 0 .05 1.15 3.19 3.19 0 0 0 .29.93 1.72 1.72 0 0 0 .51.62 1.25 1.25 0 0 0 .76.23 1.28 1.28 0 0 0 .45-.08.44.44 0 0 0 .27-.21.36.36 0 0 0 0-.11v-.24-3.67zM66 31.27a5.61 5.61 0 0 1 .15.72 4.32 4.32 0 0 1 .06.59 3.74 3.74 0 0 1 1.14-1.13 3.13 3.13 0 0 1 1.65-.4v2.14h-.23a2.14 2.14 0 0 0-.37 0 1.67 1.67 0 0 0-1.38.67 2.09 2.09 0 0 0-.38.72 6.38 6.38 0 0 0-.28 1.74v3.63c0 .24 0 .42.06.55h-2.7q0-.2.06-.55t0-.8v-1-3.54-1q0-.49-.06-1 0-.44-.1-.8a5.38 5.38 0 0 0-.11-.55zM74.34 40.42a3.6 3.6 0 0 1-.19-.36l-.15-.28a6.33 6.33 0 0 1-1 .59 2.61 2.61 0 0 1-1.18.26 3 3 0 0 1-.94-.15 2.58 2.58 0 0 1-.86-.48 2.47 2.47 0 0 1-.64-.83 2.78 2.78 0 0 1-.24-1.22 3 3 0 0 1 .32-1.42 3.34 3.34 0 0 1 .92-1.08 5.79 5.79 0 0 1 1.43-.81 15.86 15.86 0 0 1 1.93-.64 2.16 2.16 0 0 0-.49-1 1.25 1.25 0 0 0-1-.37 3.06 3.06 0 0 0-1.2.25 6.59 6.59 0 0 0-1.05.55v-2.29l.63-.06h.66a11 11 0 0 1 2.49.23 3.15 3.15 0 0 1 1.56.86 2.61 2.61 0 0 1 .54.76 4.15 4.15 0 0 1 .28.83 4.93 4.93 0 0 1 .11.81v2.97a10.75 10.75 0 0 0 .12 1.62 7 7 0 0 0 .3 1.28zm-.45-4.72a3.52 3.52 0 0 0-.71.16 2.49 2.49 0 0 0-.71.37 2.11 2.11 0 0 0-.54.61 1.66 1.66 0 0 0-.22.87 1.17 1.17 0 0 0 .32.86 1.09 1.09 0 0 0 .81.32 1.43 1.43 0 0 0 .63-.14 1.36 1.36 0 0 0 .43-.3zM81 28.51a3.06 3.06 0 0 0 0 .49v2.34h1.49v1.67h-1.55v4.25A6.44 6.44 0 0 0 81 38a1.8 1.8 0 0 0 .14.52.52.52 0 0 0 .25.26 1 1 0 0 0 .4.07h.34l.34-.05v1.49a5.42 5.42 0 0 1-.91.24 5.57 5.57 0 0 1-1 .09 2.19 2.19 0 0 1-1.1-.24 1.52 1.52 0 0 1-.62-.65 3 3 0 0 1-.27-1 12.8 12.8 0 0 1-.06-1.34v-4.45H77.4v-1.67h1.11V29.8v-.78a3.8 3.8 0 0 0-.05-.51zM85.84 37a3.13 3.13 0 0 0 .23.7 2.34 2.34 0 0 0 .38.59 1.81 1.81 0 0 0 .53.41 1.43 1.43 0 0 0 .66.15 2.09 2.09 0 0 0 1-.25 4.88 4.88 0 0 0 .92-.61l.87 1a5 5 0 0 1-1.47 1.14 4.12 4.12 0 0 1-2 .47 3.46 3.46 0 0 1-1.52-.34 3.91 3.91 0 0 1-1.25-1 4.62 4.62 0 0 1-.85-1.46A5.38 5.38 0 0 1 83 36a6.56 6.56 0 0 1 .26-1.87 4.93 4.93 0 0 1 .74-1.58 3.85 3.85 0 0 1 1.25-1.09A3.52 3.52 0 0 1 87 31a3.14 3.14 0 0 1 1.49.34 2.71 2.71 0 0 1 1 .92 4.41 4.41 0 0 1 .54 1.36 9.67 9.67 0 0 1 .27 1.76zm1.29-2.16a1.45 1.45 0 0 0 .64-.36.74.74 0 0 0 .14-.45 2.05 2.05 0 0 0-.26-1 .85.85 0 0 0-.79-.47.82.82 0 0 0-.56.21 1.7 1.7 0 0 0-.4.55 2.94 2.94 0 0 0-.24.78 5.36 5.36 0 0 0-.07.89v.24a.91.91 0 0 0 0 .18zM96.06 29.29v-.39-1.03-.42h2.58q0 1-.07 1.74t-.05 1.38V35.04q0 .79.06 1.64t.08 1.63q0 .77.11 1.35a4.49 4.49 0 0 0 .14.8h-2.54l-.06-.29c0-.13-.06-.27-.1-.4a6.58 6.58 0 0 1-.91.63 2.37 2.37 0 0 1-1.2.28 2.71 2.71 0 0 1-2.23-1.12 4 4 0 0 1-.62-1.29 6 6 0 0 1-.25-1.7 7.31 7.31 0 0 1 .27-2 6.12 6.12 0 0 1 .8-1.77 4.45 4.45 0 0 1 1.3-1.29 3.21 3.21 0 0 1 1.79-.5 3.25 3.25 0 0 1 .48 0l.39.07zm0 3.94a1.45 1.45 0 0 0 0-.28.27.27 0 0 0-.07-.14.72.72 0 0 0-.53-.16 1.21 1.21 0 0 0-.77.28 2.34 2.34 0 0 0-.61.77 4.66 4.66 0 0 0-.4 1.15 6.56 6.56 0 0 0-.15 1.41 3.46 3.46 0 0 0 .41 1.84 1.23 1.23 0 0 0 1.08.64 1.16 1.16 0 0 0 .61-.18 1.08 1.08 0 0 0 .44-.56zM108 27.46v5.24h3v-.79-.81-.93-1-1-.71h2.92q-.09.85-.11 2.41t0 4.06V38q0 1.57.11 2.41h-2.94q0-.54.08-1.56t0-2.43v-.91-.82h-3.04v4.16q0 1.01.08 1.56h-2.94q.09-.85.11-2.41t0-4.07v-4.06q0-1.56-.11-2.41zM118.07 37a3.13 3.13 0 0 0 .23.7 2.34 2.34 0 0 0 .38.59 1.81 1.81 0 0 0 .53.41 1.43 1.43 0 0 0 .66.15 2.09 2.09 0 0 0 1-.25 4.88 4.88 0 0 0 .92-.61l.87 1a5 5 0 0 1-1.47 1.14 4.12 4.12 0 0 1-2 .47 3.46 3.46 0 0 1-1.52-.34 3.91 3.91 0 0 1-1.25-1 4.62 4.62 0 0 1-.85-1.46 5.38 5.38 0 0 1-.32-1.89 6.56 6.56 0 0 1 .26-1.87 4.93 4.93 0 0 1 .77-1.57 3.85 3.85 0 0 1 1.25-1.09 3.52 3.52 0 0 1 1.72-.41 3.14 3.14 0 0 1 1.49.34 2.71 2.71 0 0 1 1 .92 4.41 4.41 0 0 1 .54 1.36 9.67 9.67 0 0 1 .27 1.76zm1.29-2.16a1.45 1.45 0 0 0 .64-.36.74.74 0 0 0 .14-.45 2.05 2.05 0 0 0-.26-1 .85.85 0 0 0-.79-.47.82.82 0 0 0-.56.21 1.7 1.7 0 0 0-.4.55 2.94 2.94 0 0 0-.24.78 5.36 5.36 0 0 0-.07.89v.24a.91.91 0 0 0 0 .18zM128.4 40.42a3.6 3.6 0 0 1-.19-.36l-.12-.27a6.33 6.33 0 0 1-1 .59 2.61 2.61 0 0 1-1.18.26 3 3 0 0 1-.94-.15 2.58 2.58 0 0 1-.86-.48 2.47 2.47 0 0 1-.64-.83 2.78 2.78 0 0 1-.24-1.22 3 3 0 0 1 .32-1.42 3.34 3.34 0 0 1 .92-1.08 5.79 5.79 0 0 1 1.43-.81 15.86 15.86 0 0 1 1.9-.65 2.16 2.16 0 0 0-.49-1 1.25 1.25 0 0 0-1-.37 3.06 3.06 0 0 0-1.2.25 6.59 6.59 0 0 0-1.05.55v-2.29l.63-.06h.66a11 11 0 0 1 2.49.23 3.15 3.15 0 0 1 1.56.86 2.61 2.61 0 0 1 .54.76 4.15 4.15 0 0 1 .28.83 4.93 4.93 0 0 1 .11.81v2.97a10.75 10.75 0 0 0 .12 1.62 7 7 0 0 0 .3 1.28zm-.45-4.72a3.52 3.52 0 0 0-.71.16 2.49 2.49 0 0 0-.71.37 2.11 2.11 0 0 0-.54.61 1.66 1.66 0 0 0-.22.87 1.17 1.17 0 0 0 .32.86 1.09 1.09 0 0 0 .81.32 1.43 1.43 0 0 0 .63-.14 1.36 1.36 0 0 0 .43-.3zM132.1 40.42q0-.2.06-.55t0-.8v-1-7-.8-1.08-1q0-.45-.06-.71h2.58V39.9c0 .24 0 .42.06.55zM139.47 28.51a3.06 3.06 0 0 0-.05.45v2.34h1.49v1.67h-1.49v4.25a6.44 6.44 0 0 0 0 .85 1.8 1.8 0 0 0 .14.52.52.52 0 0 0 .25.26 1 1 0 0 0 .4.07h.34l.34-.05v1.49a5.42 5.42 0 0 1-.91.24 5.57 5.57 0 0 1-1 .09 2.19 2.19 0 0 1-1.1-.24 1.52 1.52 0 0 1-.62-.65 3 3 0 0 1-.27-1 12.8 12.8 0 0 1-.06-1.34v-4.52h-1.11v-1.67h1.11V29.8v-.78a3.8 3.8 0 0 0-.05-.51zM144.32 31.79a3.88 3.88 0 0 1 1.21-.58 3.92 3.92 0 0 1 1-.16 2.19 2.19 0 0 1 1.22.31 2.15 2.15 0 0 1 .73.81 3.63 3.63 0 0 1 .36 1.12 7.64 7.64 0 0 1 .1 1.22v5.38q0 .35.06.55h-2.72q0-.2.06-.55t0-.8v-1-3.63a2.18 2.18 0 0 0-.28-1.11 1 1 0 0 0-1-.49 1 1 0 0 0-.73.22.38.38 0 0 0-.15.23 1.61 1.61 0 0 0 0 .25V39.88c0 .24 0 .42.06.55h-2.72q0-.2.06-.55t0-.8v-1-7-.8-1.08-1q0-.45-.06-.71h2.58zM156.64 33.41a2.7 2.7 0 0 0-.75-.5 2.14 2.14 0 0 0-.88-.19 1.8 1.8 0 0 0-1.54.78 3.6 3.6 0 0 0-.56 2.14 5.21 5.21 0 0 0 .16 1.35 3.66 3.66 0 0 0 .44 1 2.1 2.1 0 0 0 .69.68 1.71 1.71 0 0 0 .9.25 2.1 2.1 0 0 0 .9-.19 2 2 0 0 0 .7-.54l.78 1a6.18 6.18 0 0 1-1.29.93 3.71 3.71 0 0 1-1.83.44 3.94 3.94 0 0 1-1.41-.27 3.84 3.84 0 0 1-1.3-.83 4.31 4.31 0 0 1-1-1.39 4.78 4.78 0 0 1-.37-2 5.57 5.57 0 0 1 .35-2 4.7 4.7 0 0 1 1-1.63 4.88 4.88 0 0 1 1.68-1.11 6 6 0 0 1 2.29-.41h.5l.48.05zM162.67 40.42a3.6 3.6 0 0 1-.19-.36l-.12-.27a6.33 6.33 0 0 1-1 .59 2.61 2.61 0 0 1-1.18.26 3 3 0 0 1-.94-.15 2.58 2.58 0 0 1-.86-.48 2.47 2.47 0 0 1-.64-.83 2.78 2.78 0 0 1-.24-1.22 3 3 0 0 1 .32-1.42 3.34 3.34 0 0 1 .92-1.08 5.79 5.79 0 0 1 1.43-.81 15.86 15.86 0 0 1 1.87-.61 2.16 2.16 0 0 0-.49-1 1.25 1.25 0 0 0-1-.37 3.06 3.06 0 0 0-1.2.25 6.59 6.59 0 0 0-1.05.55v-2.33l.63-.06h.66a11 11 0 0 1 2.49.23 3.15 3.15 0 0 1 1.56.86 2.61 2.61 0 0 1 .54.76 4.15 4.15 0 0 1 .28.83 4.93 4.93 0 0 1 .11.81v2.97a10.75 10.75 0 0 0 .12 1.62 7 7 0 0 0 .3 1.28zm-.45-4.72a3.52 3.52 0 0 0-.71.16 2.49 2.49 0 0 0-.71.37 2.11 2.11 0 0 0-.54.61 1.66 1.66 0 0 0-.22.87 1.17 1.17 0 0 0 .32.86 1.09 1.09 0 0 0 .81.32 1.43 1.43 0 0 0 .63-.14 1.36 1.36 0 0 0 .43-.3zM168.8 31.27a5.61 5.61 0 0 1 .2.73 4.32 4.32 0 0 1 .06.59 3.74 3.74 0 0 1 1.14-1.13 3.13 3.13 0 0 1 1.65-.4v2.14h-.23a2.14 2.14 0 0 0-.37 0 1.67 1.67 0 0 0-1.38.67 2.09 2.09 0 0 0-.38.72 6.38 6.38 0 0 0-.28 1.74v3.63c0 .24 0 .42.06.55h-2.83q0-.2.06-.55t0-.8v-1-3.55-1q0-.49-.06-1 0-.44-.1-.8a5.38 5.38 0 0 0-.11-.55zM175 37a3.13 3.13 0 0 0 .23.7 2.34 2.34 0 0 0 .38.59 1.81 1.81 0 0 0 .53.41 1.43 1.43 0 0 0 .66.15 2.09 2.09 0 0 0 1-.25 4.88 4.88 0 0 0 .92-.61l.87 1a5 5 0 0 1-1.59 1.17 4.12 4.12 0 0 1-2 .47 3.46 3.46 0 0 1-1.52-.34 3.91 3.91 0 0 1-1.25-1 4.62 4.62 0 0 1-.85-1.46 5.38 5.38 0 0 1-.32-1.89 6.56 6.56 0 0 1 .26-1.87 4.93 4.93 0 0 1 .77-1.57 3.85 3.85 0 0 1 1.25-1.09 3.52 3.52 0 0 1 1.72-.41 3.14 3.14 0 0 1 1.49.34 2.71 2.71 0 0 1 1 .92 4.41 4.41 0 0 1 .54 1.36 9.67 9.67 0 0 1 .27 1.76zm1.29-2.16a1.45 1.45 0 0 0 .64-.36.74.74 0 0 0 .14-.45 2.05 2.05 0 0 0-.26-1 .85.85 0 0 0-.79-.47.82.82 0 0 0-.56.21 1.7 1.7 0 0 0-.4.55 2.94 2.94 0 0 0-.24.78 5.36 5.36 0 0 0-.07.89v.24a.91.91 0 0 0 0 .18zM11.44.34v2.79L10.5 3q-.51-.06-1-.08H7.61q0 .58-.06 1.36t0 1.63v8.52q0 2.08.15 3.22H3.76q.12-1.14.15-3.22T3.93 9V7.52 5.85 4.23 2.87H2q-.53 0-1 .08l-1 .18V1.07.34zM16 6.13a5.18 5.18 0 0 1 1.61-.78 5.25 5.25 0 0 1 1.27-.22 2.92 2.92 0 0 1 1.62.41 2.87 2.87 0 0 1 1 1.08 4.83 4.83 0 0 1 .5 1.5 10.16 10.16 0 0 1 .13 1.62v6.09c0 .39 0 .75.06 1.07s.05.56.08.74h-3.62c0-.18.06-.42.08-.74s0-.67.06-1.07 0-.82 0-1.27V9.7a2.92 2.92 0 0 0-.38-1.48 1.37 1.37 0 0 0-1.3-.65 1.39 1.39 0 0 0-1 .29.51.51 0 0 0-.19.3 2.11 2.11 0 0 0 0 .33v7.35c0 .39 0 .75.06 1.07s.05.56.08.74h-3.52c0-.18.06-.42.08-.74s0-.67.06-1.07 0-.82 0-1.27V5.19 4.12 2.68q0-.74-.06-1.39t-.08-.95H16zM27.59 13.14a4.2 4.2 0 0 0 .3.93 3.15 3.15 0 0 0 .51.79 2.41 2.41 0 0 0 .7.54 1.9 1.9 0 0 0 .89.21 2.78 2.78 0 0 0 1.27-.33 6.52 6.52 0 0 0 1.22-.81l1.16 1.31a6.72 6.72 0 0 1-2 1.53 5.49 5.49 0 0 1-2.62.63 4.62 4.62 0 0 1-2-.46 5.23 5.23 0 0 1-1.67-1.27 6.18 6.18 0 0 1-1.14-2 7.17 7.17 0 0 1-.42-2.52 8.76 8.76 0 0 1 .35-2.5 6.59 6.59 0 0 1 1-2.1 5.18 5.18 0 0 1 1.67-1.46 4.72 4.72 0 0 1 2.3-.54 4.2 4.2 0 0 1 2 .45 3.63 3.63 0 0 1 1.36 1.22 5.89 5.89 0 0 1 .73 1.82 12.91 12.91 0 0 1 .41 2.42zm1.72-2.89a1.93 1.93 0 0 0 .86-.49 1 1 0 0 0 .18-.61A2.75 2.75 0 0 0 30 7.81a1.14 1.14 0 0 0-1-.63 1.1 1.1 0 0 0-.75.28 2.28 2.28 0 0 0-.53.74 3.94 3.94 0 0 0-.32 1 7.18 7.18 0 0 0-.1 1.19v.32a1.23 1.23 0 0 0 0 .24zM41.56 17.65q.12-1.14.15-3.22t0-5.43V3.57q0-2.08-.15-3.23h6.35a7.93 7.93 0 0 1 1.9.23 5.09 5.09 0 0 1 1.66.73 3.68 3.68 0 0 1 1.16 1.3 3.94 3.94 0 0 1 .44 1.92 3.84 3.84 0 0 1-.67 2.13 4.37 4.37 0 0 1-2.19 1.6A5.7 5.7 0 0 1 52.76 10a4.39 4.39 0 0 1 .9 2.84 4.6 4.6 0 0 1-.61 2.35 5.17 5.17 0 0 1-1.62 1.72 4.65 4.65 0 0 1-1.92.64 20.82 20.82 0 0 1-2.52.13zm3.66-12.73v2.3a3 3 0 0 0 .47.07h.52a3.18 3.18 0 0 0 2.25-.69 2.32 2.32 0 0 0 .73-1.76 2.05 2.05 0 0 0-.74-1.73 3.29 3.29 0 0 0-2-.57h-.69a3 3 0 0 0-.5.06v1.2q0 .55-.04 1.12zm0 7.74v2.62h1.56a3.26 3.26 0 0 0 2.22-.6 2.58 2.58 0 0 0 .74-2 2.52 2.52 0 0 0-1-2.21 4.34 4.34 0 0 0-2.56-.68h-.97v1.43zM61.59 17.65a4.63 4.63 0 0 1-.25-.49l-.16-.36a8.39 8.39 0 0 1-1.29.79 3.48 3.48 0 0 1-1.58.35 4.05 4.05 0 0 1-1.26-.21 3.46 3.46 0 0 1-1.15-.64 3.3 3.3 0 0 1-.85-1.09 3.71 3.71 0 0 1-.33-1.62 4.05 4.05 0 0 1 .42-1.9A4.47 4.47 0 0 1 56.37 11a7.72 7.72 0 0 1 1.92-1.08 21.11 21.11 0 0 1 2.5-.81 2.89 2.89 0 0 0-.65-1.35 1.67 1.67 0 0 0-1.29-.5 4.09 4.09 0 0 0-1.6.33 8.89 8.89 0 0 0-1.41.74V5.26l.84-.08h.89a14.71 14.71 0 0 1 3.32.3A4.2 4.2 0 0 1 63 6.6a3.49 3.49 0 0 1 .72 1 5.53 5.53 0 0 1 .38 1.12 6.48 6.48 0 0 1 .15 1.08v3.96a14.29 14.29 0 0 0 .16 2.17 9.39 9.39 0 0 0 .4 1.71zm-.59-6.3a4.68 4.68 0 0 0-.95.22 3.31 3.31 0 0 0-.95.5 2.81 2.81 0 0 0-.73.81 2.22 2.22 0 0 0-.3 1.12 1.56 1.56 0 0 0 .42 1.15 1.46 1.46 0 0 0 1.08.42 1.9 1.9 0 0 0 .84-.18A1.81 1.81 0 0 0 61 15zM75.38 5.17l.9.65a15.1 15.1 0 0 0-.36 2.55q-.07 1.29-.07 2.59t0 3.09v3.33a6.73 6.73 0 0 1-.3 2.27 3.19 3.19 0 0 1-1 1.37 4.8 4.8 0 0 1-2 1 9.5 9.5 0 0 1-2.06.24q-.63 0-1.25-.06t-1.07-.2l-1-.19-.69-.15.75-2.91a4.24 4.24 0 0 0 1.39.86 5 5 0 0 0 1.93.38 1.83 1.83 0 0 0 1.59-.65 2.62 2.62 0 0 0 .47-1.58v-.35-.35a4.17 4.17 0 0 1-1 .44 4.43 4.43 0 0 1-1.22.17 3.77 3.77 0 0 1-1.62-.36 4.13 4.13 0 0 1-1.38-1.07 5.18 5.18 0 0 1-1-1.73 7.39 7.39 0 0 1-.39-2.36 9.05 9.05 0 0 1 .39-2.66 7.37 7.37 0 0 1 1.09-2.23 5.77 5.77 0 0 1 1.66-1.54 4 4 0 0 1 2.1-.58 4.6 4.6 0 0 1 1.31.22 4 4 0 0 1 1.45.85zM72.6 9.63a5.07 5.07 0 0 0-.23-1.79.89.89 0 0 0-.91-.56 1.43 1.43 0 0 0-.93.33 2.42 2.42 0 0 0-.65.88 5.43 5.43 0 0 0-.39 1.33 9.73 9.73 0 0 0-.13 1.65 9.2 9.2 0 0 0 .11 1.53 4.24 4.24 0 0 0 .39 1.24 2.29 2.29 0 0 0 .68.83 1.67 1.67 0 0 0 1 .3 1.7 1.7 0 0 0 .61-.11.59.59 0 0 0 .36-.28.48.48 0 0 0 0-.15v-.32V9.63zM81.06 5.43a10.29 10.29 0 0 1 .34 1.29 4.38 4.38 0 0 1 1.22-1.12 3.25 3.25 0 0 1 1.76-.46 3.19 3.19 0 0 1 1.53.34 2.8 2.8 0 0 1 1 .92 4 4 0 0 1 .56 1.32 6.89 6.89 0 0 1 .17 1.54v6.58c0 .39 0 .75.06 1.07s.05.56.08.74h-3.57c0-.18.06-.42.08-.74s0-.67.06-1.07 0-.82 0-1.27v-4.43a3.87 3.87 0 0 0-.3-1.78 1.06 1.06 0 0 0-1-.55 1.6 1.6 0 0 0-1 .39 1.42 1.42 0 0 0-.47 1.16v6.48c0 .39 0 .75.06 1.07s.05.56.08.74h-3.57c0-.18.06-.42.08-.74s0-.67.06-1.07 0-.82 0-1.27V8.8 7.64q0-.6-.09-1.19a7.16 7.16 0 0 0-.19-1zM96.14 17.65a4.63 4.63 0 0 1-.25-.49l-.16-.36a8.39 8.39 0 0 1-1.29.79 3.48 3.48 0 0 1-1.58.35 4.05 4.05 0 0 1-1.26-.21 3.46 3.46 0 0 1-1.15-.64 3.3 3.3 0 0 1-.84-1.09 3.71 3.71 0 0 1-.33-1.62 4.05 4.05 0 0 1 .42-1.9A4.47 4.47 0 0 1 90.93 11a7.72 7.72 0 0 1 1.92-1.08 21.11 21.11 0 0 1 2.5-.81 2.89 2.89 0 0 0-.65-1.35 1.67 1.67 0 0 0-1.29-.5 4.09 4.09 0 0 0-1.6.33 8.89 8.89 0 0 0-1.41.74V5.26l.84-.08h.89a14.71 14.71 0 0 1 3.32.3 4.2 4.2 0 0 1 2.07 1.12 3.49 3.49 0 0 1 .72 1 5.53 5.53 0 0 1 .38 1.12 6.48 6.48 0 0 1 .15 1.08v3.96a14.29 14.29 0 0 0 .16 2.17 9.39 9.39 0 0 0 .4 1.71zm-.61-6.3a4.68 4.68 0 0 0-.95.22 3.31 3.31 0 0 0-.95.5 2.81 2.81 0 0 0-.73.81 2.22 2.22 0 0 0-.28 1.12 1.56 1.56 0 0 0 .38 1.19 1.46 1.46 0 0 0 1.08.42 1.9 1.9 0 0 0 .84-.18 1.81 1.81 0 0 0 .57-.4zM101.09 17.65c0-.18.06-.42.08-.74s0-.67.06-1.07 0-.82 0-1.27V5.19 4.12 2.68q0-.74-.06-1.39t-.08-.95h3.44v15.5c0 .39 0 .75.06 1.07s.05.56.08.74zM106.93 17.65c0-.18.06-.42.08-.74s0-.67.06-1.07 0-.82 0-1.27V5.19 4.12 2.68q0-.74-.06-1.39t-.08-.95h3.44v15.5c0 .39 0 .75.06 1.07s.05.56.08.74zM130.23 4.44a5.71 5.71 0 0 0-1.6-1.44 3.69 3.69 0 0 0-1.94-.56 3.14 3.14 0 0 0-1.66.45 3.81 3.81 0 0 0-1.26 1.3 6.86 6.86 0 0 0-.8 2.06 12.26 12.26 0 0 0-.28 2.75 10.91 10.91 0 0 0 .29 2.59 7 7 0 0 0 .84 2.06 4.17 4.17 0 0 0 1.32 1.35 3.18 3.18 0 0 0 1.72.48 3.27 3.27 0 0 0 1.77-.48 7.94 7.94 0 0 0 1.24-.92l1.28 1.38a8.07 8.07 0 0 1-2.23 1.84 5.74 5.74 0 0 1-2.84.7 7 7 0 0 1-3.2-.7 7.12 7.12 0 0 1-2.33-1.87 8 8 0 0 1-1.42-2.68 10.48 10.48 0 0 1-.47-3.14 11.26 11.26 0 0 1 .55-3.42 9.79 9.79 0 0 1 1.61-3.09 8.44 8.44 0 0 1 2.65-2.24A7.47 7.47 0 0 1 127.1 0a9.05 9.05 0 0 1 1.42.12 15.13 15.13 0 0 1 1.71.39zM135.32 13.14a4.2 4.2 0 0 0 .3.93 3.15 3.15 0 0 0 .51.79 2.41 2.41 0 0 0 .7.54 1.9 1.9 0 0 0 .89.21 2.78 2.78 0 0 0 1.27-.33 6.52 6.52 0 0 0 1.22-.81l1.16 1.31a6.72 6.72 0 0 1-2 1.53 5.49 5.49 0 0 1-2.62.63 4.62 4.62 0 0 1-2-.46 5.23 5.23 0 0 1-1.67-1.27 6.18 6.18 0 0 1-1.14-2 7.17 7.17 0 0 1-.42-2.52 8.76 8.76 0 0 1 .35-2.5 6.59 6.59 0 0 1 1-2.1 5.18 5.18 0 0 1 1.67-1.46 4.72 4.72 0 0 1 2.3-.54 4.2 4.2 0 0 1 2 .45 3.63 3.63 0 0 1 1.36 1.22 5.89 5.89 0 0 1 .8 1.87 12.91 12.91 0 0 1 .36 2.35zm1.68-2.88a1.93 1.93 0 0 0 .86-.49 1 1 0 0 0 .18-.61 2.75 2.75 0 0 0-.35-1.36 1.14 1.14 0 0 0-1.05-.63 1.1 1.1 0 0 0-.75.28 2.28 2.28 0 0 0-.53.74 3.94 3.94 0 0 0-.32 1 7.18 7.18 0 0 0-.1 1.19v.32a1.23 1.23 0 0 0 0 .24zM145.7 5.43a10.29 10.29 0 0 1 .3 1.29 4.38 4.38 0 0 1 1.22-1.12 3.25 3.25 0 0 1 1.78-.46 3.19 3.19 0 0 1 1.53.34 2.8 2.8 0 0 1 1 .92 4 4 0 0 1 .56 1.32 6.89 6.89 0 0 1 .17 1.54v6.58c0 .39 0 .75.06 1.07s.05.56.08.74h-3.64c0-.18.06-.42.08-.74s0-.67.06-1.07 0-.82 0-1.27v-4.43a3.87 3.87 0 0 0-.3-1.78 1.06 1.06 0 0 0-1-.55 1.6 1.6 0 0 0-1 .39 1.42 1.42 0 0 0-.47 1.16v6.48c0 .39 0 .75.06 1.07s.05.56.08.74h-3.64c0-.18.06-.42.08-.74s0-.67.06-1.07 0-.82 0-1.27V8.8 7.64q0-.6-.11-1.19a7.16 7.16 0 0 0-.19-1zM158.5 1.75a4.2 4.2 0 0 0-.07.61V5.43h2v2.23h-2v5.67a8.58 8.58 0 0 0 .06 1.14 2.4 2.4 0 0 0 .18.69.69.69 0 0 0 .34.35 1.31 1.31 0 0 0 .53.1h.45l.45-.07v2a7.32 7.32 0 0 1-1.21.32 7.52 7.52 0 0 1-1.31.12 2.93 2.93 0 0 1-1.47-.32 2 2 0 0 1-.82-.87 4 4 0 0 1-.36-1.36 17.12 17.12 0 0 1-.08-1.79V7.66h-1.48V5.43h1.48v-2-1a5.19 5.19 0 0 0-.07-.68zM164.93 5.43a7.63 7.63 0 0 1 .21 1 5.89 5.89 0 0 1 .08.79 5 5 0 0 1 1.53-1.5 4.17 4.17 0 0 1 2.25-.58V8l-.3-.06a2.89 2.89 0 0 0-.5 0 2.23 2.23 0 0 0-1.84.9 2.79 2.79 0 0 0-.51 1 8.22 8.22 0 0 0-.27 1.14 8.36 8.36 0 0 0-.11 1.19v3.75c0 .39 0 .75.06 1.07s.05.56.08.74h-3.78c0-.18.06-.42.08-.74s0-.67.06-1.07 0-.82 0-1.27V9.89 8.52q0-.69.03-1.28-.06-.59-.13-1.07a6.87 6.87 0 0 0-.15-.74zM173.17 13.14a4.2 4.2 0 0 0 .3.93 3.15 3.15 0 0 0 .51.79 2.41 2.41 0 0 0 .7.54 1.9 1.9 0 0 0 .89.21 2.78 2.78 0 0 0 1.27-.33 6.52 6.52 0 0 0 1.22-.81l1.16 1.31a6.72 6.72 0 0 1-2 1.53 5.49 5.49 0 0 1-2.62.63 4.62 4.62 0 0 1-2-.46 5.23 5.23 0 0 1-1.6-1.27 6.18 6.18 0 0 1-1.14-2 7.17 7.17 0 0 1-.42-2.52 8.76 8.76 0 0 1 .35-2.5 6.59 6.59 0 0 1 1-2.1 5.18 5.18 0 0 1 1.67-1.46 4.72 4.72 0 0 1 2.3-.54 4.2 4.2 0 0 1 2 .45 3.63 3.63 0 0 1 1.36 1.22 5.89 5.89 0 0 1 .73 1.82 12.91 12.91 0 0 1 .36 2.35zm1.72-2.89a1.93 1.93 0 0 0 .86-.49 1 1 0 0 0 .18-.61 2.75 2.75 0 0 0-.35-1.36 1.14 1.14 0 0 0-1.05-.63 1.1 1.1 0 0 0-.75.28 2.28 2.28 0 0 0-.53.74 3.94 3.94 0 0 0-.32 1 7.18 7.18 0 0 0-.1 1.19v.32a1.23 1.23 0 0 0 0 .24z"/>
</svg>