<svg xmlns="http://www.w3.org/2000/svg" viewBox="0 0 292.14 88.2">
    <g class="logo--tree">
        <path d="M45 83.42c.23-.22.58-.6.86-.93s.58-.71.86-1.07c.56-.73 1.11-1.49 1.63-2.26A34.47 34.47 0 0 0 51 74.27a22.5 22.5 0 0 0 2.15-10.56 16.2 16.2 0 0 0-.44-2.61 27.23 27.23 0 0 0-.84-2.67q-1-2.73-2.28-5.36C47.92 49.5 46 46 44.25 42.37A64.29 64.29 0 0 1 39.8 31a28.19 28.19 0 0 1-1-6.12 18.82 18.82 0 0 1 .81-6.18 17.54 17.54 0 0 1 7.41-9.61 13.12 13.12 0 0 1 2.78-1.31 6.77 6.77 0 0 1 3.06-.35 7 7 0 0 1 2.91.89 3.48 3.48 0 0 1 1.69 2.41 3.36 3.36 0 0 0-1.76-2.16 6.8 6.8 0 0 0-2.82-.64 8.77 8.77 0 0 0-5.34 1.92 16.61 16.61 0 0 0-6.43 9.3 20.76 20.76 0 0 0 .7 11.3 58.26 58.26 0 0 0 4.8 10.69c1.91 3.46 4 6.87 6 10.39A55.07 55.07 0 0 1 55.42 57c.42 1 .83 1.9 1.18 3a20.32 20.32 0 0 1 .79 3.24 30.51 30.51 0 0 1-1.08 12.94 52.71 52.71 0 0 1-2.13 6.06q-.61 1.49-1.31 2.95c-.23.49-.48 1-.74 1.46s-.48.95-.84 1.53z" transform="translate(0 .03)" fill="#a38977"/>
        <path d="M58.48 13.94a8.46 8.46 0 0 1 3.19.3 5 5 0 0 1 2.72 1.83 5.52 5.52 0 0 1 .94 3.21 6.93 6.93 0 0 1-.74 3.29 12.65 12.65 0 0 1-4.77 4.56 62.29 62.29 0 0 0-5.24 3.46A13.78 13.78 0 0 0 49 40.7a19.09 19.09 0 0 0 3.32 11.24l-2 1.41a22.83 22.83 0 0 1-2.8-6.12 18 18 0 0 1-.7-6.7A15.1 15.1 0 0 1 49 34.1a16.43 16.43 0 0 1 4.59-4.85 63.18 63.18 0 0 1 5.52-3.32c1.78-1.06 3.58-2.16 4.57-3.85a6.31 6.31 0 0 0 .83-2.81 4.78 4.78 0 0 0-.6-2.85 4.8 4.8 0 0 0-2.32-1.86 8.91 8.91 0 0 0-3.11-.62z" transform="translate(0 .03)" fill="#a38977"/>
        <path d="M60 32.56a5 5 0 0 1 2.6-2.12 5.89 5.89 0 0 1 1.7-.37 4.92 4.92 0 0 1 1.77.16 8.74 8.74 0 0 1 5.2 4.58 11.55 11.55 0 0 1 1.1 3.4 13.9 13.9 0 0 1 .05 3.57 17.79 17.79 0 0 1-2.28 6.67 25.66 25.66 0 0 1-4.44 5.36 32.44 32.44 0 0 0-4.21 4.94 46.67 46.67 0 0 0-5.37 11.88l-2.32-.74a46 46 0 0 1 5.8-12.45 34.69 34.69 0 0 1 4.57-5.19 23.64 23.64 0 0 0 4.19-4.87 17.55 17.55 0 0 0 2.26-5.88 11.29 11.29 0 0 0-.54-6.17 7.76 7.76 0 0 0-4.22-4.45A5.36 5.36 0 0 0 60 32.56z" transform="translate(0 .03)" fill="#a38977"/>
        <path d="M89.14 26.31a8.71 8.71 0 0 1 .68 3.78 6.32 6.32 0 0 1-1.36 3.65A8.41 8.41 0 0 1 85.25 36a16.5 16.5 0 0 1-3.76 1.15 24.19 24.19 0 0 0-3.65.86 7.46 7.46 0 0 0-2.92 2 21.52 21.52 0 0 0-3.76 6.33l-1.74-.8.92-1.74c.31-.58.68-1.13 1-1.7a17.94 17.94 0 0 1 1.16-1.63A14.74 14.74 0 0 1 73.92 39a8.78 8.78 0 0 1 3.54-2.08 24.9 24.9 0 0 1 3.88-.67 15.66 15.66 0 0 0 3.66-.87 7.83 7.83 0 0 0 3.11-2A6 6 0 0 0 89.59 30a8.59 8.59 0 0 0-.45-3.69zm-1.93 18.34a7.51 7.51 0 0 1 2.9 2.42 6.49 6.49 0 0 1 1.24 3.69 9.45 9.45 0 0 1-.78 3.86 11.7 11.7 0 0 1-2 3.39 13 13 0 0 1-6.93 3.76c-2.52.61-5 .84-7.44 1.25a21 21 0 0 0-6.74 2.05 48.86 48.86 0 0 0-6 4 29.49 29.49 0 0 0-5 5.11 33.64 33.64 0 0 0-3.66 6.18l-2.22-1a32.63 32.63 0 0 1 3.82-6.74 29.25 29.25 0 0 1 5.45-5.56 44.81 44.81 0 0 1 6.45-4.21 23.19 23.19 0 0 1 7.56-2.09c2.51-.34 5-.52 7.34-1a11.74 11.74 0 0 0 6.21-2.88 11.74 11.74 0 0 0 2-2.84 8.36 8.36 0 0 0 1-3.34 6.27 6.27 0 0 0-.75-3.41 7.91 7.91 0 0 0-2.45-2.64z" transform="translate(0 .03)" fill="#a38977"/>
        <path d="M86 66a5.41 5.41 0 0 1-1.39 3.77A4.85 4.85 0 0 1 80.7 71a6.34 6.34 0 0 1-2.08-.46 7.83 7.83 0 0 1-1.81-1.12c-1.09-.87-2-1.87-3-2.61a6.11 6.11 0 0 0-3.36-1.28 9.25 9.25 0 0 0-3.62.66A30.52 30.52 0 0 0 60 70.07l-1.35-2a32.46 32.46 0 0 1 7.54-3.59 10.87 10.87 0 0 1 4.36-.48 7.5 7.5 0 0 1 4 1.83c1.09.92 1.93 2 2.89 2.88a5.69 5.69 0 0 0 3.36 1.67 4.4 4.4 0 0 0 3.64-.84A5.26 5.26 0 0 0 86 66zm1.3-42.53a2.86 2.86 0 0 0-2.56-2.11 5.31 5.31 0 0 0-3.3.93 14 14 0 0 0-4.5 5.3 32.21 32.21 0 0 0-2.52 6.6 55.18 55.18 0 0 0-1.36 7l-2-.33A56.94 56.94 0 0 1 73 33.75a33.45 33.45 0 0 1 3.1-6.66 14.73 14.73 0 0 1 5.12-5.23 5.68 5.68 0 0 1 3.58-.74 3 3 0 0 1 2.5 2.35zm-68 7.19A7.73 7.73 0 0 1 18 28.3a4.7 4.7 0 0 1-.18-2.83 4.43 4.43 0 0 1 1.75-2.33A8.3 8.3 0 0 1 22.11 22a10.87 10.87 0 0 1 5.65.06 17.55 17.55 0 0 1 5.11 2.35 34.87 34.87 0 0 1 8 7.65 65.71 65.71 0 0 1 6 9.25l-2.08 1.09a70.2 70.2 0 0 0-5.48-9.13A33.16 33.16 0 0 0 32 25.62a16.16 16.16 0 0 0-4.59-2.37 9.71 9.71 0 0 0-5-.29c-1.62.39-3.37 1.15-4 2.72a4.21 4.21 0 0 0-.09 2.5 8.77 8.77 0 0 0 1.02 2.48z" transform="translate(0 .03)" fill="#a38977"/>
        <path d="M41 6.11a13 13 0 0 0-6.39 3 8 8 0 0 0-2.5 6.21A17.36 17.36 0 0 0 33.88 22a46.64 46.64 0 0 0 3.54 6.17l-1.31.83a40.92 40.92 0 0 1-3.46-6.5 18.49 18.49 0 0 1-1.58-7.26 9.36 9.36 0 0 1 .82-3.69 8.2 8.2 0 0 1 2.31-3A12.36 12.36 0 0 1 41 6.11zM11.43 25.8a12.73 12.73 0 0 0-3.3 8.45c.07 3.08 1.87 5.75 4.1 7.81A29.49 29.49 0 0 0 20 46.87a45.57 45.57 0 0 0 8.79 2.84c3 .68 6.12 1.13 9.23 1.83a22.28 22.28 0 0 1 9 3.84 19.38 19.38 0 0 1 5.82 8 45.11 45.11 0 0 1 2.7 9.26l-2.35.36a42.79 42.79 0 0 0-2.46-8.8 17.82 17.82 0 0 0-5-7.19 20.3 20.3 0 0 0-8.1-3.66c-3-.75-6.1-1.28-9.18-2-6.14-1.53-12.24-4-17-8.49A14.3 14.3 0 0 1 8.6 39a10.08 10.08 0 0 1-1.09-4.71 10.89 10.89 0 0 1 1.18-4.63 14.33 14.33 0 0 1 2.74-3.86z" transform="translate(0 .03)" fill="#a38977"/>
        <path d="M2.11 46.37a4.17 4.17 0 0 1 .69-4.91 3.45 3.45 0 0 1 2.4-1.21 7.5 7.5 0 0 1 2.67.33 24.22 24.22 0 0 1 4.83 2.12c1.53.84 3 1.76 4.48 2.7l-.76 1.11c-1.39-1-2.79-2-4.24-2.93a23.43 23.43 0 0 0-4.52-2.33 6.91 6.91 0 0 0-2.43-.46 3 3 0 0 0-2.17.93 4 4 0 0 0-1.24 2.14 4.2 4.2 0 0 0 .29 2.51zm4.21 16.36a20.3 20.3 0 0 0 4.93 5 15.21 15.21 0 0 0 6.29 2.68 14.32 14.32 0 0 0 6.72-.51 21.22 21.22 0 0 0 3.16-1.3A29.37 29.37 0 0 1 30.7 67a20.09 20.09 0 0 1 14.53.12 16.79 16.79 0 0 1 6.25 4.19 10.09 10.09 0 0 1 2.09 3.39 5.81 5.81 0 0 1-.1 4.35l-2.2-1c.75-1.48-.1-3.61-1.52-5.17a15.33 15.33 0 0 0-5.33-3.78 18.21 18.21 0 0 0-13.16-.54 27.34 27.34 0 0 0-3.18 1.35 19.92 19.92 0 0 1-3.44 1.26 15.52 15.52 0 0 1-7.3.19 15.52 15.52 0 0 1-6.45-3.22 19.65 19.65 0 0 1-4.57-5.41z" transform="translate(0 .03)" fill="#a38977"/>
        <path d="M20.55 82.53A10.32 10.32 0 0 1 18.8 79a6.44 6.44 0 0 1 .2-4 7.83 7.83 0 0 1 2.55-3.22c.55-.41 1.15-.75 1.73-1.11l1.86-.85.38 1.18-1.79.65c-.55.29-1.14.55-1.67.88a7 7 0 0 0-2.52 2.69 6 6 0 0 0-.44 3.71 10.17 10.17 0 0 0 1.45 3.6zm6.82-17.45a7.66 7.66 0 0 1-4.85-4.14 5.14 5.14 0 0 1-.23-3.38 6 6 0 0 1 1.93-2.85 14.67 14.67 0 0 1 6.1-2.71 38.33 38.33 0 0 1 6.53-.87v2.06a36.57 36.57 0 0 0-6.26.35 13.44 13.44 0 0 0-5.72 2 5 5 0 0 0-1.81 2.26 4.43 4.43 0 0 0 0 2.93A7.43 7.43 0 0 0 27.37 65z" transform="translate(0 .03)" fill="#a38977"/>
        <path d="M29.81 33a13.51 13.51 0 0 0-4.26 5.74 6.46 6.46 0 0 0-.27 3.45 7.12 7.12 0 0 0 1.53 3.06 16.92 16.92 0 0 0 5.69 4.1 46.86 46.86 0 0 0 6.7 2.55l-.6 1.79a48.47 48.47 0 0 1-6.77-3.08 18 18 0 0 1-5.78-4.78 7.94 7.94 0 0 1-1.48-3.52 7.05 7.05 0 0 1 .53-3.73A13.73 13.73 0 0 1 29.81 33zM39 88.11h12.26L53 82.88l-8 .48a48.75 48.75 0 0 1-6 4.75z" transform="translate(0 .03)" fill="#a38977"/>
        <path d="M51.49 44.93s-1.49-2.59 1.42-5.09 6.53-.81 6.53-.81a5.87 5.87 0 0 0-2.75 2.61c-1.94 4.64-5.2 3.29-5.2 3.29z" fill="#84a987" stroke="#84a987" stroke-miterlimit="10" stroke-width="1.41"/>
        <path d="M45.06 32.03s-2.32-1-1.64-4.16a5.42 5.42 0 0 1 4-3.87 5 5 0 0 0-.53 3.17c1.11 4.14-1.83 4.86-1.83 4.86z" fill="#3f758a" stroke="#3f758a" stroke-miterlimit="10" stroke-width="1.19"/>
        <path d="M17.48 23.03s-1.32 1.72-3.82.48a4.66 4.66 0 0 1-2.38-4.15 4.28 4.28 0 0 0 2.53 1.11c3.66.01 3.67 2.56 3.67 2.56z" fill="#7d864b" stroke="#7d864b" stroke-miterlimit="10" stroke-width="1.03"/>
        <path d="M16.72 73.75s-2.13-1.44-4.47.9a5.52 5.52 0 0 0-1.11 5.57 5.07 5.07 0 0 1 2.43-2.19c4.11-1.39 3.15-4.28 3.15-4.28z" fill="#b85636" stroke="#b85636" stroke-miterlimit="10" stroke-width="1.22"/>
        <path d="M11.18 45.15s-1.65-2-4.54-.39a5.52 5.52 0 0 0-2.62 5 5.07 5.07 0 0 1 3-1.41c4.27-.16 4.16-3.2 4.16-3.2z" fill="#732813" stroke="#732813" stroke-miterlimit="10" stroke-width="1.22"/>
        <path d="M25.26 57.96s-1 2.49 1.87 4.38 5.93 0 5.93 0a5.29 5.29 0 0 1-2.77-2c-2.29-3.97-5.03-2.38-5.03-2.38z" fill="#d0b46d" stroke="#d0b46d" stroke-miterlimit="10" stroke-width="1.27"/>
        <path d="M71 59.58s3 .25 4.07-3.48-2-6.34-2-6.34a6 6 0 0 1-1.22 3.64c-3.47 3.77-.85 6.18-.85 6.18z" fill="#d0b46d" stroke="#d0b46d" stroke-miterlimit="10" stroke-width="1.43"/>
        <path d="M69.39 67.22s2.15-1.19 3.82 2.17a8.74 8.74 0 0 1 0 6.92 6.63 6.63 0 0 0-1.77-3.28c-3.44-2.6-2.05-5.81-2.05-5.81z" fill="#d0b46d" stroke="#d0b46d" stroke-miterlimit="10" stroke-width="1.28"/>
        <path d="M88.43 51.37s1-2.5-1.91-4.36-5.93.11-5.93.11a5.29 5.29 0 0 1 2.79 2c2.32 3.91 5.05 2.25 5.05 2.25z" fill="#732813" stroke="#732813" stroke-miterlimit="10" stroke-width="1.27"/>
        <path d="M28.15 43.8s2 .9 3.63-1.41a4.72 4.72 0 0 0 .12-4.85 4.33 4.33 0 0 1-1.72 2.21c-3.26 1.76-2.03 4.05-2.03 4.05z" fill="#a11e16" stroke="#a11e16" stroke-miterlimit="10" stroke-width="1.04"/>
        <path d="M6.76 31.14a2.65 2.65 0 0 0-.45-3.41 4.17 4.17 0 0 0-4.13-1.12 3.82 3.82 0 0 1 1.53 1.93c.82 3.18 3.05 2.6 3.05 2.6z" fill="#a11e16" stroke="#a11e16" stroke-miterlimit="10" stroke-width=".92"/>
        <path d="M48.47 7.08a2.6 2.6 0 0 0 2.76-1.93 4.09 4.09 0 0 0-.89-4.12 3.75 3.75 0 0 1-1 2.21c-2.34 2.17-.87 3.84-.87 3.84z" fill="#6a494f" stroke="#6a494f" stroke-miterlimit="10" stroke-width=".9"/>
        <path d="M79.41 21.47a2.6 2.6 0 0 0 1.71-2.91 4.09 4.09 0 0 0-2.53-3.35 3.75 3.75 0 0 1 0 2.42c-1.25 2.95.82 3.84.82 3.84z" fill="#a11e16" stroke="#a11e16" stroke-miterlimit="10" stroke-width=".9"/>
        <path d="M89.77 58.6s1.11 2.08 4 1.19a5.06 5.06 0 0 0 3.29-4 4.64 4.64 0 0 1-2.9.74c-3.92-.68-4.39 2.07-4.39 2.07z" fill="#732813" stroke="#732813" stroke-miterlimit="10" stroke-width="1.11"/>
        <path d="M76.65 64.85a2.72 2.72 0 0 0 2.51 2.48 4.27 4.27 0 0 0 4-1.7 3.92 3.92 0 0 1-2.46-.6c-2.62-2-4.05-.18-4.05-.18z" fill="#d0b46d" stroke="#d0b46d" stroke-miterlimit="10" stroke-width=".94"/>
        <path d="M56.27 53.92a2.72 2.72 0 0 0 3.41-.89 4.26 4.26 0 0 0 .59-4.35 3.91 3.91 0 0 1-1.76 1.81c-3.12 1.24-2.24 3.43-2.24 3.43zm29.8-21a2.72 2.72 0 0 0 1.85-3 4.27 4.27 0 0 0-2.56-3.57 3.92 3.92 0 0 1 0 2.53c-1.42 3.07.71 4.06.71 4.06z" fill="#3f758a" stroke="#3f758a" stroke-miterlimit="10" stroke-width=".94"/>
        <path d="M67.45 34.44a2.76 2.76 0 0 0-2.77-2.27 4.33 4.33 0 0 0-3.93 2.09 4 4 0 0 1 2.54.38c2.88 1.81 4.16-.2 4.16-.2z" fill="#b85636" stroke="#b85636" stroke-miterlimit="10" stroke-width=".95"/>
        <path d="M48.82 66.38a2.72 2.72 0 0 0-.71-3.45 4.27 4.27 0 0 0-4.31-.84 3.92 3.92 0 0 1 1.71 1.87c1.08 3.17 3.31 2.42 3.31 2.42z" fill="#6a494f" stroke="#6a494f" stroke-miterlimit="10" stroke-width=".94"/>
        <path d="M21.89 75.03a2.72 2.72 0 0 0-.44 3.5 4.27 4.27 0 0 0 3.81 2.18 3.92 3.92 0 0 1-1-2.32c-.01-3.36-2.37-3.36-2.37-3.36z" fill="#84a987" stroke="#84a987" stroke-miterlimit="10" stroke-width=".94"/>
        <path d="M63.09 18.83s-.36-2.33-3.38-2.46a5.06 5.06 0 0 0-4.43 2.66 4.63 4.63 0 0 1 3 .26c3.46 1.98 4.81-.46 4.81-.46zM20.72 25.3s-1.78 1.55-.26 4.17a5.05 5.05 0 0 0 4.66 2.3 4.63 4.63 0 0 1-1.38-2.66c-.23-3.97-3.02-3.81-3.02-3.81z" fill="#7d864b" stroke="#7d864b" stroke-miterlimit="10" stroke-width="1.11"/>
        <path d="M33.57 13.89a2.52 2.52 0 0 1 2-2.59 4 4 0 0 1 3.94 1.07 3.65 3.65 0 0 0-2.19.85c-2.2 2.21-3.75.67-3.75.67z" fill="#d0b46d" stroke="#d0b46d" stroke-miterlimit="10" stroke-width=".87"/>
        <path d="M89.64 35.03a2.53 2.53 0 0 1 2.63-2 4 4 0 0 1 3.5 2.1 3.64 3.64 0 0 0-2.34.23c-2.72 1.54-3.79-.33-3.79-.33z" fill="#3f758a" stroke="#3f758a" stroke-miterlimit="10" stroke-width=".87"/>
        <path d="M21.65 55.67s-.35 2.36-3.35 2.46a5 5 0 0 1-4.43-2.67 4.63 4.63 0 0 0 3-.28c3.42-1.93 4.78.49 4.78.49z" fill="#d0b46d" stroke="#d0b46d" stroke-miterlimit="10" stroke-width="1.11"/>
        <path d="M48.29 74.92s-.34 2.32-3.35 2.46a5 5 0 0 1-4.43-2.67 4.62 4.62 0 0 0 3-.28c3.42-1.93 4.78.49 4.78.49z" fill="#6a494f" stroke="#6a494f" stroke-miterlimit="10" stroke-width="1.11"/>
        <path d="M5.09 38.77a2.53 2.53 0 0 1-3.27-.23 4 4 0 0 1-1.3-3.87 3.65 3.65 0 0 0 1.93 1.36c3.06.59 2.64 2.74 2.64 2.74z" fill="#a11e16" stroke="#a11e16" stroke-miterlimit="10" stroke-width=".87"/>
        <path d="M9.7 35.32s-.8-2.19 1.77-3.74a5 5 0 0 1 5.15.24 4.61 4.61 0 0 0-2.47 1.65C12 36.79 9.7 35.32 9.7 35.32z" fill="#7d864b" stroke="#7d864b" stroke-miterlimit="10" stroke-width="1.1"/>
        <path d="M16.7 68.03s-2.26.58-3.55-2.13a5 5 0 0 1 .76-5.1 4.61 4.61 0 0 0 1.4 2.62c3.1 2.46 1.39 4.61 1.39 4.61z" fill="#84a987" stroke="#84a987" stroke-miterlimit="10" stroke-width="1.1"/>
        <path d="M22.13 45.3s-2.87.49-4.19-3 1.45-6.27 1.45-6.27a5.74 5.74 0 0 0 1.47 3.4c3.6 3.34 1.27 5.87 1.27 5.87z" fill="#732813" stroke="#732813" stroke-miterlimit="10" stroke-width="1.38"/>
        <path d="M92.55 49.88a2.52 2.52 0 0 1 1.23-3 4 4 0 0 1 4.08 0A3.65 3.65 0 0 0 96 48.22c-1.54 2.73-3.45 1.66-3.45 1.66z" fill="#7d864b" stroke="#7d864b" stroke-miterlimit="10" stroke-width=".87"/>
        <path d="M45.43 48.5s-1.43 2.44-4.85 1.26-3.76-5-3.76-5a5.56 5.56 0 0 0 3.44 1c4.74-.57 5.17 2.74 5.17 2.74z" fill="#84a987" stroke="#84a987" stroke-miterlimit="10" stroke-width="1.33"/>
        <path d="M74.8 44.54s-.76-2.16 1.77-3.65a4.91 4.91 0 0 1 5 .28 4.51 4.51 0 0 0-2.43 1.59c-2.07 3.27-4.34 1.78-4.34 1.78z" fill="#b85636" stroke="#b85636" stroke-miterlimit="10" stroke-width="1.08"/>
        <path d="M51.41 9.23a2.83 2.83 0 0 1 3.45 1.26 4.45 4.45 0 0 1 .21 4.54 4.08 4.08 0 0 0-1.66-2c-3.12-1.61-2-3.8-2-3.8z" fill="#6a494f" stroke="#6a494f" stroke-miterlimit="10" stroke-width=".98"/>
        <path d="M66.25 16.33a2.83 2.83 0 0 1 .53-3.64 4.45 4.45 0 0 1 4.43-1.14 4.09 4.09 0 0 0-1.67 2c-.92 3.48-3.29 2.78-3.29 2.78z" fill="#7d864b" stroke="#7d864b" stroke-miterlimit="10" stroke-width=".98"/>
        <path d="M71.39 31.41a2.83 2.83 0 0 1-1.71-3.25 4.45 4.45 0 0 1 2.92-3.53 4.08 4.08 0 0 0-.15 2.63c1.24 3.28-1.06 4.15-1.06 4.15z" fill="#b85636" stroke="#b85636" stroke-miterlimit="10" stroke-width=".98"/>
        <path d="M30.39 11.8s1.47-1.84-.48-4.15a5.06 5.06 0 0 0-5-1.44 4.64 4.64 0 0 1 1.83 2.38c.94 3.86 3.65 3.21 3.65 3.21z" fill="#d0b46d" stroke="#d0b46d" stroke-miterlimit="10" stroke-width="1.11"/>
        <path d="M30 15.95a2.56 2.56 0 0 0-2.62-2 4 4 0 0 0-3.6 2 3.68 3.68 0 0 1 2.36.29c2.7 1.61 3.86-.29 3.86-.29z" fill="#d0b46d" stroke="#d0b46d" stroke-miterlimit="10" stroke-width=".89"/>
        <path d="M10.83 69.88a2.56 2.56 0 0 0-3.21-.85 4 4 0 0 0-2.54 3.26 3.68 3.68 0 0 1 2.29-.64c3.14.38 3.46-1.77 3.46-1.77z" fill="#b85636" stroke="#b85636" stroke-miterlimit="10" stroke-width=".89"/>
        <path d="M38.29 34.44a2.56 2.56 0 0 0-2.62-2 4 4 0 0 0-3.6 2 3.69 3.69 0 0 1 2.36.29c2.72 1.61 3.86-.29 3.86-.29z" fill="#3f758a" stroke="#3f758a" stroke-miterlimit="10" stroke-width=".89"/>
    <g class="logo__text">
        <path d="M119.1 48.49a3.88 3.88 0 0 0-.65-.75.85.85 0 0 0-.53-.23.35.35 0 0 0-.28.12.47.47 0 0 0-.11.32 1.7 1.7 0 0 0 .54 1.08l1.94-.1-.47.84h-1.39v4.87a1.32 1.32 0 0 0 .09.38 1 1 0 0 0 .15.24.73.73 0 0 0 .39.21 5.39 5.39 0 0 0 .83.09l-.3.55h-4.17l-.23-.55a4.75 4.75 0 0 0 .66-.07.6.6 0 0 0 .3-.16.64.64 0 0 0 .14-.21 1.47 1.47 0 0 0 .08-.36v-.63V49.77h-1.38l.21-.51.5-.28a2.38 2.38 0 0 0 .38-.29 4.2 4.2 0 0 0 .39-.42l.53-.65a7.23 7.23 0 0 1 1.08-1.16 1.39 1.39 0 0 1 .85-.35 1.3 1.3 0 0 1 .75.29 4.13 4.13 0 0 1 .81.83zM128.21 52.48a4.19 4.19 0 0 1-.28 1.55 3.65 3.65 0 0 1-.79 1.23 3.74 3.74 0 0 1-1.21.82 3.77 3.77 0 0 1-1.5.3h-.09a4 4 0 0 1-1.53-.28 3.66 3.66 0 0 1-1.19-.78 3.46 3.46 0 0 1-.78-1.17 3.78 3.78 0 0 1-.28-1.45 4.08 4.08 0 0 1 .29-1.56 3.62 3.62 0 0 1 .81-1.22 3.66 3.66 0 0 1 1.23-.79 4.22 4.22 0 0 1 1.57-.28 4.29 4.29 0 0 1 1.54.26 3.42 3.42 0 0 1 1.18.74 3.29 3.29 0 0 1 .76 1.15 4 4 0 0 1 .27 1.48zm-2.41.07q0-3.08-1.38-3.08t-1.48 3.21q0 3.06 1.41 3.06t1.44-3.19zM133.67 51.44l-.06-.07a2.18 2.18 0 0 0-.37-.31.57.57 0 0 0-.3-.09q-.41 0-.59.56a6.65 6.65 0 0 0-.18 1.82 7.52 7.52 0 0 0 .08 1.26 1.44 1.44 0 0 0 .28.67.76.76 0 0 0 .16.12.84.84 0 0 0 .23.09l.38.06h.58l-.23.57h-4.49l-.21-.57a4.33 4.33 0 0 0 .72-.11.73.73 0 0 0 .35-.21.76.76 0 0 0 .19-.41 5.79 5.79 0 0 0 0-1V52a7.88 7.88 0 0 0-.08-1.12 1.06 1.06 0 0 0-.23-.54.61.61 0 0 0-.3-.16 3.61 3.61 0 0 0-.6-.06l.17-.57 2.92-.45-.09 1.66.09-.12.1-.16a7.19 7.19 0 0 1 1-1.27 1.13 1.13 0 0 1 .77-.38 1.06 1.06 0 0 1 .43.1.93.93 0 0 1 .3.23l.38.48.06.09.07.09zM143.85 56.11h-4.58l-.17-.58h.31a2.18 2.18 0 0 0 .45 0 .54.54 0 0 0 .27-.15.56.56 0 0 0 .16-.24 2.17 2.17 0 0 0 .09-.45v-.78V49.88v-1a5.56 5.56 0 0 0 0-.65 1.77 1.77 0 0 0-.09-.39.85.85 0 0 0-.14-.24.7.7 0 0 0-.36-.2 4.61 4.61 0 0 0-.73-.09l.24-.57h4.58l.14.57a4.79 4.79 0 0 0-.7.08.64.64 0 0 0-.34.19.73.73 0 0 0-.15.23 1.49 1.49 0 0 0-.09.4v6.38a1.89 1.89 0 0 0 .08.42.73.73 0 0 0 .13.24l.13.1a.69.69 0 0 0 .19.07h.8zM152.85 56.11h-3.19v-.62-.26-.39-.38-1.73-1.26a2.49 2.49 0 0 0-.15-.7.71.71 0 0 0-.72-.47 1.23 1.23 0 0 0-.47.09 2.16 2.16 0 0 0-.51.32l-.1.07v3.46a5.25 5.25 0 0 0 0 .55 1.29 1.29 0 0 0 .08.33.67.67 0 0 0 .13.2.6.6 0 0 0 .29.16 3.24 3.24 0 0 0 .58.06l-.24.57h-3.85l-.24-.57h.11a3.26 3.26 0 0 0 .57 0 .55.55 0 0 0 .29-.15 1.06 1.06 0 0 0 .23-.6 10.43 10.43 0 0 0 .06-1.38v-1.67a5.9 5.9 0 0 0 0-.92.94.94 0 0 0-.18-.43.77.77 0 0 0-.3-.18 3.12 3.12 0 0 0-.64-.11l.2-.57 3-.45v1l.09-.09.09-.09a7.17 7.17 0 0 1 .57-.52 2.88 2.88 0 0 1 .49-.33 1.85 1.85 0 0 1 .47-.17 2.38 2.38 0 0 1 .5 0 1.7 1.7 0 0 1 1.43.67 3 3 0 0 1 .52 1.85v2.9a5.26 5.26 0 0 0 0 .66.59.59 0 0 0 .14.32.65.65 0 0 0 .33.19q.22.06.72.13zM158.21 49.8h-1.55v3.82c0 .39 0 .7.06.94a2.39 2.39 0 0 0 .11.55.88.88 0 0 0 .2.31.7.7 0 0 0 .4.2 4.85 4.85 0 0 0 .84.05h.31l-.3.58h-.33l-.81.07h-.57a4.12 4.12 0 0 1-1-.11 1.18 1.18 0 0 1-.62-.38 1.63 1.63 0 0 1-.31-.77 7.61 7.61 0 0 1-.09-1.26v-.09-1.33-.87V49.75h-1.22l.27-.54.34-.11.26-.11a3.83 3.83 0 0 0 .37-.23 2.84 2.84 0 0 0 .38-.33 3.71 3.71 0 0 0 .5-.54 7.22 7.22 0 0 0 .45-.69l.72-.3v2.09l2.14-.16zM161.81 52.35l.41-.7h1.46a4.34 4.34 0 0 0-.25-1.65.78.78 0 0 0-.74-.5.94.94 0 0 0-.84.6 3.4 3.4 0 0 0-.31 1.58 5.33 5.33 0 0 0 .19 1.48 3.69 3.69 0 0 0 .55 1.16 2.56 2.56 0 0 0 .84.76 2.18 2.18 0 0 0 1.07.27 2.8 2.8 0 0 0 .75-.1 4.2 4.2 0 0 0 .8-.33l-.23.89a4 4 0 0 1-1 .44 4.86 4.86 0 0 1-1.21.14 4.58 4.58 0 0 1-1.6-.27 3.42 3.42 0 0 1-2-2 4 4 0 0 1-.28-1.54 4.32 4.32 0 0 1 .26-1.53 3.51 3.51 0 0 1 .73-1.2 3.38 3.38 0 0 1 1.11-.78 3.48 3.48 0 0 1 1.41-.28 3.57 3.57 0 0 1 1.26.21 2.69 2.69 0 0 1 1 .62 3.21 3.21 0 0 1 .65 1l.13.35a2.34 2.34 0 0 1 .09.35c0 .13 0 .27.06.43s0 .34 0 .55zM174.25 48.83c0 .35 0 .62-.06.81s0 .38 0 .58V53.33q0 .91-.06 1.59a7.85 7.85 0 0 1-.18 1.2 3.68 3.68 0 0 1-.34.9 3.1 3.1 0 0 1-.52.69 4.34 4.34 0 0 1-3.2 1.05h-1.2l-.62-.07h-.44v-2.48l.67-.28a4.16 4.16 0 0 0 .82 1.68 1.6 1.6 0 0 0 1.23.53 1.44 1.44 0 0 0 1.3-.72 4 4 0 0 0 .45-2.11v-.09l-.1-3.11v-.39-.84-1.25h-.1l-.26-.06h-.17a1.2 1.2 0 0 0-.73.26 2.33 2.33 0 0 0-.61.72 4.34 4.34 0 0 0-.42 1.06 5.08 5.08 0 0 0-.16 1.28 3.45 3.45 0 0 0 .41 1.82 1.25 1.25 0 0 0 1.11.67h.3a1.35 1.35 0 0 0 .3-.12l-.18.72a3.73 3.73 0 0 1-1.25.2 3.31 3.31 0 0 1-1.28-.23 2.81 2.81 0 0 1-1.61-1.69 3.87 3.87 0 0 1-.22-1.34 4.43 4.43 0 0 1 .25-1.51 3.17 3.17 0 0 1 .75-1.18 3.45 3.45 0 0 1 1.15-.74 4.4 4.4 0 0 1 .61-.23 5.18 5.18 0 0 1 .72-.14c.28 0 .63-.07 1-.09l1.6-.08zM180.15 51.44h-.05l-.06-.07a2.16 2.16 0 0 0-.37-.31.57.57 0 0 0-.3-.09q-.41 0-.59.56a6.67 6.67 0 0 0-.18 1.82 7.52 7.52 0 0 0 .08 1.26 1.44 1.44 0 0 0 .28.67.79.79 0 0 0 .16.12.82.82 0 0 0 .23.09l.38.06h.57l-.23.57h-4.47l-.21-.57a4.33 4.33 0 0 0 .72-.11.72.72 0 0 0 .35-.21.76.76 0 0 0 .19-.41 5.83 5.83 0 0 0 0-1V52a7.74 7.74 0 0 0-.08-1.12 1.05 1.05 0 0 0-.23-.54.61.61 0 0 0-.3-.16 3.61 3.61 0 0 0-.6-.06l.17-.57 2.92-.45-.06 1.67.09-.12.1-.16a7.19 7.19 0 0 1 1-1.27 1.13 1.13 0 0 1 .77-.38 1.06 1.06 0 0 1 .43.1.94.94 0 0 1 .3.23c.1.1.22.27.38.48a.31.31 0 0 0 .06.09l.07.09zM190 56.11h-2.61c-.08-.2-.14-.37-.18-.52l-.14-.42c0-.13-.08-.25-.11-.37l-.11-.39-.15-.51-.13-.51-.13-.59-.16-.76a3.15 3.15 0 0 0-1.29.87 1.85 1.85 0 0 0-.44 1.21 1.52 1.52 0 0 0 .35 1.05 1.24 1.24 0 0 0 1.36.31 2.84 2.84 0 0 0 .52-.3l-.17.71-.49.23-.42.15a2.35 2.35 0 0 1-.4.08h-.45a3.64 3.64 0 0 1-1.07-.15 2.72 2.72 0 0 1-.84-.41 1.92 1.92 0 0 1-.55-.62 1.64 1.64 0 0 1-.2-.8 1.84 1.84 0 0 1 .59-1.32 5.21 5.21 0 0 1 .59-.47l.5-.29.49-.25.68-.28 1.06-.41-.18-.7c0-.17-.08-.31-.11-.41a1.14 1.14 0 0 0-.11-.25l-.14-.22a.64.64 0 0 0-.55-.26 1 1 0 0 0-.86.53 5.21 5.21 0 0 0-.65 1.66l-.66-.26v-2.23l.51-.1.37-.07.28-.04h.28l.71-.09h.62a2.73 2.73 0 0 1 1.76.52 2 2 0 0 1 .55.75 5.6 5.6 0 0 1 .35 1.3V51.9l.41 1.79q.07.28.19.65a3.76 3.76 0 0 0 .21.57 1.28 1.28 0 0 0 .39.53 1.61 1.61 0 0 0 .67.23zM195.39 49.8h-1.55v3.82c0 .39 0 .7.06.94a2.39 2.39 0 0 0 .11.55.88.88 0 0 0 .2.31.7.7 0 0 0 .4.2 4.85 4.85 0 0 0 .84.05h.31l-.3.58h-.33l-.81.07h-.57a4.12 4.12 0 0 1-1-.11 1.18 1.18 0 0 1-.62-.38 1.63 1.63 0 0 1-.31-.77 7.61 7.61 0 0 1-.09-1.26v-.09-1.33-.87V49.75h-1.13l.27-.54.34-.11.26-.11a3.83 3.83 0 0 0 .37-.23 2.84 2.84 0 0 0 .38-.33 3.71 3.71 0 0 0 .5-.54 7.22 7.22 0 0 0 .45-.69l.72-.3v2.09l2.14-.16zM199 52.35l.41-.7h1.46a4.34 4.34 0 0 0-.25-1.65.78.78 0 0 0-.74-.5.94.94 0 0 0-.84.6 3.4 3.4 0 0 0-.31 1.58 5.33 5.33 0 0 0 .19 1.48 3.69 3.69 0 0 0 .55 1.16 2.56 2.56 0 0 0 .84.76 2.18 2.18 0 0 0 1.07.27 2.8 2.8 0 0 0 .75-.1 4.2 4.2 0 0 0 .8-.33l-.23.89a4 4 0 0 1-1 .44 4.86 4.86 0 0 1-1.21.14 4.58 4.58 0 0 1-1.6-.27 3.42 3.42 0 0 1-2-2 4 4 0 0 1-.28-1.54 4.32 4.32 0 0 1 .26-1.53 3.51 3.51 0 0 1 .73-1.2 3.38 3.38 0 0 1 1.11-.78 3.48 3.48 0 0 1 1.41-.28 3.57 3.57 0 0 1 1.26.21 2.69 2.69 0 0 1 1 .62 3.21 3.21 0 0 1 .65 1l.13.35a2.34 2.34 0 0 1 .09.35c0 .13 0 .27.06.43s0 .34 0 .55zM212 56.11h-3v-6.36h-.1l-.21-.06h-.19a1.36 1.36 0 0 0-.77.23 2 2 0 0 0-.6.66 3.62 3.62 0 0 0-.4 1 5.51 5.51 0 0 0-.14 1.28 3.8 3.8 0 0 0 .4 1.91 1.24 1.24 0 0 0 1.12.67 1.14 1.14 0 0 0 .29 0l.36-.12-.11.65a3.32 3.32 0 0 1-.69.26 2.86 2.86 0 0 1-.67.08 2.91 2.91 0 0 1-1.2-.25 3.15 3.15 0 0 1-1-.67 3.06 3.06 0 0 1-.65-1 3.27 3.27 0 0 1-.23-1.24 3.87 3.87 0 0 1 .31-1.52 4.13 4.13 0 0 1 .89-1.32 4.22 4.22 0 0 1 .6-.5 5.14 5.14 0 0 1 .69-.4 4.7 4.7 0 0 1 .71-.27 2.32 2.32 0 0 1 .63-.1H209v-.6a3.75 3.75 0 0 0 0-.4.87.87 0 0 0-.06-.25.57.57 0 0 0-.11-.16.75.75 0 0 0-.37-.18 5.22 5.22 0 0 0-.82-.09l.26-.62 3.31-.44v7.42a7.35 7.35 0 0 0 .06 1.12 1.28 1.28 0 0 0 .22.58.48.48 0 0 0 .28.15 5.2 5.2 0 0 0 .59.06zM226.43 56.11h-4.51l-.18-.58a4.63 4.63 0 0 0 .71-.08.6.6 0 0 0 .33-.18.58.58 0 0 0 .13-.22 1.88 1.88 0 0 0 .09-.38 5.48 5.48 0 0 0 0-.65V51.34h-3.26V54.73a1.77 1.77 0 0 0 .08.39.6.6 0 0 0 .13.22.62.62 0 0 0 .33.16 4.8 4.8 0 0 0 .72.06l-.23.58h-4.47l-.18-.58a4.23 4.23 0 0 0 .68-.06.61.61 0 0 0 .31-.16.58.58 0 0 0 .13-.22 2 2 0 0 0 .09-.39 5.58 5.58 0 0 0 0-.67v-4.45-.94a5.78 5.78 0 0 0 0-.6 1.62 1.62 0 0 0-.07-.34.67.67 0 0 0-.11-.2l-.13-.1a.57.57 0 0 0-.18-.06h-.75l.21-.57h4.43l.16.57a3.67 3.67 0 0 0-.61.08.66.66 0 0 0-.3.16.68.68 0 0 0-.14.22 1.38 1.38 0 0 0-.09.36V50.66H223v-1.12-.81-.55a1.4 1.4 0 0 0-.09-.35.89.89 0 0 0-.14-.23.64.64 0 0 0-.28-.18 3.73 3.73 0 0 0-.57-.11l.21-.57h4.3l.2.57a6.25 6.25 0 0 0-.72.09.53.53 0 0 0-.28.16.59.59 0 0 0-.13.23 2.4 2.4 0 0 0-.09.4V53.97a5.72 5.72 0 0 0 0 .66 1.93 1.93 0 0 0 .09.39.76.76 0 0 0 .13.23.77.77 0 0 0 .32.18 3.3 3.3 0 0 0 .7.09zM229.77 52.35l.41-.7h1.46a4.34 4.34 0 0 0-.25-1.65.78.78 0 0 0-.74-.5.94.94 0 0 0-.84.6 3.4 3.4 0 0 0-.31 1.58 5.33 5.33 0 0 0 .19 1.48 3.69 3.69 0 0 0 .55 1.16 2.56 2.56 0 0 0 .84.76 2.18 2.18 0 0 0 1.07.27 2.8 2.8 0 0 0 .75-.1 4.2 4.2 0 0 0 .8-.33l-.23.89a4 4 0 0 1-1 .44 4.86 4.86 0 0 1-1.21.14 4.58 4.58 0 0 1-1.6-.27 3.42 3.42 0 0 1-2-2 4 4 0 0 1-.28-1.54 4.32 4.32 0 0 1 .26-1.53 3.51 3.51 0 0 1 .73-1.2 3.38 3.38 0 0 1 1.11-.78 3.48 3.48 0 0 1 1.41-.28 3.57 3.57 0 0 1 1.26.21 2.69 2.69 0 0 1 1 .62 3.21 3.21 0 0 1 .65 1l.13.35a2.34 2.34 0 0 1 .09.35c0 .13 0 .27.06.43s0 .34 0 .55zM242.72 56.11h-2.61c-.08-.2-.14-.37-.18-.52l-.14-.42c0-.13-.08-.25-.11-.37l-.11-.39-.15-.51-.13-.51-.13-.59-.16-.76a3.15 3.15 0 0 0-1.29.87 1.85 1.85 0 0 0-.44 1.21 1.52 1.52 0 0 0 .35 1.05 1.24 1.24 0 0 0 1.36.31 2.84 2.84 0 0 0 .52-.3l-.17.71-.49.23-.42.15a2.35 2.35 0 0 1-.4.08h-.45a3.64 3.64 0 0 1-1.07-.15 2.72 2.72 0 0 1-.84-.41 1.92 1.92 0 0 1-.55-.62 1.64 1.64 0 0 1-.2-.8 1.84 1.84 0 0 1 .59-1.32 5.21 5.21 0 0 1 .59-.47l.5-.29.49-.25.68-.28 1.06-.41-.18-.7c0-.17-.08-.31-.11-.41a1.14 1.14 0 0 0-.11-.25l-.14-.22a.64.64 0 0 0-.55-.26 1 1 0 0 0-.86.53 5.21 5.21 0 0 0-.65 1.66l-.66-.26v-2.23l.51-.1.37-.07.3-.05h.28l.71-.09h.62a2.73 2.73 0 0 1 1.76.52 2 2 0 0 1 .55.75 5.6 5.6 0 0 1 .35 1.3V51.89l.41 1.79q.07.28.19.65a3.76 3.76 0 0 0 .21.57 1.28 1.28 0 0 0 .39.53 1.61 1.61 0 0 0 .67.23zM247.73 56.11h-4.14l-.23-.57a4.25 4.25 0 0 0 .73-.09.65.65 0 0 0 .35-.21.69.69 0 0 0 .16-.26 2.18 2.18 0 0 0 .09-.46v-.79-4.32-.81a4.87 4.87 0 0 0 0-.53 1.23 1.23 0 0 0-.08-.32.64.64 0 0 0-.13-.2.74.74 0 0 0-.33-.18 3.44 3.44 0 0 0-.65-.09l.21-.52 3.07-.47V53.9a6.25 6.25 0 0 0 .07.91 1 1 0 0 0 .21.48.61.61 0 0 0 .31.18 4.17 4.17 0 0 0 .67.08zM253.13 49.8h-1.55v3.82c0 .39 0 .7.06.94a2.39 2.39 0 0 0 .11.55.88.88 0 0 0 .2.31.7.7 0 0 0 .4.2 4.85 4.85 0 0 0 .84.05h.31l-.3.58h-.33l-.81.07h-.57a4.12 4.12 0 0 1-1-.11 1.18 1.18 0 0 1-.62-.38 1.63 1.63 0 0 1-.31-.77 7.61 7.61 0 0 1-.09-1.26v-.09-1.33-.87V49.75h-1.22l.27-.54.34-.11.26-.11a3.83 3.83 0 0 0 .37-.23 2.84 2.84 0 0 0 .38-.33 3.71 3.71 0 0 0 .5-.54 7.22 7.22 0 0 0 .45-.69l.72-.3v2.09l2.14-.16zM262.45 56.11h-3.22v-.48a3.33 3.33 0 0 1 0-.34v-.46-1.3-.94q0-.78-.06-1.21a2.69 2.69 0 0 0-.16-.72.62.62 0 0 0-.62-.41 1.58 1.58 0 0 0-1.11.54v3.8a2.38 2.38 0 0 0 .07.43.63.63 0 0 0 .13.24.55.55 0 0 0 .27.16l.58.12-.24.52h-4l-.24-.52a4.43 4.43 0 0 0 .7-.12.7.7 0 0 0 .32-.19.74.74 0 0 0 .13-.25 2.44 2.44 0 0 0 .09-.44v-.76-3.69-1.14a7.08 7.08 0 0 0 0-.72 1.84 1.84 0 0 0-.09-.42.86.86 0 0 0-.14-.24.6.6 0 0 0-.33-.18 4.51 4.51 0 0 0-.69-.08l.2-.55 3.18-.47.05 3.71.34-.31.26-.22.21-.17.23-.16a2.11 2.11 0 0 1 1.18-.34 1.73 1.73 0 0 1 1.43.62 2.82 2.82 0 0 1 .5 1.79v3.46a1 1 0 0 0 .07.31 1.31 1.31 0 0 0 .12.21.57.57 0 0 0 .14.12l.2.09.3.08.45.08zM269.32 55.83a7.9 7.9 0 0 1-1.26.43 5.09 5.09 0 0 1-1.15.13 4.27 4.27 0 0 1-1.54-.26 3.26 3.26 0 0 1-1.93-1.9 4 4 0 0 1-.27-1.5 4.13 4.13 0 0 1 .3-1.6 3.49 3.49 0 0 1 .84-1.23 3.75 3.75 0 0 1 1.31-.79 5 5 0 0 1 1.71-.28h1.88v2.37l-.69.33q-.45-2.2-1.72-2.2a1.16 1.16 0 0 0-1 .61 3.17 3.17 0 0 0-.38 1.67 4.92 4.92 0 0 0 .2 1.43 3.82 3.82 0 0 0 .54 1.14 2.67 2.67 0 0 0 .81.75 2 2 0 0 0 1 .28 2.56 2.56 0 0 0 .78-.12 3.21 3.21 0 0 0 .79-.39zM278.06 56.11h-2.61c-.08-.2-.14-.37-.18-.52l-.14-.42c0-.13-.08-.25-.11-.37l-.11-.39-.15-.51-.13-.51-.13-.59-.16-.76a3.15 3.15 0 0 0-1.29.87 1.85 1.85 0 0 0-.44 1.21 1.52 1.52 0 0 0 .35 1.05 1.24 1.24 0 0 0 1.36.31 2.84 2.84 0 0 0 .52-.3l-.17.71-.49.23-.42.15a2.35 2.35 0 0 1-.4.08h-.45a3.64 3.64 0 0 1-1.07-.15 2.72 2.72 0 0 1-.84-.41 1.92 1.92 0 0 1-.55-.62 1.64 1.64 0 0 1-.2-.8 1.84 1.84 0 0 1 .59-1.32 5.21 5.21 0 0 1 .59-.47l.5-.29.49-.25.68-.28 1.06-.41-.18-.7c0-.17-.08-.31-.11-.41a1.14 1.14 0 0 0-.11-.25l-.14-.22a.64.64 0 0 0-.55-.26 1 1 0 0 0-.86.53 5.21 5.21 0 0 0-.65 1.66l-.66-.26v-2.23l.51-.1.37-.07.3-.05h.28l.71-.09h.62a2.73 2.73 0 0 1 1.76.52 2 2 0 0 1 .55.75 5.6 5.6 0 0 1 .35 1.3V51.89l.41 1.79q.07.28.19.65a3.76 3.76 0 0 0 .21.57 1.28 1.28 0 0 0 .39.53 1.61 1.61 0 0 0 .67.23zM283.44 51.44h-.05l-.06-.07A2.16 2.16 0 0 0 283 51a.57.57 0 0 0-.3-.09q-.41 0-.59.56a6.67 6.67 0 0 0-.18 1.82 7.52 7.52 0 0 0 .08 1.26 1.44 1.44 0 0 0 .28.67.79.79 0 0 0 .16.12.82.82 0 0 0 .23.09l.38.06h.57l-.23.57h-4.48l-.21-.57a4.33 4.33 0 0 0 .72-.11.72.72 0 0 0 .35-.21.76.76 0 0 0 .19-.41 5.83 5.83 0 0 0 0-1V52a7.74 7.74 0 0 0-.08-1.12 1.05 1.05 0 0 0-.23-.54.61.61 0 0 0-.3-.16 3.61 3.61 0 0 0-.6-.06l.17-.57 2.92-.45-.06 1.67.09-.12.1-.16a7.19 7.19 0 0 1 1-1.27 1.13 1.13 0 0 1 .77-.38 1.06 1.06 0 0 1 .43.1.94.94 0 0 1 .3.23c.1.1.22.27.38.48a.31.31 0 0 0 .06.09l.07.09zM287.88 52.35l.41-.7h1.46a4.34 4.34 0 0 0-.25-1.65.78.78 0 0 0-.74-.5.94.94 0 0 0-.84.6 3.4 3.4 0 0 0-.31 1.58 5.33 5.33 0 0 0 .19 1.48 3.69 3.69 0 0 0 .55 1.16 2.56 2.56 0 0 0 .84.76 2.18 2.18 0 0 0 1.07.27 2.8 2.8 0 0 0 .75-.1 4.2 4.2 0 0 0 .8-.33l-.23.89a4 4 0 0 1-1 .44 4.86 4.86 0 0 1-1.21.14 4.58 4.58 0 0 1-1.6-.27 3.42 3.42 0 0 1-2-2 4 4 0 0 1-.28-1.54 4.32 4.32 0 0 1 .26-1.53 3.51 3.51 0 0 1 .73-1.2 3.38 3.38 0 0 1 1.11-.78 3.48 3.48 0 0 1 1.41-.28 3.57 3.57 0 0 1 1.26.21 2.69 2.69 0 0 1 1 .62 3.21 3.21 0 0 1 .65 1l.09.38a2.34 2.34 0 0 1 .09.35c0 .13 0 .27.06.43s0 .34 0 .55z" transform="translate(0 .03)"/>
        <path d="M160.48 25.61a2.67 2.67 0 0 0-.81-.57 2.35 2.35 0 0 0-1-.21h-.21l-.4.06h-.13l-.42-.79a4.36 4.36 0 0 0 2.1-1.05 2.37 2.37 0 0 0 .74-1.74 1.79 1.79 0 0 0-.59-1.41 2.28 2.28 0 0 0-1.57-.53h-.94v9.1a7.4 7.4 0 0 0 .1.74 2.67 2.67 0 0 0 .15.53 1.12 1.12 0 0 0 1.15.71 2.28 2.28 0 0 0 1-.25 2.88 2.88 0 0 0 .87-.67 3.28 3.28 0 0 0 .59-1 3.15 3.15 0 0 0 .22-1.17 2.86 2.86 0 0 0-.19-1 2.51 2.51 0 0 0-.66-.75z" transform="translate(0 .03)" fill="none"/>
        <path d="M122.33 18.63h-8.55l-.94 4.64.71.63.39-.95q.16-.39.31-.7a5 5 0 0 1 .29-.54l.3-.46.27-.36a3.43 3.43 0 0 1 .29-.33 4.73 4.73 0 0 1 .6-.56 6.52 6.52 0 0 1 .89-.5V27.97q0 .7-.08 1.12a3.12 3.12 0 0 1-.15.69 1.34 1.34 0 0 1-.23.4 1 1 0 0 1-.22.16 1.37 1.37 0 0 1-.32.11 3.33 3.33 0 0 1-.47.08h-.68l.33.79h6.73l.33-.79a6.58 6.58 0 0 1-1.13-.13 1.23 1.23 0 0 1-.56-.31 1.36 1.36 0 0 1-.25-.42 3 3 0 0 1-.14-.74q0-.49-.07-1.28t0-2.06v-1L120 20v-.52a7.7 7.7 0 0 1 .87.46 3.32 3.32 0 0 1 .6.52 5.15 5.15 0 0 1 .63.79 5.24 5.24 0 0 1 .31.5l.27.55q.14.3.28.68l.34.9.75-.61-.88-4.72zM135.34 30.41a1.33 1.33 0 0 1-.27-.12.74.74 0 0 1-.18-.16 1.72 1.72 0 0 1-.16-.28 1.37 1.37 0 0 1-.1-.42v-.72V27v-.34-.51-1.4a3.8 3.8 0 0 0-.67-2.42 2.33 2.33 0 0 0-1.96-.83 2.86 2.86 0 0 0-1.59.46l-.31.22-.29.23-.35.3-.46.42.08-5.06-4.29.63-.27.75a6.3 6.3 0 0 1 .94.11.82.82 0 0 1 .44.24 1.14 1.14 0 0 1 .19.33 2.47 2.47 0 0 1 .12.57 9.18 9.18 0 0 1 .06 1v6.58a10.11 10.11 0 0 1-.06 1 3.26 3.26 0 0 1-.12.59 1 1 0 0 1-.18.34.93.93 0 0 1-.43.26 5.9 5.9 0 0 1-.95.16l.33.71h5.37l.33-.71q-.56-.1-.79-.16a.74.74 0 0 1-.36-.22.87.87 0 0 1-.17-.33 3.25 3.25 0 0 1-.1-.58v-1V24.2a2.13 2.13 0 0 1 1.5-.73.84.84 0 0 1 .84.56 3.58 3.58 0 0 1 .21 1q.06.59.08 1.64V31.33H136l.33-.71-.6-.11zM140.32 26.25h5.75v-.74c0-.21 0-.4-.08-.58a3.34 3.34 0 0 0-.12-.48l-.17-.47a4.32 4.32 0 0 0-.88-1.36 3.64 3.64 0 0 0-1.33-.84 4.84 4.84 0 0 0-1.7-.29 4.69 4.69 0 0 0-1.91.38 4.58 4.58 0 0 0-1.5 1.05 4.75 4.75 0 0 0-1 1.62 5.83 5.83 0 0 0-.35 2.06 5.41 5.41 0 0 0 .38 2.08 4.62 4.62 0 0 0 2.74 2.64 6.16 6.16 0 0 0 2.17.36 6.54 6.54 0 0 0 1.64-.19 5.35 5.35 0 0 0 1.41-.59l.31-1.21a5.65 5.65 0 0 1-1.08.44 3.76 3.76 0 0 1-1 .13 3 3 0 0 1-1.45-.36 3.47 3.47 0 0 1-1.14-1 5 5 0 0 1-.74-1.56 7.2 7.2 0 0 1-.26-2 4.59 4.59 0 0 1 .42-2.13 1.27 1.27 0 0 1 1.13-.81 1.05 1.05 0 0 1 1 .68 5.88 5.88 0 0 1 .34 2.23h-2zM162.77 24.61l-.54-.2a4.23 4.23 0 0 0-.53-.14 5.23 5.23 0 0 0-.62-.09l-.8-.07.86-.24a4.07 4.07 0 0 0 .64-.24 5.9 5.9 0 0 0 .53-.29 5.64 5.64 0 0 0 .52-.36 2.4 2.4 0 0 0 1.07-2q0-2.43-4.79-2.43h-1l-1.38.07h-3.49l-1.05-.06-.31.77a7.08 7.08 0 0 1 1.08.12 1.09 1.09 0 0 1 .55.29 1.49 1.49 0 0 1 .26.42 2.69 2.69 0 0 1 .16.67c0 .28.07.63.09 1s0 .92 0 1.52v4.12q0 .73-.1 1.22a4 4 0 0 1-.17.78 1.25 1.25 0 0 1-.28.46 1.22 1.22 0 0 1-.56.34 5.15 5.15 0 0 1-1.13.14l.23.79H158.67a10.92 10.92 0 0 0 2.54-.27 5.84 5.84 0 0 0 1.9-.79 3.64 3.64 0 0 0 1.19-1.26 3.34 3.34 0 0 0 .41-1.66 2.87 2.87 0 0 0-1.94-2.61zM161 28.67a3.28 3.28 0 0 1-.59 1 2.88 2.88 0 0 1-.87.67 2.28 2.28 0 0 1-1 .25 1.12 1.12 0 0 1-1.15-.71 2.67 2.67 0 0 1-.15-.53 7.4 7.4 0 0 1-.1-.74v-1.08-4.98-.47-1.19-.54-.36-.48h.94a2.28 2.28 0 0 1 1.57.53 1.79 1.79 0 0 1 .59 1.41 2.37 2.37 0 0 1-.74 1.74 4.36 4.36 0 0 1-2.1 1.05l.42.79h.13l.4-.06h.21a2.35 2.35 0 0 1 1 .21 2.67 2.67 0 0 1 .81.57 2.51 2.51 0 0 1 .54.84 2.86 2.86 0 0 1 .19 1 3.15 3.15 0 0 1-.1 1.08zM175.67 29.59a5.29 5.29 0 0 1-.29-.77l-.25-.88-.56-2.42v-.21c0-.08 0-.19-.07-.35a7.59 7.59 0 0 0-.47-1.75 2.74 2.74 0 0 0-.74-1 3.69 3.69 0 0 0-2.38-.71h-.84l-1 .12-.37.07-.4.07-.5.1-.69.13v3l.9.35a7 7 0 0 1 .88-2.24 1.41 1.41 0 0 1 1.17-.71.86.86 0 0 1 .75.35l.19.3a1.62 1.62 0 0 1 .14.34q.07.21.15.56l.24.94-1.43.56q-.55.21-.92.38l-.67.34-.68.39a7 7 0 0 0-.8.63 2.48 2.48 0 0 0-.8 1.78 2.22 2.22 0 0 0 .27 1.08 2.6 2.6 0 0 0 .74.84 3.7 3.7 0 0 0 1.13.56 4.91 4.91 0 0 0 1.44.2 5.86 5.86 0 0 0 .6 0 3.19 3.19 0 0 0 .55-.11 5.06 5.06 0 0 0 .57-.2q.3-.12.66-.32l.23-1a4 4 0 0 1-.71.4 1.68 1.68 0 0 1-1.84-.42 2.05 2.05 0 0 1-.48-1.42A2.5 2.5 0 0 1 170 27a4.26 4.26 0 0 1 1.74-1.18l.21 1 .18.8.17.69c.05.22.12.45.2.69l.14.53.15.5.18.57.25.71h3.53l.34-.73a2.18 2.18 0 0 1-.91-.31 1.73 1.73 0 0 1-.51-.68zM184.18 21.66q-.84 0-1.41.12a7 7 0 0 0-1 .19 6 6 0 0 0-.82.31 4.64 4.64 0 0 0-1.55 1 4.29 4.29 0 0 0-1 1.6 6 6 0 0 0-.34 2 5.24 5.24 0 0 0 .3 1.81 3.8 3.8 0 0 0 2.2 2.31 4.49 4.49 0 0 0 1.73.32 5.07 5.07 0 0 0 1.69-.27l.25-1a1.85 1.85 0 0 1-.41.16 2.23 2.23 0 0 1-.41 0 1.69 1.69 0 0 1-1.5-.9 4.66 4.66 0 0 1-.56-2.45 6.87 6.87 0 0 1 .21-1.73 5.84 5.84 0 0 1 .57-1.44 3.16 3.16 0 0 1 .83-1 1.63 1.63 0 0 1 1-.35h.23a1.68 1.68 0 0 1 .35.09h.13q0 1.09-.06 1.69t0 1.14v.53l.13 4.2v.12a5.44 5.44 0 0 1-.6 2.85 2 2 0 0 1-1.75 1 2.16 2.16 0 0 1-1.66-.72 5.65 5.65 0 0 1-1.1-2.27l-.9.38v3.2h.6l.83.1.63.06h.99a5.86 5.86 0 0 0 4.22-1.19 4.19 4.19 0 0 0 .7-.94 4.92 4.92 0 0 0 .46-1.22 10.52 10.52 0 0 0 .25-1.62q.08-.92.08-2.15V26v-1.26q0-.65.06-1.37 0-.4.06-.79t.08-1.09l-1.38.06zM199.48 30.15a.81.81 0 0 1-.19-.43 6.92 6.92 0 0 1 0-.89v-3.92a4 4 0 0 0-.7-2.5 2.3 2.3 0 0 0-1.93-.91 3.27 3.27 0 0 0-.68.07 2.55 2.55 0 0 0-.63.23 4 4 0 0 0-.66.44 9.85 9.85 0 0 0-.77.7l-.11.11-.12.11v-1.32l-4 .61-.27.77a4.13 4.13 0 0 1 .86.14 1 1 0 0 1 .4.24 1.27 1.27 0 0 1 .24.58 8.05 8.05 0 0 1 .07 1.24v2.22a14.1 14.1 0 0 1-.09 1.86 1.44 1.44 0 0 1-.32.8.75.75 0 0 1-.39.2 4.39 4.39 0 0 1-.78 0h-.15l.33.77h5.33l.33-.77a4.35 4.35 0 0 1-.78-.08.81.81 0 0 1-.39-.21.84.84 0 0 1-.18-.27 1.68 1.68 0 0 1-.11-.44 6.84 6.84 0 0 1 0-.75v-4.6l.13-.1a2.92 2.92 0 0 1 .69-.43 1.68 1.68 0 0 1 .63-.12 1 1 0 0 1 1 .63 3.36 3.36 0 0 1 .2.95V31.33h4.31l.35-.77q-.67-.1-1-.17a.88.88 0 0 1-.62-.24zM211 29.59a5.29 5.29 0 0 1-.29-.77l-.25-.88-.56-2.42v-.21c0-.08 0-.19-.07-.35a7.59 7.59 0 0 0-.47-1.75 2.74 2.74 0 0 0-.74-1 3.69 3.69 0 0 0-2.38-.71h-.84l-1 .12-.37.07-.4.07-.5.1-.69.13v3l.9.35a7 7 0 0 1 .88-2.24 1.42 1.42 0 0 1 1.17-.71.86.86 0 0 1 .75.35l.19.3a1.62 1.62 0 0 1 .14.34q.07.21.15.56l.24.94-1.43.56q-.55.21-.92.38l-.67.34-.68.39a7 7 0 0 0-.8.63 2.48 2.48 0 0 0-.8 1.78 2.22 2.22 0 0 0 .27 1.08 2.6 2.6 0 0 0 .74.84 3.69 3.69 0 0 0 1.13.56 4.91 4.91 0 0 0 1.44.2 5.86 5.86 0 0 0 .6 0 3.19 3.19 0 0 0 .55-.11 5.06 5.06 0 0 0 .57-.2q.3-.12.66-.32l.23-1a4 4 0 0 1-.71.4 1.68 1.68 0 0 1-1.84-.42 2.05 2.05 0 0 1-.48-1.42 2.5 2.5 0 0 1 .59-1.64 4.26 4.26 0 0 1 1.74-1.18l.21 1 .18.8.17.69c.05.22.12.45.2.69l.14.53.15.5.18.57.25.71h3.53l.34-.73a2.18 2.18 0 0 1-.91-.31 1.73 1.73 0 0 1-.49-.61zM218 30.22a1.28 1.28 0 0 1-.29-.65 8.49 8.49 0 0 1-.1-1.23v-1.9l.06-6.27v-2.11l-4.14.63-.29.71a4.65 4.65 0 0 1 .88.11 1 1 0 0 1 .44.25.88.88 0 0 1 .18.27 1.77 1.77 0 0 1 .11.43 6.61 6.61 0 0 1 0 .72V28.12c0 .43 0 .79-.07 1.06a3 3 0 0 1-.12.62.92.92 0 0 1-.21.34.86.86 0 0 1-.47.29 5.65 5.65 0 0 1-1 .11l.31.77h5.6l.38-.77a5.59 5.59 0 0 1-.9-.11.81.81 0 0 1-.37-.21zM224.66 30.22a1.28 1.28 0 0 1-.29-.65 8.49 8.49 0 0 1-.1-1.23v-1.9l.06-6.27v-2.11l-4.14.63-.29.71a4.65 4.65 0 0 1 .88.11 1 1 0 0 1 .44.25.88.88 0 0 1 .18.27 1.77 1.77 0 0 1 .11.43 6.61 6.61 0 0 1 0 .72V28.12c0 .43 0 .79-.07 1.06a3 3 0 0 1-.12.62.92.92 0 0 1-.21.34.86.86 0 0 1-.47.29 5.65 5.65 0 0 1-1 .11l.31.77h5.6l.38-.77a5.59 5.59 0 0 1-.9-.11.81.81 0 0 1-.37-.21zM241.64 28.54a5.21 5.21 0 0 1-.33.73 2.87 2.87 0 0 1-2.57 1.55q-3.28 0-3.28-5.89a8.76 8.76 0 0 1 .82-4.24 2.61 2.61 0 0 1 2.4-1.46 2.73 2.73 0 0 1 2.47 1.55l.24.47a4.59 4.59 0 0 1 .19.47 5 5 0 0 1 .15.56l.16.73.86-.52.06-3.91h-.76l-3.53-.29h-.19a6.56 6.56 0 0 0-4.72 1.95 6.74 6.74 0 0 0-1.94 4.76 6.87 6.87 0 0 0 .51 2.67 6.17 6.17 0 0 0 1.43 2.1 6.48 6.48 0 0 0 2.2 1.37 7.72 7.72 0 0 0 2.79.49h.73l1.09-.09 1.11-.1c.27-.02.53 0 .79 0h.44l.1-4.35-1 .38a7.63 7.63 0 0 1-.22 1.07zM247.49 26.25h5.75v-.74c0-.21 0-.4-.08-.58a3.33 3.33 0 0 0-.12-.48l-.17-.47a4.31 4.31 0 0 0-.88-1.36 3.64 3.64 0 0 0-1.33-.84 4.84 4.84 0 0 0-1.7-.29 4.69 4.69 0 0 0-1.91.38 4.58 4.58 0 0 0-1.5 1.05 4.75 4.75 0 0 0-1 1.62 5.85 5.85 0 0 0-.35 2.06 5.4 5.4 0 0 0 .38 2.08 4.62 4.62 0 0 0 2.74 2.64 6.15 6.15 0 0 0 2.17.36 6.54 6.54 0 0 0 1.64-.19 5.34 5.34 0 0 0 1.41-.59l.31-1.21a5.66 5.66 0 0 1-1.08.44 3.77 3.77 0 0 1-1 .13 3 3 0 0 1-1.45-.36 3.46 3.46 0 0 1-1.14-1 5 5 0 0 1-.74-1.56 7.2 7.2 0 0 1-.26-2 4.59 4.59 0 0 1 .42-2.13 1.27 1.27 0 0 1 1.13-.81 1.05 1.05 0 0 1 1 .68 5.89 5.89 0 0 1 .33 2.23h-2zM264.36 30.15a.81.81 0 0 1-.19-.43 6.92 6.92 0 0 1 0-.89v-3.92a4 4 0 0 0-.7-2.5 2.3 2.3 0 0 0-1.93-.91 3.27 3.27 0 0 0-.68.07 2.55 2.55 0 0 0-.63.23 4 4 0 0 0-.66.44 9.83 9.83 0 0 0-.77.7l-.11.11-.12.11v-1.32l-4 .61-.27.77a4.13 4.13 0 0 1 .86.14 1 1 0 0 1 .4.24 1.27 1.27 0 0 1 .24.58 8 8 0 0 1 .07 1.24v2.22a14.1 14.1 0 0 1-.09 1.86 1.44 1.44 0 0 1-.32.8.75.75 0 0 1-.39.2 4.39 4.39 0 0 1-.78 0h-.15l.33.77h5.33l.33-.77a4.34 4.34 0 0 1-.78-.08.81.81 0 0 1-.39-.21.84.84 0 0 1-.18-.27 1.68 1.68 0 0 1-.11-.44 6.83 6.83 0 0 1 0-.75v-4.6l.13-.1a2.92 2.92 0 0 1 .69-.43 1.68 1.68 0 0 1 .63-.12 1 1 0 0 1 1 .63 3.36 3.36 0 0 1 .2.95V31.33h4.31l.35-.77q-.67-.1-1-.17a.88.88 0 0 1-.62-.24zM272.68 22.8l.8-1.19-2.89.21.06-2.82-1 .4a9.89 9.89 0 0 1-.61.94 5.07 5.07 0 0 1-.67.73 3.83 3.83 0 0 1-.52.44 5 5 0 0 1-.5.31L267 22l-.46.15-.36.73h1.65v3.54q-.06 1.36-.06 1.8v.11a10.18 10.18 0 0 0 .12 1.7 2.19 2.19 0 0 0 .42 1 1.59 1.59 0 0 0 .84.52 5.58 5.58 0 0 0 1.4.14h.77l1.09-.1h.44l.4-.79h-.42a6.59 6.59 0 0 1-1.13-.07.94.94 0 0 1-.54-.28 1.2 1.2 0 0 1-.27-.42 3.26 3.26 0 0 1-.15-.74q-.06-.49-.08-1.27t0-2.05V22.8zM279.33 24.34a.77.77 0 0 1 .4.11 2.94 2.94 0 0 1 .5.42l.09.1.07.06 2-2.2-.1-.11a.44.44 0 0 1-.08-.11q-.33-.44-.52-.65a1.25 1.25 0 0 0-.4-.31 1.44 1.44 0 0 0-.58-.13 1.53 1.53 0 0 0-1 .51 9.77 9.77 0 0 0-1.29 1.72l-.13.22-.12.16.08-2.26-3.95.61-.23.77a4.67 4.67 0 0 1 .8.08.82.82 0 0 1 .4.21 1.43 1.43 0 0 1 .32.73 10.6 10.6 0 0 1 .11 1.51v2.51a7.76 7.76 0 0 1 0 1.32 1 1 0 0 1-.26.56 1 1 0 0 1-.48.28 5.77 5.77 0 0 1-1 .14l.29.77h6.06l.31-.77h-.78a3.84 3.84 0 0 1-.52-.08 1.17 1.17 0 0 1-.32-.11 1 1 0 0 1-.21-.16 2 2 0 0 1-.37-.9 10.3 10.3 0 0 1-.11-1.71 9 9 0 0 1 .24-2.46q.23-.83.78-.83zM289.61 30.28a3 3 0 0 1-1.45-.36 3.46 3.46 0 0 1-1.14-1 5 5 0 0 1-.74-1.56 7.2 7.2 0 0 1-.26-2 4.59 4.59 0 0 1 .42-2.13 1.27 1.27 0 0 1 1.13-.81 1.05 1.05 0 0 1 1 .68 5.89 5.89 0 0 1 .33 2.23h-2l-.56.94h5.75v-.74c0-.21 0-.4-.08-.58a3.33 3.33 0 0 0-.12-.48l-.17-.47a4.31 4.31 0 0 0-.88-1.36 3.64 3.64 0 0 0-1.33-.84 4.84 4.84 0 0 0-1.7-.29 4.69 4.69 0 0 0-1.91.38 4.58 4.58 0 0 0-1.5 1.05 4.75 4.75 0 0 0-1 1.62 5.85 5.85 0 0 0-.35 2.06 5.4 5.4 0 0 0 .38 2.08 4.62 4.62 0 0 0 2.74 2.64 6.15 6.15 0 0 0 2.17.36 6.54 6.54 0 0 0 1.64-.19 5.34 5.34 0 0 0 1.41-.59l.31-1.21a5.66 5.66 0 0 1-1.08.44 3.77 3.77 0 0 1-1.01.13z" transform="translate(0 .03)"/>
    </g>
</svg>
