<svg xmlns="http://www.w3.org/2000/svg" viewBox="0 0 292.14 88.14">
    <g class="logo--tree">
        <path style="fill: #a38977;" d="M45 83.42c.23-.22.58-.6.86-.93s.58-.71.86-1.07c.56-.73 1.11-1.49 1.63-2.26A34.47 34.47 0 0 0 51 74.27a22.5 22.5 0 0 0 2.15-10.56 16.2 16.2 0 0 0-.44-2.61c-.2-.86-.53-1.78-.84-2.67a70.56 70.56 0 0 0-2.28-5.36C47.92 49.5 46 46 44.25 42.37A64.29 64.29 0 0 1 39.8 31a28.19 28.19 0 0 1-.95-6.12 18.82 18.82 0 0 1 .81-6.18 17.54 17.54 0 0 1 7.41-9.61 13.12 13.12 0 0 1 2.78-1.31 6.77 6.77 0 0 1 3.06-.35 7 7 0 0 1 2.91.89 3.48 3.48 0 0 1 1.69 2.41 3.36 3.36 0 0 0-1.81-2.16 6.8 6.8 0 0 0-2.82-.64 8.77 8.77 0 0 0-5.34 1.92 16.61 16.61 0 0 0-6.43 9.3 20.76 20.76 0 0 0 .7 11.3 58.26 58.26 0 0 0 4.8 10.69c1.91 3.46 4 6.87 6 10.39 1 1.76 2 3.57 2.81 5.46.42 1 .83 1.9 1.18 3a20.32 20.32 0 0 1 .79 3.24 30.51 30.51 0 0 1-1.08 12.94 52.71 52.71 0 0 1-2.13 6.06q-.61 1.49-1.31 2.95c-.23.49-.48 1-.74 1.46s-.48.95-.84 1.53z"/>
        <path style="fill: #a38977;" d="M58.48 13.94a8.46 8.46 0 0 1 3.19.3 5 5 0 0 1 2.72 1.83 5.52 5.52 0 0 1 .94 3.21 6.93 6.93 0 0 1-.74 3.29 12.65 12.65 0 0 1-4.77 4.56 62.29 62.29 0 0 0-5.24 3.46A13.78 13.78 0 0 0 49 40.7a19.09 19.09 0 0 0 3.32 11.24l-2 1.41a22.83 22.83 0 0 1-2.8-6.12 18 18 0 0 1-.7-6.7A15.1 15.1 0 0 1 49 34.1a16.43 16.43 0 0 1 4.59-4.85 63.18 63.18 0 0 1 5.52-3.32c1.78-1.06 3.58-2.16 4.57-3.85a6.31 6.31 0 0 0 .83-2.81 4.78 4.78 0 0 0-.6-2.85 4.8 4.8 0 0 0-2.32-1.86 8.91 8.91 0 0 0-3.11-.62z"/>
        <path style="fill: #a38977;" d="M60 32.56a5 5 0 0 1 2.6-2.12 5.89 5.89 0 0 1 1.7-.37 4.92 4.92 0 0 1 1.77.16 8.74 8.74 0 0 1 5.2 4.58 11.55 11.55 0 0 1 1.1 3.4 13.9 13.9 0 0 1 .05 3.57 17.79 17.79 0 0 1-2.28 6.67 25.66 25.66 0 0 1-4.44 5.36 32.44 32.44 0 0 0-4.21 4.94 46.67 46.67 0 0 0-5.37 11.88l-2.32-.74a46 46 0 0 1 5.8-12.45 34.69 34.69 0 0 1 4.57-5.19 23.64 23.64 0 0 0 4.19-4.87 17.55 17.55 0 0 0 2.26-5.88 11.29 11.29 0 0 0-.54-6.17 7.76 7.76 0 0 0-4.22-4.45A5.36 5.36 0 0 0 60 32.56z"/>
        <path style="fill: #a38977;" d="M89.14 26.31a8.71 8.71 0 0 1 .68 3.78 6.32 6.32 0 0 1-1.36 3.65A8.41 8.41 0 0 1 85.25 36a16.5 16.5 0 0 1-3.76 1.15 24.19 24.19 0 0 0-3.65.86 7.46 7.46 0 0 0-2.92 2 21.52 21.52 0 0 0-3.76 6.33l-1.74-.8.92-1.74c.31-.58.68-1.13 1-1.7s.77-1.09 1.16-1.63A14.74 14.74 0 0 1 73.92 39a8.78 8.78 0 0 1 3.54-2.08 24.9 24.9 0 0 1 3.88-.67 15.66 15.66 0 0 0 3.66-.87 7.83 7.83 0 0 0 3.11-2 6 6 0 0 0 1.48-3.36 8.59 8.59 0 0 0-.45-3.71zM87.21 44.65a7.51 7.51 0 0 1 2.9 2.42 6.49 6.49 0 0 1 1.24 3.69 9.45 9.45 0 0 1-.78 3.86 11.7 11.7 0 0 1-2 3.39 13 13 0 0 1-6.93 3.76c-2.52.61-5 .84-7.44 1.25a21 21 0 0 0-6.74 2.05 48.86 48.86 0 0 0-6 4 29.49 29.49 0 0 0-5 5.11 33.64 33.64 0 0 0-3.66 6.18l-2.22-1a32.63 32.63 0 0 1 3.82-6.74 29.25 29.25 0 0 1 5.45-5.56 44.81 44.81 0 0 1 6.45-4.21 23.19 23.19 0 0 1 7.56-2.09c2.51-.34 5-.52 7.34-1a11.74 11.74 0 0 0 6.21-2.88 11.74 11.74 0 0 0 2-2.84 8.36 8.36 0 0 0 1-3.34 6.27 6.27 0 0 0-.75-3.41 7.91 7.91 0 0 0-2.45-2.64z"/>
        <path style="fill: #a38977;" d="M86 66a5.41 5.41 0 0 1-1.39 3.77A4.85 4.85 0 0 1 80.7 71a6.34 6.34 0 0 1-2.08-.46 7.83 7.83 0 0 1-1.81-1.12c-1.09-.87-2-1.87-3-2.61a6.11 6.11 0 0 0-3.36-1.28 9.25 9.25 0 0 0-3.62.66A30.52 30.52 0 0 0 60 70.07l-1.35-2a32.46 32.46 0 0 1 7.54-3.59 10.87 10.87 0 0 1 4.36-.48 7.5 7.5 0 0 1 4 1.83c1.09.92 1.93 2 2.89 2.88a5.69 5.69 0 0 0 3.36 1.67 4.4 4.4 0 0 0 3.64-.84A5.26 5.26 0 0 0 86 66zM87.3 23.47a2.86 2.86 0 0 0-2.56-2.11 5.31 5.31 0 0 0-3.3.93 14 14 0 0 0-4.5 5.3 32.21 32.21 0 0 0-2.52 6.6 55.18 55.18 0 0 0-1.36 7l-2-.33A56.94 56.94 0 0 1 73 33.75a33.45 33.45 0 0 1 3.1-6.66 14.73 14.73 0 0 1 5.12-5.23 5.68 5.68 0 0 1 3.58-.74 3 3 0 0 1 2.5 2.35zM19.34 30.66a7.73 7.73 0 0 1-1.39-2.36 4.7 4.7 0 0 1-.18-2.83 4.43 4.43 0 0 1 1.75-2.33A8.3 8.3 0 0 1 22.11 22a10.87 10.87 0 0 1 5.65.06 17.55 17.55 0 0 1 5.11 2.35 34.87 34.87 0 0 1 8 7.65 65.71 65.71 0 0 1 6 9.25l-2.08 1.09a70.2 70.2 0 0 0-5.48-9.13A33.16 33.16 0 0 0 32 25.62a16.16 16.16 0 0 0-4.59-2.37 9.71 9.71 0 0 0-5-.29c-1.62.39-3.37 1.15-3.95 2.72a4.21 4.21 0 0 0-.09 2.5 8.77 8.77 0 0 0 .97 2.48z"/>
        <path style="fill: #a38977;" d="M41 6.11a13 13 0 0 0-6.39 3 8 8 0 0 0-2.5 6.21A17.36 17.36 0 0 0 33.88 22a46.64 46.64 0 0 0 3.54 6.17l-1.31.87a40.92 40.92 0 0 1-3.46-6.5 18.49 18.49 0 0 1-1.58-7.26 9.36 9.36 0 0 1 .82-3.69 8.2 8.2 0 0 1 2.31-3A12.36 12.36 0 0 1 41 6.11zM11.43 25.8a12.73 12.73 0 0 0-3.3 8.45c.07 3.08 1.86 5.79 4.1 7.81A29.49 29.49 0 0 0 20 46.87a45.57 45.57 0 0 0 8.79 2.84c3 .68 6.12 1.13 9.23 1.83a22.28 22.28 0 0 1 9 3.84 19.38 19.38 0 0 1 5.82 8 45.11 45.11 0 0 1 2.7 9.26l-2.35.36a42.79 42.79 0 0 0-2.46-8.8 17.82 17.82 0 0 0-5-7.19 20.3 20.3 0 0 0-8.1-3.66c-3-.75-6.1-1.28-9.18-2.05-6.14-1.53-12.24-4.05-17-8.49A14.3 14.3 0 0 1 8.6 39a10.08 10.08 0 0 1-1.09-4.71 10.89 10.89 0 0 1 1.18-4.63 14.33 14.33 0 0 1 2.74-3.86z"/>
        <path style="fill: #a38977;" d="M2.11 46.37a4.17 4.17 0 0 1 .69-4.91 3.45 3.45 0 0 1 2.4-1.21 7.5 7.5 0 0 1 2.67.33 24.22 24.22 0 0 1 4.83 2.12c1.53.84 3 1.76 4.48 2.7l-.76 1.11c-1.39-1-2.79-2-4.24-2.93a23.43 23.43 0 0 0-4.52-2.33 6.91 6.91 0 0 0-2.43-.46 3 3 0 0 0-2.17.93 4 4 0 0 0-1.24 2.14 4.2 4.2 0 0 0 .29 2.51zM6.32 62.73a20.3 20.3 0 0 0 4.93 5 15.21 15.21 0 0 0 6.29 2.68 14.32 14.32 0 0 0 6.72-.51 21.22 21.22 0 0 0 3.16-1.3A29.37 29.37 0 0 1 30.7 67a20.09 20.09 0 0 1 14.53.12 16.79 16.79 0 0 1 6.25 4.19 10.09 10.09 0 0 1 2.09 3.39 5.81 5.81 0 0 1-.1 4.35l-2.2-1c.75-1.48-.1-3.61-1.52-5.17a15.33 15.33 0 0 0-5.33-3.78 18.21 18.21 0 0 0-13.16-.54 27.34 27.34 0 0 0-3.18 1.35 19.92 19.92 0 0 1-3.44 1.26 15.52 15.52 0 0 1-7.3.19 15.52 15.52 0 0 1-6.45-3.22 19.65 19.65 0 0 1-4.57-5.41z"/>
        <path style="fill: #a38977;" d="M20.55 82.53A10.32 10.32 0 0 1 18.8 79a6.44 6.44 0 0 1 .2-4 7.83 7.83 0 0 1 2.55-3.22c.55-.41 1.15-.75 1.73-1.11l1.86-.85.38 1.18-1.79.65c-.55.29-1.14.55-1.67.88a7 7 0 0 0-2.52 2.69 6 6 0 0 0-.44 3.71 10.17 10.17 0 0 0 1.45 3.6zM27.37 65.08a7.66 7.66 0 0 1-4.85-4.14 5.14 5.14 0 0 1-.23-3.38 6 6 0 0 1 1.93-2.85 14.67 14.67 0 0 1 6.1-2.71 38.33 38.33 0 0 1 6.53-.87v2.06a36.57 36.57 0 0 0-6.26.35 13.44 13.44 0 0 0-5.72 2 5 5 0 0 0-1.81 2.26 4.43 4.43 0 0 0 0 2.93 7.43 7.43 0 0 0 4.31 4.31z"/>
        <path style="fill: #a38977;" d="M29.81 33a13.51 13.51 0 0 0-4.26 5.74 6.46 6.46 0 0 0-.27 3.45 7.12 7.12 0 0 0 1.53 3.06 16.92 16.92 0 0 0 5.69 4.1 46.86 46.86 0 0 0 6.7 2.55l-.6 1.79a48.47 48.47 0 0 1-6.77-3.08 18 18 0 0 1-5.78-4.78 7.94 7.94 0 0 1-1.48-3.52 7.05 7.05 0 0 1 .53-3.73A13.73 13.73 0 0 1 29.81 33zM39 88.11h12.26L53 82.88l-8 .48a48.75 48.75 0 0 1-6 4.75z"/>
        <path d="M51.49 44.9s-1.49-2.59 1.42-5.09 6.53-.81 6.53-.81a5.87 5.87 0 0 0-2.75 2.61c-1.94 4.64-5.2 3.29-5.2 3.29z" stroke-width="1.41" stroke-miterlimit="10" fill="#84a987" stroke="#84a987"/>
        <path d="M45.06 32s-2.32-1-1.64-4.16a5.42 5.42 0 0 1 4-3.87 5 5 0 0 0-.53 3.17c1.06 4.14-1.83 4.86-1.83 4.86z" stroke-width="1.19" fill="#3f758a" stroke="#3f758a" stroke-miterlimit="10"/>
        <path d="M17.48 23s-1.32 1.72-3.82.48a4.66 4.66 0 0 1-2.38-4.15 4.28 4.28 0 0 0 2.53 1.11c3.66.01 3.67 2.56 3.67 2.56z" stroke-width="1.03" fill="#7d864b" stroke="#7d864b" stroke-miterlimit="10"/>
        <path d="M16.72 73.72s-2.13-1.44-4.47.9a5.52 5.52 0 0 0-1.11 5.57A5.07 5.07 0 0 1 13.57 78c4.11-1.39 3.15-4.28 3.15-4.28z" stroke-width="1.22" fill="#b85636" stroke="#b85636" stroke-miterlimit="10"/>
        <path d="M11.18 45.12s-1.65-2-4.54-.39a5.52 5.52 0 0 0-2.62 5A5.07 5.07 0 0 1 7 48.32c4.29-.16 4.18-3.2 4.18-3.2z" fill="#732813" stroke="#732813" stroke-width="1.22" stroke-miterlimit="10"/>
        <path d="M25.26 57.93s-1 2.49 1.87 4.38 5.93-.05 5.93-.05a5.29 5.29 0 0 1-2.77-2c-2.29-3.92-5.03-2.33-5.03-2.33z" stroke-width="1.27" fill="#d0b46d" stroke="#d0b46d" stroke-miterlimit="10"/>
        <path d="M71 59.55s3 .25 4.07-3.48-2-6.34-2-6.34a6 6 0 0 1-1.22 3.64c-3.47 3.77-.85 6.18-.85 6.18z" stroke-width="1.43" fill="#d0b46d" stroke="#d0b46d" stroke-miterlimit="10"/>
        <path d="M69.39 67.19s2.15-1.19 3.82 2.17a8.74 8.74 0 0 1 0 6.92 6.63 6.63 0 0 0-1.77-3.23c-3.44-2.65-2.05-5.86-2.05-5.86z" stroke-width="1.28" fill="#d0b46d" stroke="#d0b46d" stroke-miterlimit="10"/>
        <path d="M88.43 51.34s1-2.5-1.91-4.36-5.93.11-5.93.11a5.29 5.29 0 0 1 2.79 2c2.32 3.91 5.05 2.25 5.05 2.25z" stroke-width="1.27" fill="#732813" stroke="#732813" stroke-miterlimit="10"/>
        <path d="M28.15 43.77s2 .9 3.63-1.41a4.72 4.72 0 0 0 .12-4.85 4.33 4.33 0 0 1-1.72 2.21c-3.26 1.76-2.03 4.05-2.03 4.05z" stroke-width="1.04" fill="#a11e16" stroke="#a11e16" stroke-miterlimit="10"/>
        <path d="M6.76 31.11a2.65 2.65 0 0 0-.45-3.41 4.17 4.17 0 0 0-4.13-1.12 3.82 3.82 0 0 1 1.53 1.93c.82 3.18 3.05 2.6 3.05 2.6z" stroke-width=".92" fill="#a11e16" stroke="#a11e16" stroke-miterlimit="10"/>
        <path d="M48.47 7.05a2.6 2.6 0 0 0 2.76-1.93A4.09 4.09 0 0 0 50.34 1a3.75 3.75 0 0 1-1 2.21c-2.34 2.17-.87 3.84-.87 3.84z" stroke-width=".9" fill="#6a494f" stroke="#6a494f" stroke-miterlimit="10"/>
        <path d="M79.41 21.44a2.6 2.6 0 0 0 1.71-2.91 4.09 4.09 0 0 0-2.53-3.35 3.75 3.75 0 0 1 0 2.42c-1.25 2.95.82 3.84.82 3.84z" stroke-width=".9" fill="#a11e16" stroke="#a11e16" stroke-miterlimit="10"/>
        <path d="M89.77 58.57s1.11 2.08 4 1.19a5.06 5.06 0 0 0 3.29-4 4.64 4.64 0 0 1-2.9.74c-3.92-.68-4.39 2.07-4.39 2.07z" stroke-width="1.11" fill="#732813" stroke="#732813" stroke-miterlimit="10"/>
        <path d="M76.65 64.82a2.72 2.72 0 0 0 2.51 2.48 4.27 4.27 0 0 0 4-1.7 3.92 3.92 0 0 1-2.46-.6c-2.62-2-4.05-.18-4.05-.18z" stroke-width=".94" fill="#d0b46d" stroke="#d0b46d" stroke-miterlimit="10"/>
        <path stroke-miterlimit="10" fill="#3f758a" stroke="#3f758a" stroke-width=".94px" d="M56.27 53.89a2.72 2.72 0 0 0 3.41-.89 4.26 4.26 0 0 0 .59-4.35 3.91 3.91 0 0 1-1.76 1.81c-3.12 1.24-2.24 3.43-2.24 3.43zM86.07 32.91a2.72 2.72 0 0 0 1.85-3 4.27 4.27 0 0 0-2.56-3.57 3.92 3.92 0 0 1 0 2.53c-1.42 3.05.71 4.04.71 4.04z"/>
        <path d="M67.45 34.41a2.76 2.76 0 0 0-2.77-2.27 4.33 4.33 0 0 0-3.93 2.09 4 4 0 0 1 2.54.38c2.88 1.81 4.16-.2 4.16-.2z" stroke-width=".95" fill="#b85636" stroke="#b85636" stroke-miterlimit="10"/>
        <path d="M48.82 66.35a2.72 2.72 0 0 0-.71-3.45 4.27 4.27 0 0 0-4.31-.84 3.92 3.92 0 0 1 1.71 1.87c1.08 3.17 3.31 2.42 3.31 2.42z" stroke-width=".94" fill="#6a494f" stroke="#6a494f" stroke-miterlimit="10"/>
        <path d="M21.89 75a2.72 2.72 0 0 0-.44 3.5 4.27 4.27 0 0 0 3.81 2.18 3.92 3.92 0 0 1-1-2.32C24.25 75 21.89 75 21.89 75z" stroke-width=".94" stroke-miterlimit="10" fill="#84a987" stroke="#84a987"/>
        <path fill="#7d864b" stroke="#7d864b" stroke-width="1.11px" stroke-miterlimit="10" d="M63.09 18.8s-.36-2.33-3.38-2.46A5.06 5.06 0 0 0 55.28 19a4.63 4.63 0 0 1 3 .26c3.46 1.98 4.81-.46 4.81-.46zM20.72 25.27s-1.78 1.55-.26 4.17a5.05 5.05 0 0 0 4.66 2.3 4.63 4.63 0 0 1-1.38-2.66c-.23-3.97-3.02-3.81-3.02-3.81z"/>
        <path d="M33.57 13.86a2.52 2.52 0 0 1 2-2.59 4 4 0 0 1 3.94 1.07 3.65 3.65 0 0 0-2.19.85c-2.2 2.21-3.75.67-3.75.67z" stroke-width=".87" fill="#d0b46d" stroke="#d0b46d" stroke-miterlimit="10"/>
        <path d="M89.64 35a2.53 2.53 0 0 1 2.63-2 4 4 0 0 1 3.5 2.1 3.64 3.64 0 0 0-2.34.23c-2.72 1.54-3.79-.33-3.79-.33z" stroke-width=".87" fill="#3f758a" stroke="#3f758a" stroke-miterlimit="10"/>
        <path d="M21.65 55.64S21.3 58 18.3 58.1a5 5 0 0 1-4.43-2.67 4.63 4.63 0 0 0 3-.28c3.42-1.93 4.78.49 4.78.49z" stroke-width="1.11" fill="#d0b46d" stroke="#d0b46d" stroke-miterlimit="10"/>
        <path d="M48.29 74.89s-.34 2.32-3.35 2.46a5 5 0 0 1-4.43-2.67 4.62 4.62 0 0 0 3-.28c3.42-1.93 4.78.49 4.78.49z" stroke-width="1.11" fill="#6a494f" stroke="#6a494f" stroke-miterlimit="10"/>
        <path d="M5.09 38.74a2.53 2.53 0 0 1-3.27-.23 4 4 0 0 1-1.3-3.87A3.65 3.65 0 0 0 2.45 36c3.06.59 2.64 2.74 2.64 2.74z" stroke-width=".87" fill="#a11e16" stroke="#a11e16" stroke-miterlimit="10"/>
        <path d="M9.7 35.29s-.8-2.19 1.77-3.74a5 5 0 0 1 5.15.24 4.61 4.61 0 0 0-2.47 1.65C12 36.76 9.7 35.29 9.7 35.29z" stroke-width="1.1" fill="#7d864b" stroke="#7d864b" stroke-miterlimit="10"/>
        <path d="M16.7 68s-2.26.58-3.55-2.13a5 5 0 0 1 .76-5.1 4.61 4.61 0 0 0 1.4 2.62C18.41 65.85 16.7 68 16.7 68z" stroke-width="1.1" stroke-miterlimit="10" fill="#84a987" stroke="#84a987"/>
        <path d="M22.13 45.27s-2.87.49-4.19-3S19.39 36 19.39 36a5.74 5.74 0 0 0 1.47 3.4c3.6 3.34 1.27 5.87 1.27 5.87z" stroke-width="1.38" fill="#732813" stroke="#732813" stroke-miterlimit="10"/>
        <path d="M92.55 49.85a2.52 2.52 0 0 1 1.23-3 4 4 0 0 1 4.08 0A3.65 3.65 0 0 0 96 48.19c-1.54 2.73-3.45 1.66-3.45 1.66z" stroke-width=".87" fill="#7d864b" stroke="#7d864b" stroke-miterlimit="10"/>
        <path d="M45.43 48.47s-1.43 2.44-4.85 1.26-3.76-5-3.76-5a5.56 5.56 0 0 0 3.44 1c4.74-.57 5.17 2.74 5.17 2.74z" stroke-width="1.33" stroke-miterlimit="10" fill="#84a987" stroke="#84a987"/>
        <path d="M74.8 44.51s-.76-2.16 1.77-3.65a4.91 4.91 0 0 1 5 .28 4.51 4.51 0 0 0-2.43 1.59c-2.07 3.27-4.34 1.78-4.34 1.78z" stroke-width="1.08" fill="#b85636" stroke="#b85636" stroke-miterlimit="10"/>
        <path d="M51.41 9.2a2.83 2.83 0 0 1 3.45 1.26 4.45 4.45 0 0 1 .21 4.54 4.08 4.08 0 0 0-1.66-2c-3.12-1.61-2-3.8-2-3.8z" stroke-width=".98" fill="#6a494f" stroke="#6a494f" stroke-miterlimit="10"/>
        <path d="M66.25 16.3a2.83 2.83 0 0 1 .53-3.64 4.45 4.45 0 0 1 4.43-1.14 4.09 4.09 0 0 0-1.67 2c-.92 3.48-3.29 2.78-3.29 2.78z" stroke-width=".98" fill="#7d864b" stroke="#7d864b" stroke-miterlimit="10"/>
        <path d="M71.39 31.38a2.83 2.83 0 0 1-1.71-3.25 4.45 4.45 0 0 1 2.92-3.53 4.08 4.08 0 0 0-.15 2.63c1.24 3.28-1.06 4.15-1.06 4.15z" stroke-width=".98" fill="#b85636" stroke="#b85636" stroke-miterlimit="10"/>
        <path d="M30.39 11.77s1.47-1.84-.48-4.15a5.06 5.06 0 0 0-5-1.44 4.64 4.64 0 0 1 1.83 2.38c.94 3.86 3.65 3.21 3.65 3.21z" stroke-width="1.11" fill="#d0b46d" stroke="#d0b46d" stroke-miterlimit="10"/>
        <path d="M30 15.92a2.56 2.56 0 0 0-2.62-2 4 4 0 0 0-3.6 2 3.68 3.68 0 0 1 2.36.29c2.7 1.61 3.86-.29 3.86-.29z" stroke-width=".89" fill="#d0b46d" stroke="#d0b46d" stroke-miterlimit="10"/>
        <path d="M10.83 69.85A2.56 2.56 0 0 0 7.62 69a4 4 0 0 0-2.54 3.26 3.68 3.68 0 0 1 2.29-.64c3.14.38 3.46-1.77 3.46-1.77z" stroke-width=".89" fill="#b85636" stroke="#b85636" stroke-miterlimit="10"/>
        <path d="M38.29 34.41a2.56 2.56 0 0 0-2.62-2 4 4 0 0 0-3.6 2 3.69 3.69 0 0 1 2.36.29c2.72 1.61 3.86-.29 3.86-.29z" stroke-width=".89" fill="#3f758a" stroke="#3f758a" stroke-miterlimit="10"/>
    </g>
    <path class="logo__text" d="M120 44.74a2.16 2.16 0 0 0-.4-.12h-.27a.89.89 0 0 0-.82.41 2.07 2.07 0 0 0-.25 1.1 2.46 2.46 0 0 0 0 .43 2.35 2.35 0 0 0 .07.32h1.43v1.67h-1.45V55.49c0 .24 0 .42.06.55h-2.72q0-.2.06-.55t0-.8v-1-5.18h-1.14v-1.66h1.14a8.23 8.23 0 0 1 .18-1.82 2.54 2.54 0 0 1 .53-1.05 3.35 3.35 0 0 1 2.69-1.05h.3a1.55 1.55 0 0 1 .59.07zM120 51.42a6.2 6.2 0 0 1 .24-1.7 4.93 4.93 0 0 1 .74-1.54 4 4 0 0 1 1.23-1.12 3.7 3.7 0 0 1 3.48 0 4 4 0 0 1 1.31 1.12 4.92 4.92 0 0 1 .73 1.54 6 6 0 0 1 0 3.4 4.93 4.93 0 0 1-.73 1.53 4 4 0 0 1-1.23 1.12 3.7 3.7 0 0 1-3.48 0 4 4 0 0 1-1.29-1.11 4.94 4.94 0 0 1-.74-1.53 6.17 6.17 0 0 1-.26-1.71zm5.23 0a6.85 6.85 0 0 0-.31-2.26q-.31-.86-1-.86t-1 .86a8.43 8.43 0 0 0 0 4.52q.31.86 1 .86t1-.86a6.85 6.85 0 0 0 .33-2.26zM131.62 46.85a5.61 5.61 0 0 1 .15.72 4.32 4.32 0 0 1 .06.59A3.74 3.74 0 0 1 133 47a3.13 3.13 0 0 1 1.65-.4v2.14h-.23a2.14 2.14 0 0 0-.37 0 1.67 1.67 0 0 0-1.38.67 2.09 2.09 0 0 0-.38.72 6.38 6.38 0 0 0-.28 1.74v3.63c0 .24 0 .42.06.55h-2.83q0-.2.06-.55t0-.8v-1-3.52-1q0-.49-.06-1 0-.44-.1-.8a5.38 5.38 0 0 0-.11-.55zM143.43 43q-.09.85-.11 2.41t0 4.06v4.07q0 1.57.11 2.41h-2.94q.09-.85.11-2.41t0-4.07v-4.06q0-1.56-.11-2.41zM147.46 46.85a7.79 7.79 0 0 1 .25 1 3.28 3.28 0 0 1 .92-.83 2.43 2.43 0 0 1 1.32-.35 2.38 2.38 0 0 1 1.14.25 2.09 2.09 0 0 1 .76.69 3 3 0 0 1 .42 1 5.15 5.15 0 0 1 .13 1.15V55.5c0 .24 0 .42.06.55h-2.72q0-.2.06-.55t0-.8v-1-3.33a2.9 2.9 0 0 0-.23-1.33.79.79 0 0 0-.75-.41 1.19 1.19 0 0 0-.77.29 1.06 1.06 0 0 0-.35.87v5.67q0 .35.3.54h-2.72q0-.2.06-.55t0-.8v-1V49.37v-.87q0-.45-.08-.89a5.39 5.39 0 0 0-.15-.76zM157 44.09a3.06 3.06 0 0 0-.05.45v2.34h1.49v1.67H157v4.25a6.44 6.44 0 0 0 0 .85 1.8 1.8 0 0 0 .14.52.52.52 0 0 0 .25.26 1 1 0 0 0 .4.07h.34l.34-.05v1.49a5.42 5.42 0 0 1-.91.24 5.57 5.57 0 0 1-1 .09 2.19 2.19 0 0 1-1.1-.24 1.52 1.52 0 0 1-.62-.65 3 3 0 0 1-.27-1 12.8 12.8 0 0 1-.06-1.34v-4.53h-1.11v-1.66h1.11v-1.48-.78a3.8 3.8 0 0 0-.05-.51zM161.85 52.62a3.13 3.13 0 0 0 .23.7 2.34 2.34 0 0 0 .38.59 1.81 1.81 0 0 0 .53.41 1.43 1.43 0 0 0 .66.15 2.09 2.09 0 0 0 1-.25 4.88 4.88 0 0 0 .92-.61l.87 1a5 5 0 0 1-1.47 1.14 4.12 4.12 0 0 1-2 .47 3.46 3.46 0 0 1-1.52-.34 3.91 3.91 0 0 1-1.25-1 4.62 4.62 0 0 1-.85-1.46 5.38 5.38 0 0 1-.32-1.89 6.56 6.56 0 0 1 .26-1.87 4.93 4.93 0 0 1 .77-1.57 3.85 3.85 0 0 1 1.25-1.09 3.52 3.52 0 0 1 1.72-.41 3.14 3.14 0 0 1 1.49.34 2.71 2.71 0 0 1 1 .92 4.41 4.41 0 0 1 .54 1.36 9.67 9.67 0 0 1 .27 1.76zm1.29-2.16a1.45 1.45 0 0 0 .64-.36.74.74 0 0 0 .14-.45 2.05 2.05 0 0 0-.26-1 .85.85 0 0 0-.79-.47.82.82 0 0 0-.56.21 1.7 1.7 0 0 0-.4.55 2.94 2.94 0 0 0-.24.78 5.36 5.36 0 0 0-.07.89v.24a.91.91 0 0 0 0 .18zM174.1 46.65l.67.49a11.25 11.25 0 0 0-.27 1.86q-.05 1-.05 1.94t0 2.31v2.5a5 5 0 0 1-.23 1.7 2.39 2.39 0 0 1-.74 1 3.6 3.6 0 0 1-1.51.74 7.12 7.12 0 0 1-1.54.18h-.93c-.3 0-.6-.07-.87-.12l-.74-.15-.52-.11.56-2.18a3.18 3.18 0 0 0 1 .64 3.74 3.74 0 0 0 1.44.28 1.37 1.37 0 0 0 1.19-.49 2 2 0 0 0 .44-1.14v-.26-.26a3.1 3.1 0 0 1-.77.33 3.31 3.31 0 0 1-.92.13 2.83 2.83 0 0 1-1.22-.27 3.08 3.08 0 0 1-1-.8 3.88 3.88 0 0 1-.72-1.3 5.54 5.54 0 0 1-.26-1.79 6.77 6.77 0 0 1 .29-2 5.49 5.49 0 0 1 .82-1.67 4.31 4.31 0 0 1 1.24-1.15 3 3 0 0 1 1.57-.44 3.44 3.44 0 0 1 1 .16 3 3 0 0 1 1.09.63zM172 50a3.81 3.81 0 0 0-.17-1.34.67.67 0 0 0-.68-.42 1.07 1.07 0 0 0-.7.25 1.81 1.81 0 0 0-.49.66 4.07 4.07 0 0 0-.29 1 7.26 7.26 0 0 0-.1 1.23 6.89 6.89 0 0 0 .09 1.15 3.19 3.19 0 0 0 .29.93 1.72 1.72 0 0 0 .51.62 1.25 1.25 0 0 0 .76.23 1.28 1.28 0 0 0 .45-.08.44.44 0 0 0 .33-.23.36.36 0 0 0 0-.11v-.24V50zM178.64 46.85a5.61 5.61 0 0 1 .15.72 4.32 4.32 0 0 1 .06.59A3.74 3.74 0 0 1 180 47a3.13 3.13 0 0 1 1.65-.4v2.14h-.23a2.14 2.14 0 0 0-.37 0 1.67 1.67 0 0 0-1.38.67 2.09 2.09 0 0 0-.38.72 6.38 6.38 0 0 0-.28 1.74v3.63c0 .24 0 .42.06.55h-2.83q0-.2.06-.55t0-.8v-1-3.52-1q0-.49-.06-1 0-.44-.1-.8a5.38 5.38 0 0 0-.11-.55zM187 56a3.6 3.6 0 0 1-.19-.36l-.12-.27a6.33 6.33 0 0 1-1 .59 2.61 2.61 0 0 1-1.18.26 3 3 0 0 1-.94-.15 2.58 2.58 0 0 1-.86-.48 2.47 2.47 0 0 1-.64-.83 2.78 2.78 0 0 1-.24-1.22 3 3 0 0 1 .32-1.42 3.34 3.34 0 0 1 .92-1.08 5.79 5.79 0 0 1 1.43-.81 15.86 15.86 0 0 1 1.87-.61 2.16 2.16 0 0 0-.49-1 1.25 1.25 0 0 0-1-.37 3.06 3.06 0 0 0-1.2.25 6.59 6.59 0 0 0-1.05.55v-2.33l.63-.06h.66a11 11 0 0 1 2.49.23 3.15 3.15 0 0 1 1.56.86 2.61 2.61 0 0 1 .54.76 4.15 4.15 0 0 1 .28.83 4.93 4.93 0 0 1 .11.81v2.97a10.75 10.75 0 0 0 .12 1.62 7 7 0 0 0 .3 1.28zm-.45-4.72a3.52 3.52 0 0 0-.71.16 2.49 2.49 0 0 0-.71.37 2.11 2.11 0 0 0-.54.61 1.66 1.66 0 0 0-.22.87 1.17 1.17 0 0 0 .32.86 1.09 1.09 0 0 0 .81.32 1.43 1.43 0 0 0 .63-.14 1.36 1.36 0 0 0 .43-.3zM193.67 44.09a3.06 3.06 0 0 0-.05.45v2.34h1.49v1.67h-1.49v4.25a6.44 6.44 0 0 0 0 .85 1.8 1.8 0 0 0 .14.52.52.52 0 0 0 .25.26 1 1 0 0 0 .4.07h.34l.34-.05v1.49a5.42 5.42 0 0 1-.91.24 5.57 5.57 0 0 1-1 .09 2.19 2.19 0 0 1-1.1-.24 1.52 1.52 0 0 1-.62-.65 3 3 0 0 1-.27-1 12.8 12.8 0 0 1-.06-1.34v-4.53H190v-1.66h1.11v-1.48-.78a3.8 3.8 0 0 0-.05-.51zM198.47 52.62a3.13 3.13 0 0 0 .23.7 2.34 2.34 0 0 0 .38.59 1.81 1.81 0 0 0 .53.41 1.43 1.43 0 0 0 .66.15 2.09 2.09 0 0 0 1-.25 4.88 4.88 0 0 0 .92-.61l.87 1a5 5 0 0 1-1.47 1.14 4.12 4.12 0 0 1-2 .47 3.46 3.46 0 0 1-1.52-.34 3.91 3.91 0 0 1-1.25-1 4.62 4.62 0 0 1-.85-1.46 5.38 5.38 0 0 1-.32-1.89 6.56 6.56 0 0 1 .26-1.87 4.93 4.93 0 0 1 .77-1.57 3.85 3.85 0 0 1 1.25-1.09 3.52 3.52 0 0 1 1.72-.41 3.14 3.14 0 0 1 1.49.34 2.71 2.71 0 0 1 1 .92 4.41 4.41 0 0 1 .54 1.36A9.67 9.67 0 0 1 203 51zm1.29-2.16a1.45 1.45 0 0 0 .64-.36.74.74 0 0 0 .14-.45 2.05 2.05 0 0 0-.26-1 .85.85 0 0 0-.79-.47.82.82 0 0 0-.56.21 1.7 1.7 0 0 0-.4.55 2.94 2.94 0 0 0-.24.78 5.36 5.36 0 0 0-.07.89v.24a.91.91 0 0 0 0 .18zM208.69 44.87v-.39-1.03-.42h2.58q0 1-.07 1.74t-.2 1.38V50.62q0 .79.06 1.64t.08 1.63q0 .77.11 1.35a4.49 4.49 0 0 0 .14.8H209l-.06-.29c0-.13-.06-.27-.1-.4a6.58 6.58 0 0 1-.91.63 2.37 2.37 0 0 1-1.2.28 2.71 2.71 0 0 1-2.23-1.12 4 4 0 0 1-.62-1.29 6 6 0 0 1-.22-1.66 7.31 7.31 0 0 1 .27-2 6.12 6.12 0 0 1 .8-1.77 4.45 4.45 0 0 1 1.3-1.29 3.21 3.21 0 0 1 1.79-.5 3.25 3.25 0 0 1 .48 0l.39.07zm0 3.94a1.45 1.45 0 0 0 0-.28.27.27 0 0 0-.07-.14.72.72 0 0 0-.53-.16 1.21 1.21 0 0 0-.77.28 2.34 2.34 0 0 0-.61.77 4.66 4.66 0 0 0-.4 1.15 6.56 6.56 0 0 0-.15 1.41 3.46 3.46 0 0 0 .41 1.84 1.23 1.23 0 0 0 1.08.64 1.16 1.16 0 0 0 .61-.18 1.08 1.08 0 0 0 .44-.56zM220.62 43v5.24h3v-.79-.81-.93-1-1V43h2.92q-.09.85-.11 2.41t0 4.06v4.07q0 1.57.11 2.41h-3.04q0-.54.08-1.56t0-2.43v-.91-.82h-3.04v4.2q0 1.01.08 1.56h-2.94q.09-.85.11-2.41t0-4.07v-4.06q0-1.56-.1-2.45zM230.71 52.62a3.13 3.13 0 0 0 .23.7 2.34 2.34 0 0 0 .38.59 1.81 1.81 0 0 0 .53.41 1.43 1.43 0 0 0 .66.15 2.09 2.09 0 0 0 1-.25 4.88 4.88 0 0 0 .92-.61l.87 1a5 5 0 0 1-1.47 1.14 4.12 4.12 0 0 1-2 .47 3.46 3.46 0 0 1-1.52-.34 3.91 3.91 0 0 1-1.25-1 4.62 4.62 0 0 1-.85-1.46 5.38 5.38 0 0 1-.32-1.89 6.56 6.56 0 0 1 .26-1.87 4.93 4.93 0 0 1 .77-1.57 3.85 3.85 0 0 1 1.24-1.09 3.52 3.52 0 0 1 1.72-.41 3.14 3.14 0 0 1 1.49.34 2.71 2.71 0 0 1 1 .92 4.41 4.41 0 0 1 .54 1.36 9.67 9.67 0 0 1 .27 1.76zm1.29-2.16a1.45 1.45 0 0 0 .64-.36.74.74 0 0 0 .14-.45 2.05 2.05 0 0 0-.26-1 .85.85 0 0 0-.79-.47.82.82 0 0 0-.56.21 1.7 1.7 0 0 0-.4.55 2.94 2.94 0 0 0-.24.78 5.36 5.36 0 0 0-.07.89v.24a.91.91 0 0 0 0 .18zM241 56a3.6 3.6 0 0 1-.19-.36l-.12-.27a6.33 6.33 0 0 1-1 .59 2.61 2.61 0 0 1-1.18.26 3 3 0 0 1-.94-.15 2.58 2.58 0 0 1-.86-.48 2.47 2.47 0 0 1-.64-.83 2.78 2.78 0 0 1-.24-1.22 3 3 0 0 1 .32-1.42 3.34 3.34 0 0 1 .92-1.08 5.79 5.79 0 0 1 1.43-.81 15.86 15.86 0 0 1 1.87-.61 2.16 2.16 0 0 0-.49-1 1.25 1.25 0 0 0-1-.37 3.06 3.06 0 0 0-1.2.25 6.59 6.59 0 0 0-1.05.55v-2.33l.63-.06h.66a11 11 0 0 1 2.49.23 3.15 3.15 0 0 1 1.56.86 2.61 2.61 0 0 1 .54.76 4.15 4.15 0 0 1 .28.83 4.93 4.93 0 0 1 .11.81v2.97a10.75 10.75 0 0 0 .12 1.62 7 7 0 0 0 .3 1.28zm-.45-4.72a3.52 3.52 0 0 0-.71.16 2.49 2.49 0 0 0-.71.37 2.11 2.11 0 0 0-.54.61 1.66 1.66 0 0 0-.22.87 1.17 1.17 0 0 0 .32.86 1.09 1.09 0 0 0 .81.32 1.43 1.43 0 0 0 .63-.14 1.36 1.36 0 0 0 .43-.3zM244.74 56q0-.2.06-.55t0-.8v-1-7-.8-1.08-1q0-.45-.06-.71h2.58v12.42c0 .24 0 .42.06.55zM252.1 44.09a3.06 3.06 0 0 0-.05.45v2.34h1.49v1.67H252v4.25a6.44 6.44 0 0 0 0 .85 1.8 1.8 0 0 0 .14.52.52.52 0 0 0 .25.26 1 1 0 0 0 .4.07h.34l.34-.05v1.49a5.42 5.42 0 0 1-.91.24 5.57 5.57 0 0 1-1 .09 2.19 2.19 0 0 1-1.1-.24 1.52 1.52 0 0 1-.62-.65 3 3 0 0 1-.27-1 12.8 12.8 0 0 1-.06-1.34v-4.53h-1.11v-1.66h1.11v-1.48-.78a3.8 3.8 0 0 0-.05-.51zM256.95 47.37a3.88 3.88 0 0 1 1.21-.58 3.92 3.92 0 0 1 1-.16 2.19 2.19 0 0 1 1.22.31 2.15 2.15 0 0 1 .73.81 3.63 3.63 0 0 1 .36 1.12 7.64 7.64 0 0 1 .1 1.22v5.38q0 .35.06.55h-2.72q0-.2.06-.55t0-.8v-1V50a2.18 2.18 0 0 0-.28-1.11 1 1 0 0 0-1-.49 1 1 0 0 0-.73.22.38.38 0 0 0-.15.23 1.61 1.61 0 0 0 0 .25V55.42c0 .24 0 .42.06.55h-2.72q0-.2.06-.55t0-.8v-1-7-.8-1.08-1q0-.45-.06-.71h2.58zM269.27 49a2.7 2.7 0 0 0-.75-.5 2.14 2.14 0 0 0-.88-.19 1.8 1.8 0 0 0-1.54.78 3.6 3.6 0 0 0-.56 2.14 5.21 5.21 0 0 0 .16 1.35 3.66 3.66 0 0 0 .44 1 2.1 2.1 0 0 0 .69.68 1.71 1.71 0 0 0 .9.25 2.1 2.1 0 0 0 .9-.19 2 2 0 0 0 .7-.54l.78 1a6.18 6.18 0 0 1-1.29.93 3.71 3.71 0 0 1-1.83.44 3.94 3.94 0 0 1-1.41-.27 3.84 3.84 0 0 1-1.3-.83 4.31 4.31 0 0 1-1-1.39 4.78 4.78 0 0 1-.37-2 5.57 5.57 0 0 1 .35-2 4.7 4.7 0 0 1 1-1.63A4.88 4.88 0 0 1 266 47a6 6 0 0 1 2.29-.41h.5l.48.05zM275.3 56a3.6 3.6 0 0 1-.19-.36l-.12-.27a6.33 6.33 0 0 1-1 .59 2.61 2.61 0 0 1-1.18.26 3 3 0 0 1-.94-.15 2.58 2.58 0 0 1-.86-.48 2.47 2.47 0 0 1-.64-.83 2.78 2.78 0 0 1-.24-1.22 3 3 0 0 1 .32-1.42 3.34 3.34 0 0 1 .95-1.12 5.79 5.79 0 0 1 1.43-.81 15.86 15.86 0 0 1 1.87-.61 2.16 2.16 0 0 0-.49-1 1.25 1.25 0 0 0-1-.37 3.06 3.06 0 0 0-1.2.25A6.59 6.59 0 0 0 271 49v-2.28l.63-.06h.66a11 11 0 0 1 2.49.23 3.15 3.15 0 0 1 1.56.86 2.61 2.61 0 0 1 .54.76 4.15 4.15 0 0 1 .28.83 4.93 4.93 0 0 1 .11.81v2.97a10.75 10.75 0 0 0 .12 1.62 7 7 0 0 0 .3 1.28zm-.45-4.72a3.52 3.52 0 0 0-.71.16 2.49 2.49 0 0 0-.71.37 2.11 2.11 0 0 0-.54.61 1.66 1.66 0 0 0-.22.87 1.17 1.17 0 0 0 .32.86 1.09 1.09 0 0 0 .81.32 1.43 1.43 0 0 0 .63-.14 1.36 1.36 0 0 0 .43-.3zM281.43 46.85a5.61 5.61 0 0 1 .15.72 4.32 4.32 0 0 1 .06.59 3.74 3.74 0 0 1 1.19-1.16 3.13 3.13 0 0 1 1.65-.4v2.14h-.23a2.14 2.14 0 0 0-.37 0 1.67 1.67 0 0 0-1.38.67 2.09 2.09 0 0 0-.38.72 6.38 6.38 0 0 0-.28 1.74v3.63c0 .24 0 .42.06.55h-2.83q0-.2.06-.55t0-.8v-1-3.52-1q0-.49-.06-1 0-.44-.1-.8a5.38 5.38 0 0 0-.11-.55zM287.6 52.62a3.13 3.13 0 0 0 .23.7 2.34 2.34 0 0 0 .38.59 1.81 1.81 0 0 0 .53.41 1.43 1.43 0 0 0 .66.15 2.09 2.09 0 0 0 1-.25 4.88 4.88 0 0 0 .92-.61l.87 1a5 5 0 0 1-1.47 1.14 4.12 4.12 0 0 1-2 .47 3.46 3.46 0 0 1-1.52-.34 3.91 3.91 0 0 1-1.25-1 4.62 4.62 0 0 1-.85-1.46 5.38 5.38 0 0 1-.32-1.89 6.56 6.56 0 0 1 .26-1.87 4.93 4.93 0 0 1 .77-1.57 3.85 3.85 0 0 1 1.25-1.09 3.52 3.52 0 0 1 1.72-.41 3.14 3.14 0 0 1 1.49.34 2.71 2.71 0 0 1 1 .92 4.41 4.41 0 0 1 .54 1.36 9.67 9.67 0 0 1 .29 1.79zm1.29-2.16a1.45 1.45 0 0 0 .64-.36.74.74 0 0 0 .14-.45 2.05 2.05 0 0 0-.26-1 .85.85 0 0 0-.79-.47.82.82 0 0 0-.56.21 1.7 1.7 0 0 0-.4.55 2.94 2.94 0 0 0-.24.78 5.36 5.36 0 0 0-.07.89v.24a.91.91 0 0 0 0 .18zM124.08 15.92v2.81l-.95-.13q-.51-.06-1-.08H120.29q0 .58-.06 1.36t0 1.63v8.58q0 2.08.15 3.22h-3.93q.12-1.14.15-3.22t0-5.43v-1.57-1.67-1.62-1.36H114.76q-.53 0-1 .08l-.95.13v-2.01-.73zM128.61 21.71a5.18 5.18 0 0 1 1.61-.78 5.25 5.25 0 0 1 1.27-.22 2.92 2.92 0 0 1 1.62.41 2.87 2.87 0 0 1 1 1.08 4.83 4.83 0 0 1 .48 1.49 10.16 10.16 0 0 1 .13 1.62v6.09c0 .39 0 .75.06 1.07s.05.56.08.74h-3.64c0-.18.06-.42.08-.74s0-.67.06-1.07 0-.82 0-1.27v-4.85a2.92 2.92 0 0 0-.38-1.48 1.37 1.37 0 0 0-1.3-.65 1.39 1.39 0 0 0-1 .29.51.51 0 0 0-.19.3 2.11 2.11 0 0 0 0 .33v7.35c0 .39 0 .75.06 1.07s.05.56.08.74h-3.64c0-.18.06-.42.08-.74s0-.67.06-1.07 0-.82 0-1.27V20.77 19.7v-1.44q0-.74-.06-1.39t-.08-.95h3.44zM140.22 28.72a4.2 4.2 0 0 0 .3.93 3.15 3.15 0 0 0 .51.79 2.41 2.41 0 0 0 .7.54 1.9 1.9 0 0 0 .89.21 2.78 2.78 0 0 0 1.27-.33 6.52 6.52 0 0 0 1.22-.81l1.16 1.31a6.72 6.72 0 0 1-2 1.53 5.49 5.49 0 0 1-2.62.63 4.62 4.62 0 0 1-2-.46 5.23 5.23 0 0 1-1.65-1.27 6.18 6.18 0 0 1-1.14-2 7.17 7.17 0 0 1-.42-2.52 8.76 8.76 0 0 1 .35-2.5 6.59 6.59 0 0 1 1-2.1 5.18 5.18 0 0 1 1.67-1.46 4.72 4.72 0 0 1 2.3-.54 4.2 4.2 0 0 1 2 .45 3.63 3.63 0 0 1 1.36 1.22 5.89 5.89 0 0 1 .73 1.82 12.91 12.91 0 0 1 .36 2.35zm1.72-2.89a1.93 1.93 0 0 0 .86-.49 1 1 0 0 0 .18-.61 2.75 2.75 0 0 0-.35-1.36 1.14 1.14 0 0 0-1.05-.63 1.1 1.1 0 0 0-.75.28 2.28 2.28 0 0 0-.53.74 3.94 3.94 0 0 0-.32 1 7.18 7.18 0 0 0-.1 1.19v.32a1.23 1.23 0 0 0 0 .24zM154.19 33.23q.12-1.14.15-3.22t0-5.43v-5.43q0-2.08-.15-3.22h6.35a7.93 7.93 0 0 1 1.9.23 5.09 5.09 0 0 1 1.66.73 3.68 3.68 0 0 1 1.16 1.3 3.94 3.94 0 0 1 .44 1.92 3.84 3.84 0 0 1-.67 2.13 4.37 4.37 0 0 1-2.19 1.6 5.7 5.7 0 0 1 2.55 1.72 4.39 4.39 0 0 1 .9 2.84 4.6 4.6 0 0 1-.61 2.35 5.17 5.17 0 0 1-1.62 1.72 4.65 4.65 0 0 1-1.92.64 20.82 20.82 0 0 1-2.52.13zm3.66-12.73v2.3a3 3 0 0 0 .47.07h.52a3.18 3.18 0 0 0 2.25-.69 2.32 2.32 0 0 0 .73-1.76 2.05 2.05 0 0 0-.74-1.73 3.29 3.29 0 0 0-2-.57h-.69a3 3 0 0 0-.5.06v1.2q0 .55-.04 1.12zm0 7.74v2.62h1.56a3.26 3.26 0 0 0 2.19-.64 2.58 2.58 0 0 0 .74-2 2.52 2.52 0 0 0-1-2.21 4.34 4.34 0 0 0-2.56-.68h-.97v1.43zM174.22 33.23a4.63 4.63 0 0 1-.25-.49l-.16-.36a8.39 8.39 0 0 1-1.29.79 3.48 3.48 0 0 1-1.58.35 4.05 4.05 0 0 1-1.26-.21 3.46 3.46 0 0 1-1.15-.64 3.3 3.3 0 0 1-.85-1.12 3.71 3.71 0 0 1-.33-1.62 4.05 4.05 0 0 1 .42-1.9 4.47 4.47 0 0 1 1.23-1.44 7.72 7.72 0 0 1 1.92-1.08 21.11 21.11 0 0 1 2.5-.81 2.89 2.89 0 0 0-.65-1.35 1.67 1.67 0 0 0-1.29-.5 4.09 4.09 0 0 0-1.6.33 8.89 8.89 0 0 0-1.41.74v-3.08l.84-.08h.89a14.71 14.71 0 0 1 3.32.3 4.2 4.2 0 0 1 2.09 1.15 3.49 3.49 0 0 1 .72 1 5.53 5.53 0 0 1 .38 1.12 6.48 6.48 0 0 1 .15 1.08v3.96a14.29 14.29 0 0 0 .16 2.17 9.39 9.39 0 0 0 .4 1.71zm-.61-6.3a4.68 4.68 0 0 0-.95.22 3.31 3.31 0 0 0-.95.5 2.81 2.81 0 0 0-.73.81 2.22 2.22 0 0 0-.29 1.16 1.56 1.56 0 0 0 .42 1.15 1.46 1.46 0 0 0 1.08.42A1.9 1.9 0 0 0 173 31a1.81 1.81 0 0 0 .57-.4zM188 20.74l.9.65a15.1 15.1 0 0 0-.36 2.55q-.07 1.29-.07 2.59t0 3.09v3.33a6.73 6.73 0 0 1-.3 2.27 3.19 3.19 0 0 1-1 1.37 4.8 4.8 0 0 1-2 1 9.5 9.5 0 0 1-2.06.24q-.63 0-1.25-.06t-1.16-.16l-1-.19-.69-.15.75-2.91a4.24 4.24 0 0 0 1.39.86 5 5 0 0 0 1.93.38 1.83 1.83 0 0 0 1.59-.65 2.62 2.62 0 0 0 .47-1.58v-.35-.35a4.17 4.17 0 0 1-1 .44 4.43 4.43 0 0 1-1.22.17 3.77 3.77 0 0 1-1.62-.36 4.13 4.13 0 0 1-1.38-1.07 5.18 5.18 0 0 1-1-1.73 7.39 7.39 0 0 1-.35-2.39 9.05 9.05 0 0 1 .39-2.66 7.37 7.37 0 0 1 1.09-2.23 5.77 5.77 0 0 1 1.66-1.54 4 4 0 0 1 2.1-.58 4.6 4.6 0 0 1 1.31.22 4 4 0 0 1 1.45.85zm-2.79 4.46a5.07 5.07 0 0 0-.23-1.79.89.89 0 0 0-.91-.56 1.43 1.43 0 0 0-.93.33 2.42 2.42 0 0 0-.65.88 5.43 5.43 0 0 0-.39 1.33A9.73 9.73 0 0 0 182 27a9.2 9.2 0 0 0 .12 1.54 4.24 4.24 0 0 0 .39 1.24 2.29 2.29 0 0 0 .68.83 1.67 1.67 0 0 0 1 .3 1.7 1.7 0 0 0 .61-.11.59.59 0 0 0 .36-.28.48.48 0 0 0 0-.15v-.32-4.85zM193.69 21a10.29 10.29 0 0 1 .34 1.29 4.38 4.38 0 0 1 1.22-1.12 3.25 3.25 0 0 1 1.76-.46 3.19 3.19 0 0 1 1.53.34 2.8 2.8 0 0 1 1 .92 4 4 0 0 1 .56 1.32 6.89 6.89 0 0 1 .17 1.54v6.58c0 .39 0 .75.06 1.07s.05.56.08.74h-3.64c0-.18.06-.42.08-.74s0-.67.06-1.07 0-.82 0-1.27v-4.43a3.87 3.87 0 0 0-.3-1.78 1.06 1.06 0 0 0-1-.55 1.6 1.6 0 0 0-1 .39 1.42 1.42 0 0 0-.47 1.16v6.48c0 .39 0 .75.06 1.07s.05.56.08.74h-3.64c0-.18.06-.42.08-.74s0-.67.06-1.07 0-.82 0-1.27v-5.76-1.16q0-.6.05-1.22a7.16 7.16 0 0 0-.19-1zM208.77 33.23a4.63 4.63 0 0 1-.25-.49l-.16-.36a8.39 8.39 0 0 1-1.29.79 3.48 3.48 0 0 1-1.58.35 4.05 4.05 0 0 1-1.26-.21 3.46 3.46 0 0 1-1.15-.64 3.3 3.3 0 0 1-.85-1.12 3.71 3.71 0 0 1-.33-1.62 4.05 4.05 0 0 1 .42-1.9 4.47 4.47 0 0 1 1.22-1.44 7.72 7.72 0 0 1 1.92-1.08 21.11 21.11 0 0 1 2.5-.81 2.89 2.89 0 0 0-.65-1.35 1.67 1.67 0 0 0-1.29-.5 4.09 4.09 0 0 0-1.6.33 8.89 8.89 0 0 0-1.41.74v-3.08l.84-.08h.89a14.71 14.71 0 0 1 3.32.3 4.2 4.2 0 0 1 2.09 1.15 3.49 3.49 0 0 1 .72 1 5.53 5.53 0 0 1 .38 1.12 6.48 6.48 0 0 1 .15 1.08v3.96a14.29 14.29 0 0 0 .16 2.17 9.39 9.39 0 0 0 .4 1.71zm-.61-6.3a4.68 4.68 0 0 0-.95.22 3.31 3.31 0 0 0-.95.5 2.81 2.81 0 0 0-.73.81 2.22 2.22 0 0 0-.29 1.16 1.56 1.56 0 0 0 .42 1.15 1.46 1.46 0 0 0 1.08.42 1.9 1.9 0 0 0 .84-.18 1.81 1.81 0 0 0 .57-.4zM213.72 33.23c0-.18.06-.42.08-.74s0-.67.06-1.07 0-.82 0-1.27V20.77 19.7v-1.44q0-.74-.06-1.39t-.08-.95h3.44v15.5c0 .39 0 .75.06 1.07s.05.56.08.74zM219.56 33.23c0-.18.06-.42.08-.74s0-.67.06-1.07 0-.82 0-1.27V20.77 19.7v-1.44q0-.74-.06-1.39t-.08-.95H223v15.5c0 .39 0 .75.06 1.07s.05.56.08.74zM242.86 20a5.71 5.71 0 0 0-1.6-1.46 3.69 3.69 0 0 0-1.94-.56 3.14 3.14 0 0 0-1.66.45 3.81 3.81 0 0 0-1.26 1.3 6.86 6.86 0 0 0-.8 2.06 12.26 12.26 0 0 0-.28 2.74 10.91 10.91 0 0 0 .29 2.59 7 7 0 0 0 .84 2.06 4.17 4.17 0 0 0 1.32 1.36 3.18 3.18 0 0 0 1.72.48 3.27 3.27 0 0 0 1.77-.48 7.94 7.94 0 0 0 1.24-.92l1.28 1.38a8.07 8.07 0 0 1-2.23 1.84 5.74 5.74 0 0 1-2.84.7 7 7 0 0 1-3.2-.7 7.12 7.12 0 0 1-2.32-1.84 8 8 0 0 1-1.42-2.68 10.48 10.48 0 0 1-.47-3.14 11.26 11.26 0 0 1 .55-3.42 9.79 9.79 0 0 1 1.61-3.09 8.44 8.44 0 0 1 2.64-2.23 7.47 7.47 0 0 1 3.64-.86 9.05 9.05 0 0 1 1.42.12 15.13 15.13 0 0 1 1.71.39zM248 28.72a4.2 4.2 0 0 0 .3.93 3.15 3.15 0 0 0 .51.79 2.41 2.41 0 0 0 .7.54 1.9 1.9 0 0 0 .89.21 2.78 2.78 0 0 0 1.27-.33 6.52 6.52 0 0 0 1.22-.81l1.11 1.31a6.72 6.72 0 0 1-2 1.53 5.49 5.49 0 0 1-2.62.63 4.62 4.62 0 0 1-2-.46 5.23 5.23 0 0 1-1.67-1.27 6.18 6.18 0 0 1-1.14-2 7.17 7.17 0 0 1-.42-2.52 8.76 8.76 0 0 1 .35-2.5 6.59 6.59 0 0 1 1-2.1 5.18 5.18 0 0 1 1.67-1.46 4.72 4.72 0 0 1 2.3-.54 4.2 4.2 0 0 1 2 .45 3.63 3.63 0 0 1 1.36 1.22 5.89 5.89 0 0 1 .73 1.82 12.91 12.91 0 0 1 .36 2.35zm1.72-2.89a1.93 1.93 0 0 0 .86-.49 1 1 0 0 0 .18-.61 2.75 2.75 0 0 0-.35-1.36 1.14 1.14 0 0 0-1.05-.63 1.1 1.1 0 0 0-.75.28 2.28 2.28 0 0 0-.53.74 3.94 3.94 0 0 0-.32 1 7.18 7.18 0 0 0-.1 1.19v.32a1.23 1.23 0 0 0 0 .24zM258.33 21a10.29 10.29 0 0 1 .34 1.29 4.38 4.38 0 0 1 1.22-1.12 3.25 3.25 0 0 1 1.76-.46 3.19 3.19 0 0 1 1.53.34 2.8 2.8 0 0 1 1 .92 4 4 0 0 1 .56 1.32 6.89 6.89 0 0 1 .17 1.54v6.58c0 .39 0 .75.06 1.07s.05.56.08.74h-3.64c0-.18.06-.42.08-.74s0-.67.06-1.07 0-.82 0-1.27v-4.43a3.87 3.87 0 0 0-.3-1.78 1.06 1.06 0 0 0-1-.55 1.6 1.6 0 0 0-1 .39 1.42 1.42 0 0 0-.47 1.16v6.48c0 .39 0 .75.06 1.07s.05.56.08.74h-3.64c0-.18.06-.42.08-.74s0-.67.06-1.07 0-.82 0-1.27v-5.76-1.16q0-.6.05-1.22a7.16 7.16 0 0 0-.19-1zM271.14 17.32a4.2 4.2 0 0 0-.07.61V21h2v2.23h-2v5.67a8.58 8.58 0 0 0 .06 1.14 2.4 2.4 0 0 0 .18.69.69.69 0 0 0 .34.35 1.31 1.31 0 0 0 .53.1h.45l.45-.07v2a7.32 7.32 0 0 1-1.21.32 7.52 7.52 0 0 1-1.31.12 2.93 2.93 0 0 1-1.56-.35 2 2 0 0 1-.82-.87 4 4 0 0 1-.36-1.36 17.12 17.12 0 0 1-.08-1.79v-5.94h-1.48V21h1.48v-2-1a5.19 5.19 0 0 0-.07-.68zM277.56 21a7.63 7.63 0 0 1 .21 1 5.89 5.89 0 0 1 .08.79 5 5 0 0 1 1.53-1.5 4.17 4.17 0 0 1 2.21-.53v2.86l-.3-.06a2.89 2.89 0 0 0-.5 0 2.23 2.23 0 0 0-1.84.9 2.79 2.79 0 0 0-.51 1 8.22 8.22 0 0 0-.27 1.14 8.36 8.36 0 0 0-.11 1.19v3.75c0 .39 0 .75.06 1.07s.05.56.08.74h-3.78c0-.18.06-.42.08-.74s0-.67.06-1.07 0-.82 0-1.27v-4.68-1.37q0-.69-.08-1.29-.06-.59-.13-1.07a6.87 6.87 0 0 0-.15-.74zM285.81 28.72a4.2 4.2 0 0 0 .3.93 3.15 3.15 0 0 0 .51.79 2.41 2.41 0 0 0 .7.54 1.9 1.9 0 0 0 .89.21 2.78 2.78 0 0 0 1.27-.33 6.52 6.52 0 0 0 1.22-.81l1.16 1.31a6.72 6.72 0 0 1-2 1.53 5.49 5.49 0 0 1-2.62.63 4.62 4.62 0 0 1-2-.46 5.23 5.23 0 0 1-1.67-1.27 6.18 6.18 0 0 1-1.14-2 7.17 7.17 0 0 1-.42-2.52 8.76 8.76 0 0 1 .35-2.5 6.59 6.59 0 0 1 1-2.1 5.18 5.18 0 0 1 1.67-1.46 4.72 4.72 0 0 1 2.3-.54 4.2 4.2 0 0 1 2 .45 3.63 3.63 0 0 1 1.36 1.22 5.89 5.89 0 0 1 .73 1.82 12.91 12.91 0 0 1 .36 2.35zm1.72-2.89a1.93 1.93 0 0 0 .86-.49 1 1 0 0 0 .18-.61 2.75 2.75 0 0 0-.35-1.36 1.14 1.14 0 0 0-1.05-.63 1.1 1.1 0 0 0-.75.28 2.28 2.28 0 0 0-.53.74 3.94 3.94 0 0 0-.32 1 7.18 7.18 0 0 0-.1 1.19v.32a1.23 1.23 0 0 0 0 .24z"/>
</svg>